<?xml version="1.0" encoding="UTF-8"?>
<svg data-bbox="-0.002 0.002 612.417 549.996" viewBox="0 0 612.41 550" xmlns="http://www.w3.org/2000/svg" data-type="ugc">
    <g>
        <path d="M192.65 230c2.65 14.24 6.22 28.45 11.98 41.75 19.09 44.11 62.53 70.98 101.66 95.46 36.95-22.37 79.13-49.39 98.16-89.8 13.22-28.06 15.68-58.32 16.86-88.97l-.11-77.91c-40.41-9.04-78.14-26.3-114.23-46.06-28.69 15.91-58.37 30.13-90.08 39.12-4.6 1.3-20.79 6.4-24.22 4.83s-5.16-10.29-.57-11.86c30.55-7.54 59.91-18.99 87.83-33.35 4.79-2.46 22.86-13.96 26.31-14.11 4.25-.18 18.17 9.21 22.94 11.68 22.95 11.91 46.56 22.71 71.3 30.49 8.74 2.75 21.34 4.72 29.13 8.03 1.67.71 3.14 1.53 4.19 3.08l.45 98.17c-3.31 82.37-34.01 122.01-100.59 165.19-6.03 3.91-16.81 11.79-22.76 14.4-4.9 2.15-6.86.51-11.03-1.65-27.35-14.18-67.88-44.14-86.97-68.14-16.75-21.06-32.96-58.61-33.98-85.64-.16-4.31 1.62-7.24 6.06-7.65l80.43-.35 18.51-71.97c2.71-10.18 15.87-11.54 18.57-.72l21.87 112.65 20.14-65.07c4.88-9.47 16.67-8.94 22.22-.32 2.88 4.48 5.71 24.04 8.51 25.42 3.71 1.83 21.88-.49 27.83.44 7.1 1.11 6.97 11.69.84 12.86-4.73.9-22.88.53-28.29.05-5.4-.48-9.91-3.71-12.66-8.35-3.82-6.45-3.21-15.78-7.9-21.58l-23.28 78.11c-2.82 7.01-10.45 9.59-15.51 3.08-8.53-38.41-15.51-77.5-22.64-116.33-.24-1.33.52-1.39-1.59-1.22.06 1.38-.03 2.73-.37 4.08-3.73 15.08-7.33 37.38-12.75 51.08-1.58 4-7.9 11.09-12.34 11.09h-73.92Z" fill="#00aeef"/>
        <path d="M461.63 76.54c-55.29-10.04-107.64-31.11-154.8-61.3-41.17 25.99-85.66 45.23-133.2 56.46-3.78-1.21-9.73-8.09-6.05-11.79 2.04-2.05 17.67-5.17 21.84-6.43 26.58-8.05 52.77-17.9 77.29-30.96 11.12-5.92 24.82-16.69 35.25-21.29 4.16-1.83 5.77-1.52 9.7.3 11.08 5.13 23.76 15.13 35.27 21.27 31.48 16.8 66.27 28.88 100.99 37.15 4.79 1.14 21.81 3.34 24.3 5.59.74.67 1.26 1.5 1.61 2.43 1.32 46.95 1.18 94.39-.06 141.42-7.06 93.1-46.69 143.11-122.36 191.89-10.85 6.99-29.66 19.91-40.9 24.53-1.81.74-3.52 1.86-5.57.96-59.01-32.63-119.1-69.67-147.16-134.02-6.55-15.02-14.47-39.8-15.92-55.98-.32-3.55-.75-6.24 3.5-6.8 2.15-.28 7.24-.49 8.46 1.3 3.88 20.09 8.45 39.53 16.88 58.25 21.38 47.51 60.38 77.35 103.31 104.31 8 5.02 22.31 14.81 30.37 18.14 1.04.43 1.86.86 3 .29 47.06-27.38 98.63-57.75 126.15-106.58 18.82-33.39 25.32-72.09 28.18-109.97l-.08-119.16Z" fill="#00aeef"/>
        <path d="m486.7 371.37 6.87-54.13c4.28-27.39 43.08-39.1 50.5-6.86-2.41 30.26 5.11 66.72-4.62 95.56-7.6 22.5-41.41 69.52-59.63 84.98-12.76 10.83-44.18 28.59-49.8 43.1-1.87 4.83-.5 16.43-8.14 15.74-6.89-.62-7.04-8.7-6.14-13.87 3.95-22.55 34.8-38 51.15-51.44 21.33-17.53 56.55-65.21 62.23-92.06 5.2-24.56.28-53.56 2.01-78.78-1.86-12.8-13.84-11.69-20.53-2.75-10.64 14.22-4.94 52.46-13.88 70.94-5.41 11.17-28.36 36.82-37.51 47.32-6.48 7.44-24.44 28.63-31.99 32.63-4.95 2.63-9.9-2.83-8.85-7.16.97-4.02 12.03-13.17 15.43-16.96 8.42-9.37 38.54-45.69 39.9-56.22 1.13-8.72-6.14-13.7-14.1-10.88-6.39 2.27-19.47 20.08-24.99 25.9-26.89 28.32-65.3 38.41-82.15 76.19-10.26 23.01-6.21 48.21-7.3 72.67-3.5 7.95-11.82 5.09-12.75-3.06-1.13-9.91-.53-27.65-.04-38.01 1.71-36.25 19.17-62.18 47.77-83.1 10.9-7.97 23.59-13.82 33.87-22.68 16.97-14.62 35.8-52.56 61.95-38.55 5.32 2.85 7.19 7.03 10.73 11.48Z" fill="#00aeef"/>
        <path d="m172.53 165.45-6.42 16.37c6.29 6.63 14.71 13.92 7.96 23.55-1.45 2.07-12.46 13.12-14.51 14.57-9.69 6.84-16.94-3.5-24.3-8.18-5.05 2.82-10.21 5.45-16.04 6.21.31 10.73.71 22-12.61 23.34-5.86.59-19.6.88-24.23-2.41-8.91-6.32-3.28-18.33-6.04-20.62l-16.46-6.72c-6.82 6.08-14.82 14.96-24.35 7.95-3.03-2.23-12.02-10.44-14.14-13.33-7.51-10.21 2.3-17.27 7.95-24.89l-6.42-15.82c-9.35-.28-21.22.01-22.54-11.79-.5-4.46-.58-17.41.19-21.63 1.94-10.69 13.28-8.42 21.27-8.99l7.64-16.25c-5.67-9.11-15.63-14.25-7.28-25.83 1.49-2.07 11.78-12.4 13.77-13.7 6.01-3.92 10.72-1.91 16.05 1.65 1.89 1.27 6.15 5.87 7.37 6.42 2.43 1.1 13.55-6.22 17.71-5.31-.69-8.96-.7-22.02 10.92-23.41 4.26-.51 17.58-.54 21.64.21 1.66.3 4.14 1.57 5.39 2.69 6.36 5.66 2.7 18.35 4.88 20.16s12.83 3.7 15.78 6.62c6.98-5.3 15-15.9 24.66-9.09 2.17 1.53 14.76 14.46 15.77 16.55 4.76 9.85-5.46 16.08-9.81 23.51l6.9 14.95c7.63.81 16.18-1.08 20.75 6.72 2.65 4.53 2.51 19.18 1.91 24.75-1.38 12.88-13.74 10.64-23.35 11.79Zm-66.32-91.77c-.5-4 .36-8.81 0-12.93 0-2.19-13.12-.85-15.35-1.22-1.35 5.32.66 15.45-2.78 19.44-2.28 2.65-10.31 3.71-14.17 5.22-3.48 1.36-8.8 5.21-11.91 5.86-7.22 1.51-13.38-6.88-18.39-10.98-.8 0-9.25 7.72-9.73 8.77-1.77 3.9 9.74 11.45 10.18 17.35.35 4.83-4.21 9.66-6.1 14.14-1.36 3.23-2.94 11.52-4.71 13.47-3.22 3.52-15.12 2.53-19.94 3.48l.09 14.46c.83.98 13.89 1.1 16.92 2.06 5.03 1.59 4.86 8.87 6.39 13 1.56 4.21 7.39 13.62 7.25 16.87-.22 4.93-8.26 11.58-11.25 15.42l10.2 10.04c1.75.31 10.53-10.55 15.3-11.21s11.16 4.57 15.95 6.57c3.89 1.62 11.43 2.81 13.91 5.48 3.32 3.56 2.54 13.78 2.79 18.62l14.08.04c2.86-5.65-.73-13.7 3.26-18.66 2.37-2.95 11.75-4.55 16.08-6.54 12.21-5.62 10.24-9.17 22.71.95 1.35 1.1 3.39 3.92 4.47 4.47 2.51 1.29 8.04-8.49 11.3-8.55.66-.9-11.21-12.19-11.2-17.35 0-3.41 4.23-8.57 5.68-11.98 1.66-3.9 3.93-13.31 6.29-15.52 4.17-3.89 17.75-1.74 19.07-3.58l-.45-14.57c-4.94-.91-15.6.02-19.11-3.51-1.94-1.94-3.53-9.79-4.99-13.19s-6.16-10.1-6.43-12.98c-.49-5.15 8.42-12.67 11.08-16.89-2.35-4.38-5.93-7.97-10.04-10.65-5.34 3.85-11.24 12.16-18.51 11.14-3.29-.46-7.15-3.92-10.17-5.2-7.18-3.06-16.68-2.74-17.76-11.32Z" fill="#00aeef"/>
        <path d="M115.1 305.13v178.13c0 3.47-5.08 13.02-7.41 16.02-15.26 19.64-44.86 17.89-57.87-3.25-1.58-2.57-5.01-10.05-5.01-12.77V305.13c-4.95.02-13.39 1.36-14.49-5.29-.67-4.02-.7-27.62.12-31.29.68-3.01 4.34-5.76 7.47-5.46 27.07 1.94 57.42-2.45 84.09 0 2.95.27 5.17 1.03 6.72 3.78 2.46 4.35 2.15 20.23 1.76 25.78-.83 11.89-3.17 13.5-15.38 12.49Zm1.61-29.08H43.2v16.16h73.51zm-14.54 29.08H57.74v36.35h44.43zm0 49.28H57.74v127.24c0 .71 2.55 6.2 3.2 7.3 7.13 11.96 22.45 14.73 33.16 5.64 3.14-2.67 8.07-9.67 8.07-13.74V354.42Z" fill="#00aeef"/>
        <path d="M212.91 421.51c-1.55 8.42-13.83 8.92-13.86-.45 0-3.01 2.21-5.9 2.2-7.28-.02-2.75-31.27-37.01-35.96-41.3-6.62-5.93-16.75-1.3-15.71 7.64.4 3.45 2.79 7.02 4.46 10.08 10.51 19.3 27.35 48.14 40.72 65.1 18.75 23.79 52.96 33.32 55.96 67.64.45 5.14.81 16.85.05 21.66-1.01 6.37-11.79 8.11-12.87-1.56-1.59-14.23 2.66-24.75-7.67-37.57-13.03-16.18-33.81-25.66-46.79-42.88-16.9-22.41-29.92-50.59-45.3-74.26-6.81-15.11 4.72-32 21.02-31.54 19.53.55 39.11 35.21 52.11 48.08 35.9 18.55 73.76 28.16 91.95 68 8.11 17.76 13.25 50.9 10.54 70.09-1.19 8.42-11.31 8.69-13.3 2.13-1.89-6.21.13-22.57-.37-30.33-3.52-54.53-34.87-71.19-79.68-90.78-1.24-.54-6.7-3.08-7.5-2.49Z" fill="#00aeef"/>
        <path d="M570.73 67.62h35.95c1.73 0 4.89 4.13 5.21 6.1.79 5.05.58 19.65.08 25.04-.26 2.8-3.35 8.44-6.1 8.44h-35.14c-.21.59.81.97.81 1.21v33.12c0 3.6-4.15 7.28-7.66 7.69-5.1.61-21.75.7-26.63-.06-1.97-.31-6.1-3.48-6.1-5.21v-36.76h-35.14c-4.1 0-6.57-5.73-6.9-9.26-.48-5.19-.65-19.24.22-24.08.37-2.04 3.07-6.25 5.06-6.25h36.76V29.25c0-1.73 4.13-4.89 6.1-5.21 5.36-.84 20.92-.6 26.65-.08 1.76.16 2.87.15 4.39 1.27.77.56 3.25 4.33 3.25 4.83v36.35c0 .25-1.02.62-.81 1.21m-12.93-30.7h-13.73v38.37c0 1.03-4.22 5.25-5.25 5.25h-36.76v13.73h36.76c1.03 0 5.25 4.22 5.25 5.25v36.76h13.73v-35.95c0-1.55 3.78-6.06 5.25-6.06H599V80.54h-35.14c-1.62 0-6.06-4.44-6.06-6.06V36.91Z" fill="#00aeef"/>
        <path d="M106.21 73.68c1.08 8.58 10.58 8.26 17.76 11.32 3.02 1.29 6.88 4.74 10.17 5.2 7.27 1.02 13.17-7.29 18.51-11.14 4.12 2.68 7.7 6.27 10.04 10.65-2.66 4.22-11.56 11.74-11.08 16.89.27 2.88 4.98 9.6 6.43 12.98s3.05 11.25 4.99 13.19c3.52 3.52 14.17 2.6 19.11 3.51l.45 14.57c-1.32 1.84-14.9-.3-19.07 3.58-2.37 2.21-4.63 11.62-6.29 15.52-1.45 3.41-5.68 8.56-5.68 11.98 0 5.17 11.86 16.45 11.2 17.35-3.26.06-8.79 9.84-11.3 8.55-1.08-.55-3.12-3.37-4.47-4.47-12.47-10.12-10.5-6.56-22.71-.95-4.33 1.99-13.71 3.6-16.08 6.54-3.99 4.97-.41 13.01-3.26 18.66l-14.08-.04c-.25-4.83.53-15.06-2.79-18.62-2.49-2.67-10.03-3.85-13.91-5.48-4.79-2-11.1-7.24-15.95-6.57s-13.56 11.52-15.3 11.21l-10.2-10.04c2.99-3.83 11.04-10.49 11.25-15.42.14-3.25-5.69-12.66-7.25-16.87-1.53-4.13-1.36-11.4-6.39-13-3.03-.96-16.09-1.09-16.92-2.06l-.09-14.46c4.82-.95 16.72.03 19.94-3.48 1.78-1.94 3.36-10.24 4.71-13.47 1.89-4.48 6.45-9.31 6.1-14.14-.43-5.9-11.95-13.44-10.18-17.35.48-1.05 8.93-8.77 9.73-8.77 5 4.1 11.16 12.5 18.39 10.98 3.11-.65 8.44-4.51 11.91-5.86 3.86-1.51 11.89-2.56 14.17-5.22 3.44-3.99 1.43-14.12 2.78-19.44 2.24.37 15.35-.98 15.35 1.22.36 4.11-.5 8.93 0 12.93Zm33.62 70.47c0-23.22-18.82-42.04-42.04-42.04s-42.04 18.82-42.04 42.04 18.82 42.04 42.04 42.04 42.04-18.82 42.04-42.04" fill="none"/>
        <path d="M102.17 354.41v126.43c0 4.07-4.93 11.07-8.07 13.74-10.71 9.1-26.02 6.32-33.16-5.64-.66-1.1-3.2-6.59-3.2-7.3V354.4h44.43Zm-33.36 39.75c-1.29.37-3.58 2.96-3.81 4.32-1.85 11.02 20.59 10.75 16.62-1.3-1.28-3.9-9.55-3.96-12.81-3.02m-.81 31.5c-4.09 1.23-4.05 9.43.45 11.35 2.24.95 10.53.96 13.08.56 5.78-.9 7.36-9.33 2.68-11.47-1.85-.85-14.2-1.04-16.21-.44" fill="none"/>
        <path fill="none" d="M102.17 305.13v36.35H57.74v-36.35z"/>
        <path fill="none" d="M116.71 276.05v16.16H43.2v-16.16z"/>
        <path d="M557.8 36.92v37.57c0 1.62 4.44 6.06 6.06 6.06H599v13.73h-35.95c-1.47 0-5.25 4.51-5.25 6.06v35.95h-13.73V99.53c0-1.03-4.22-5.25-5.25-5.25h-36.76V80.55h36.76c1.03 0 5.25-4.22 5.25-5.25V36.93h13.73Z" fill="none"/>
        <path d="M139.83 144.15c0 23.22-18.82 42.04-42.04 42.04s-42.04-18.82-42.04-42.04 18.82-42.04 42.04-42.04 42.04 18.82 42.04 42.04m-13.35-.03c0-15.83-12.83-28.66-28.66-28.66s-28.66 12.83-28.66 28.66 12.83 28.66 28.66 28.66 28.66-12.83 28.66-28.66" fill="#00aeef"/>
        <path d="M68 425.66c2.01-.6 14.36-.41 16.21.44 4.68 2.15 3.1 10.57-2.68 11.47-2.55.4-10.84.39-13.08-.56-4.5-1.92-4.54-10.13-.45-11.35" fill="#00aeef"/>
        <path d="M68.81 394.16c3.25-.95 11.52-.88 12.81 3.02 3.97 12.05-18.47 12.31-16.62 1.3.23-1.35 2.53-3.94 3.81-4.32" fill="#00aeef"/>
        <path fill="none" d="M126.48 144.12c0 15.828-12.832 28.66-28.66 28.66s-28.66-12.832-28.66-28.66 12.832-28.66 28.66-28.66 28.66 12.832 28.66 28.66"/>
    </g>
</svg>
