<?xml version="1.0" encoding="UTF-8"?>
<svg data-bbox="14.885 18.537 475.822 426.351" viewBox="0 0 509.8 466.9" xmlns="http://www.w3.org/2000/svg" data-type="ugc">
    <g>
        <defs>
            <clipPath id="dcc7257b-6e83-4272-8d58-9dcc63771162">
                <path d="m53.4 84.5 486.1 97.7-97.7 486-486-97.6z"/>
            </clipPath>
            <clipPath id="d1f23886-89a2-48e0-af03-f181d6109433">
                <path d="m53.4 84.5 486.1 97.7-97.7 486-486-97.6z"/>
            </clipPath>
            <clipPath id="d4761cb9-5980-4c8f-a99b-3df7119fcaad">
                <path d="m53.4 84.5 486.1 97.7-97.7 486-486-97.6z"/>
            </clipPath>
            <clipPath id="5a37b18f-2eca-4952-abfe-039c321ee951">
                <path d="m111.9 22 300.4-64.1 64 300.4L176 322.4z"/>
            </clipPath>
            <clipPath id="c6c6555d-2dc8-4977-a980-ce380ec1ca6a">
                <path d="m111.9 22 300.4-64.1 64 300.4L176 322.4z"/>
            </clipPath>
            <clipPath id="7ed9be77-6fc3-4e90-bde4-715257a8d384">
                <path d="m111.9 22 300.4-64.1 64 300.4L176 322.4z"/>
            </clipPath>
        </defs>
        <g clip-path="url(#dcc7257b-6e83-4272-8d58-9dcc63771162)">
            <g clip-path="url(#d1f23886-89a2-48e0-af03-f181d6109433)">
                <g clip-path="url(#d4761cb9-5980-4c8f-a99b-3df7119fcaad)">
                    <path d="M201.5 317.7 323 342.1c8.4 1.7 13.8 9.8 12.1 18.2s-9.9 13.8-18.2 12.1l-91.1-18.3c-2.8-.6-5.5 1.2-6.1 4s1.2 5.5 4 6.1l91.1 18.3c14 2.8 27.6-6.2 30.4-20.2s-6.2-27.6-20.2-30.4l-121.5-24.4c-9.1-1.8-18.6-1.1-27.4 1.9L19 349.5c-2.8.6-4.6 3.3-4 6.1s3.3 4.6 6.1 4c.1 0 .3 0 .4-.1L179 319.3c7.2-2.5 15-3.1 22.5-1.6Z" fill="#86ba23" stroke="#86ba23" stroke-width="9.2"/>
                    <path d="M470 318.4c-4.6-1-9.5-.7-13.9 1.1l-96.5 32.2c-2.7.9-4.2 3.8-3.3 6.5s3.8 4.2 6.5 3.3l96.9-32.3c2.6-1 5.5-1.3 8.2-.6 8.4 1.7 13.8 9.8 12.1 18.2-1.1 4.4-3.9 8.3-7.7 10.8l-159.2 73.6c-3.1 1.5-6.5 1.9-9.8 1.3l-94.7-19c-51.8-10.4-97.1-3-134.6 21.9-2.4 1.5-3.1 4.7-1.6 7.1s4.7 3.1 7.1 1.6h.1c35.1-23.4 77.8-30.2 126.8-20.4l94.7 19c5.5 1.1 11.1.4 16.2-2L477 366.9l.7-.4c6.3-4 10.8-10.3 12.5-17.6 2.8-14-6.3-27.6-20.3-30.4Z" fill="#86ba23" stroke="#86ba23" stroke-width="9.2"/>
                </g>
            </g>
        </g>
        <g clip-path="url(#5a37b18f-2eca-4952-abfe-039c321ee951)">
            <g clip-path="url(#c6c6555d-2dc8-4977-a980-ce380ec1ca6a)">
                <g clip-path="url(#7ed9be77-6fc3-4e90-bde4-715257a8d384)">
                    <path d="M270.1 27.5c62.2-13.3 123.4 26.4 136.7 88.6s-26.4 123.4-88.6 136.7-123.4-26.4-136.6-88.6 26.5-123.3 88.6-136.7m-1.4-6.2c-65.7 14-107.5 78.6-93.5 144.2s78.6 107.6 144.3 93.5c65.7-14 107.5-78.6 93.5-144.2S334.6 7.3 269 21.2h-.1Z" stroke-width="9.2" fill="#86ba23" stroke="#86ba23"/>
                    <path d="M274.1 46.3c51.8-11.1 102.8 22 113.9 73.8S366 222.9 314.1 234c-51.8 11.1-102.8-22-113.9-73.8-11-51.8 22.1-102.8 73.9-113.9m-1.3-6.3c-55.3 11.8-90.6 66.2-78.8 121.5s66.2 90.6 121.5 78.8 90.6-66.2 78.8-121.5C382.4 63.5 328.1 28.3 272.8 40Z" stroke-width="9.2" fill="#86ba23" stroke="#86ba23"/>
                    <path d="m312.7 152.8-47.9 32.7 10.4-56.5L323 95.8zm-43.4-27.6-13.6 74.2 62.8-42.8L332 81.8l-62.7 43.5Z" stroke-width="9.2" fill="#86ba23" stroke="#86ba23"/>
                    <path d="M300.4 138.8c.7 3.5-1.5 6.9-4.9 7.6-3.5.7-6.9-1.5-7.6-4.9s1.5-6.8 4.9-7.6c3.5-.7 6.8 1.5 7.6 4.9Z" stroke-width="9.2" fill="#86ba23" stroke="#86ba23"/>
                </g>
            </g>
        </g>
    </g>
</svg>
