<?xml version="1.0" encoding="UTF-8"?>
<svg data-bbox="26.312 12.25 84.376 112.5" overflow="hidden" xmlns="http://www.w3.org/2000/svg" height="136" width="136" data-type="ugc">
    <g>
        <path fill="#86BA23" stroke-width="1.406" stroke="#86BA23" d="m47.406 39.793-4.631-4.631-1.988 1.988 6.619 6.62 13.651-13.651-1.989-1.988z"/>
        <path fill="#86BA23" stroke-width="1.406" stroke="#86BA23" d="M69.906 36.156h26.719v2.813H69.906Z"/>
        <path fill="#86BA23" stroke-width="1.406" stroke="#86BA23" d="m47.406 60.887-4.631-4.631-1.988 1.988 6.619 6.619 13.651-13.65-1.989-1.988z"/>
        <path fill="#86BA23" stroke-width="1.406" stroke="#86BA23" d="M69.906 57.25h26.719v2.812H69.906Z"/>
        <path fill="#86BA23" stroke-width="1.406" stroke="#86BA23" d="m47.406 81.98-4.631-4.63-1.988 1.988 6.619 6.619 13.651-13.65-1.989-1.989z"/>
        <path fill="#86BA23" stroke-width="1.406" stroke="#86BA23" d="M69.906 78.344h26.719v2.812H69.906Z"/>
        <path fill="#86BA23" stroke-width="1.406" stroke="#86BA23" d="m47.406 103.074-4.631-4.631-1.988 1.989 6.619 6.619L61.057 93.4l-1.989-1.988z"/>
        <path fill="#86BA23" stroke-width="1.406" stroke="#86BA23" d="M69.906 99.438h26.719v2.812H69.906Z"/>
        <path fill="#86BA23" stroke-width="1.406" stroke="#86BA23" d="M26.312 124.75h84.376V12.25H26.312Zm2.813-109.688h78.75v106.876h-78.75Z"/>
    </g>
</svg>
