<?xml version="1.0" encoding="UTF-8"?>
<svg data-bbox="0.017 0.009 570.198 550.004" viewBox="0 0 570.22 550" xmlns="http://www.w3.org/2000/svg" data-type="ugc">
    <g>
        <path d="M102.03 69.82c-3.33.67-7.71 5.72-7.76 9.36l.04 174.48c-1.11 7.32-8.61 9.24-12.44 2.62l-.65-177.11c2.85-33.19 49.14-19.58 70.94-22.39 2.07-28.11 37.42-16.19 56.24-18.75.22-2.86.49-6.23 1.2-8.99 11.1-43.08 81.64-36.67 81.13 9 11.56.66 24.05-.89 35.5-.04 11.84.88 19.74 6.27 20.79 18.74 15.4 1.07 32.42-1.31 47.64.05 13.87 1.24 22.09 10.38 23.23 24.05 2.24 26.9-1.66 56.72.03 83.93 7.5 9.91 14.99 20.04 19.69 31.66 11.99 29.59 7.45 65.26-10.69 91.33l9.75 9.91c5.61-.14 9.77-2.68 14.65 2.43 20.15 23.64 49.71 45.11 68.88 68.88 19.63 24.33-13.53 57.68-40.37 35.48-23-19.02-43.57-46.63-66.44-66.43-3.71-4.07-3.5-9.07-1.58-13.89l-11.04-11.05c-9.05 5.43-18.69 10.05-29 12.63-78.32 19.57-144.67-57.95-112.72-132.29 24.12-56.13 95.1-75.91 144.73-39.81l1.88.15c.4-.3-.82-1.04-.82-1.21V78.38c0-2.64-5.98-8.56-8.56-8.56h-49.32v19.16c0 1.49-4.29 8.56-5.67 9.82-2.2 2-7.27 4.11-10.23 4.45l-162.25.03c-5.15-.08-11.56-4.4-14.11-8.71-.41-.69-2.56-6.06-2.56-6.4V69.83h-50.13Zm140.4-56.87c-10.97 1.71-20.24 12.46-21.59 23.24-.67 5.35 1.63 11.22-3.49 14.45-14.91 2.06-32.25-1.29-46.87.41-3.61.42-4.88 1.72-5.3 5.3s-.37 29.59.44 31.39c.41.91 2.62 2.61 3.61 2.91l161.23-.25c2.06-1.24 3.19-2.16 3.51-4.64.45-3.39.33-29.49-.47-31.41-.52-1.25-3.27-3.49-4.83-3.32l-46.34-.13c-5.7-3.1-3.32-9.49-3.92-14.82-2.04-17.92-19.49-25.69-35.99-23.12Zm189.35 219.09c0-46.45-37.66-84.11-84.11-84.11s-84.11 37.66-84.11 84.11 37.66 84.11 84.11 84.11 84.11-37.66 84.11-84.11m-13.35 66.11-7.85 7.66 10.03 9.26 8.69-7.63zm22.58 50.17c16.69 16.31 33.44 32.59 49.98 49.06 14.31 8.14 29.48-7.71 19-21.45l-66.41-66.44-20.77 20.77c6.01 6.07 12.1 12.09 18.2 18.06" fill="#00aeef"/>
        <path d="m101.62 309.47.02 57.46 25.16 128.09c4.39 58.67-58.53 40.82-95.71 43.54-13.04-1.55-24.23-10.29-28.71-22.64-3.65-10.07-2.39-16.27-.75-26.45 3.28-20.36 8.64-41.25 12.53-61.65 3.69-19.37 10.42-45.13 11.7-64.11 1.19-17.59-.96-36.51-.03-54.25-13.38 1.29-14.91-4.28-15.53-15.85-.51-9.47-1.38-21.7 11.06-22.44 26.89 1.7 56.62-2.31 83.16-.04 4.99.43 10.49 2.47 11.6 7.96.69 3.39.69 19.07 0 22.45-1.31 6.45-8.6 8.92-14.49 7.93Zm2.45-26.08h-80.7v13.86h80.7zm-14.68 26.08H38.04c-1 18.47 1.35 38.33-.01 56.64-.66 8.92-3.84 18.37-4.88 27.32h46.87c4.2 0 8.06 10.13 1.46 12.06l-50.67.28-18.87 95.71c-.1 12.04 7.1 22.58 19.24 24.76 26.61-4.39 89.33 16.07 83.25-30.26-5.48-41.78-19.22-85.33-25.02-127.41v-59.09Z" fill="#00aeef"/>
        <path d="M335.57 436.63c17.25.31 7.32 28.12 11.39 32.23 4.57 4.62 25.32-4.64 26.94 8.93 1 8.41 1.22 17.99-6.27 23.12-14.29 9.79-44.85 14.1-52.6 31.36-2.38 5.3-2.03 16.51-7.78 17.56-10.87 1.97-6.98-12.53-4.91-18.02 8.9-23.66 31.36-27.71 51.45-37.4 6.74-3.25 10.59-4.02 7.83-12.9-8.39.31-18.77 1.45-24.42-6.14-4.91-6.59-1.4-19.32-2.45-27.31-5.6 1.27-14.35-2.89-13.83-9.27.48-6.04 11.73-18.25 13.45-24.94 1.2-4.68-.04-10.95.4-15.91 4.09-46.38 73.33-58 97.66-21.06 13.31 20.2 9.69 42.62 1.34 63.82-1.29 3.27-4.74 8.01-5.22 11.08-.91 5.81-.42 22.95 1.75 28.31 1.08 2.68 3.74 5.26 6.09 6.95 18.69 13.45 49.22 15.33 58.76 40.69 2.17 5.77 6.5 22.32-3.5 22.14-7.04-.13-6.26-13.45-8.14-18.65-7.84-21.59-53.99-24.67-63.87-45.36-3.44-7.21-4.35-26.84-3.29-34.88 1.49-11.39 11.61-24.49 12.87-39.3 3.43-40.48-43.11-58.25-71.2-34.52-15.74 13.29-7.88 24.46-12.24 39.93-2.03 7.17-7.73 12.62-10.19 19.55Z" fill="#00aeef"/>
        <path d="M526.32 65.74h37.9c1.74 0 4.94 4.17 5.25 6.16 1.13 7.17.82 29.82.09 37.49-.28 2.93-1.84 7.7-5.34 7.7h-37.9v37.09c0 2.9-4.02 5.79-6.91 6.13-12.31 1.44-27.33-1.09-39.94-.04-1.19-.03-5.32-4.12-5.32-4.47v-38.72h-37.09c-2.9 0-5.1-4.14-5.35-6.88-.75-7.98-1.04-30.81.11-38.31.28-1.81 2.54-6.17 4.43-6.17h37.9v-38.7c0-2.77 5.12-5.1 7.71-5.34 8.3-.76 29.52-1.01 37.46.11 2.29.32 7 2.88 7 5.22v38.72Zm-13.04-31.79h-26.9v39.54c0 .96-3.53 4.48-4.48 4.48H444v26.9h38.72c.82 0 3.67 2.85 3.67 3.67v39.54h26.9v-37.9c0-1.39 3.06-5.3 4.48-5.3h38.72v-26.9h-38.72c-.23 0-2.88-2.73-3.2-3.32-2.09-3.92-.43-5.85-.43-9.28 0-10.53-.49-20.91-.85-31.42Z" fill="#00aeef"/>
        <path d="m219.81 396.69 11.85-41.56c1.57-4.96 5.25-7.07 10.41-5.55 4.88 1.44 10.23 22.27 13.34 23.34l51.22.13c7.71-.5 9.92 10.98 2.39 12.18-14.94.19-29.88-.07-44.82.02-4.79.03-7.07 1.55-12.59-.38-7.73-2.71-7.67-9.87-12.23-15.07.07 3.37-1.09 6.62-2.05 9.78-3.17 10.45-8.13 31.63-12.73 40.25-3.77 7.07-10.97 4.33-13.53-2.57-6.59-17.71-11.49-46.08-16.13-65.38-1.15-4.8-2.45-9.75-2.85-14.68-1.27.12-1.23 1.24-1.57 2.09-4.12 10.43-6.28 25.81-11.05 35.41-2.05 4.12-4.52 5.32-8.94 5.73-13.42 1.25-28.76-.98-42.4-.05-6.32-2.12-5.62-11.16.84-12.16l40.22-.13 15.18-53.7c2.24-7.34 10.56-9.2 13.68-1.49 8.21 26.21 11.86 55.77 20.21 81.69.29.91.27 1.97 1.55 2.11Z" fill="#00aeef"/>
        <path d="m140.52 469.42 166.95-.19c9.79 1.96 7.43 13.53-2.43 13.09H144.39c-8.16.25-12.41-9.41-3.87-12.9" fill="#00aeef"/>
        <path d="M183.69 220.02c4.73-.14 7.78 5.92 5.05 9.88l-38.17 36.84c-2.38.76-3.68.37-5.71-.91-1.82-1.16-19.83-19.13-20.25-20.51-.64-2.13-.26-5.64 1.49-7.14 1.77-1.34 4.63-1.72 6.73-1.08 2.58.78 14.71 14.74 16.36 14.45l29.45-29.29c1.22-.87 3.62-2.19 5.04-2.23Z" fill="#00aeef"/>
        <path d="M181.27 136c5.22-1.57 10.38 3.58 7.96 8.8l-38.66 37.97c-2.38.76-3.68.37-5.71-.91-1.81-1.15-19.49-19.02-20.23-20.55-2.17-4.41 1.94-9.88 6.55-9.04 3.64.66 16.12 16.16 17.31 16.16l32.78-32.44Z" fill="#00aeef"/>
        <path d="M196.44 165.45c.9-.98 2.82-1.79 4.19-1.92 17.03 1.52 37.21-1.91 53.85.02 7.61.88 7.19 11.18.75 12.19-17.23-1.37-37.75 2.01-54.58.07-5.44-.63-7.93-6.29-4.2-10.36Z" fill="#00aeef"/>
        <path d="M200.02 247.69c4.26-.95 30.87-.85 35.64-.12 8 1.22 8.06 10.6.59 12.56l-37.2-.4c-6.3-2.18-5.21-10.65.97-12.03Z" fill="#00aeef"/>
        <path d="M242.43 12.95c16.5-2.57 33.95 5.2 35.99 23.12.61 5.33-1.78 11.72 3.92 14.82l46.34.13c1.56-.17 4.31 2.07 4.83 3.32.8 1.92.92 28.02.47 31.41-.33 2.48-1.45 3.4-3.51 4.64l-161.23.25c-.99-.3-3.2-2-3.61-2.91-.81-1.8-.84-27.87-.44-31.39s1.69-4.88 5.3-5.3c14.62-1.7 31.96 1.65 46.87-.41 5.12-3.23 2.82-9.09 3.49-14.45 1.35-10.79 10.62-21.54 21.59-23.24Zm4.89 20.37c-14.41 2.52-6.78 25.39 7.3 17.9 9.97-5.31 4.03-19.88-7.3-17.9" fill="none"/>
        <path d="M431.78 232.04c0 46.45-37.66 84.11-84.11 84.11s-84.11-37.66-84.11-84.11 37.66-84.11 84.11-84.11 84.11 37.66 84.11 84.11m-11.88.23c0-39.94-32.38-72.33-72.33-72.33s-72.33 32.38-72.33 72.33 32.38 72.33 72.33 72.33 72.33-32.38 72.33-72.33" fill="none"/>
        <path d="M441.01 348.32c-6.11-5.97-12.19-11.98-18.2-18.06l20.77-20.77 66.41 66.44c10.48 13.73-4.69 29.59-19 21.45-16.55-16.47-33.29-32.75-49.98-49.06" fill="none"/>
        <path fill="none" d="m418.43 298.15 10.87 9.29-8.69 7.62-10.03-9.26z"/>
        <path d="M89.39 309.47v59.09c5.81 42.08 19.55 85.64 25.03 127.41 6.08 46.33-56.64 25.87-83.25 30.26-12.13-2.18-19.34-12.72-19.24-24.76l18.87-95.71 50.67-.28c6.6-1.93 2.74-12.06-1.46-12.06H33.14c1.04-8.95 4.22-18.4 4.88-27.32 1.36-18.31-.99-38.17.01-56.64h51.35ZM61.45 433.61c-2.42-2.43-19.24-2.49-22.83-1.69-4.91 1.1-6.39 7.56-3.07 10.88 2.63 2.63 16.24.79 20.6 1.83 6.05.24 9.51-6.81 5.31-11.02Zm-30.17 37.43c-4.7 1.37-5.33 9.96.2 11.69 2.41.75 13.95.75 16.71.32 6.53-1.02 7.15-9.98 1.31-11.81-2.08-.65-16.2-.79-18.22-.2" fill="none"/>
        <path fill="none" d="M104.07 283.39v13.86h-80.7v-13.86z"/>
        <path d="M513.28 33.95c.36 10.51.85 20.88.85 31.42 0 3.43-1.66 5.36.43 9.28.31.59 2.97 3.32 3.2 3.32h38.72v26.9h-38.72c-1.42 0-4.48 3.91-4.48 5.3v37.9h-26.9v-39.54c0-.82-2.85-3.67-3.67-3.67h-38.72v-26.9h37.9c.96 0 4.48-3.52 4.48-4.48V33.94h26.9Z" fill="none"/>
        <path d="M247.32 33.32c11.33-1.98 17.27 12.6 7.3 17.9-14.08 7.49-21.71-15.39-7.3-17.9" fill="#00aeef"/>
        <path d="M419.9 232.27c0 39.94-32.38 72.33-72.33 72.33s-72.33-32.38-72.33-72.33 32.38-72.33 72.33-72.33 72.33 32.38 72.33 72.33M291.55 251.6c7.87 27.54 36.67 44.01 64.69 39.83 55.39-8.26 70.43-81.8 21.96-110.59-42.88-25.47-96.01 9.52-89.92 58.53h24.45L323.97 207c3.45-5.62 10.86-5.67 13.63.57l13.45 48.91c5.36-4.4 7.39-16.72 14.07-19.75 5.79-2.63 16.41.46 23-.61 5.79 1.5 6.11 10.08.47 11.84-4.53 1.42-15.56-1-18.45 1.11-3.08 2.26-9.17 17.79-13.03 22.03-4.83 5.3-11.91 3.99-14.79-2.21l-11.66-41.76-8.26 19.85c-.87 1.55-4.4 4.6-5.99 4.6h-24.86Z" fill="#00aeef"/>
        <path d="M61.45 433.61c4.2 4.22.74 11.26-5.31 11.02-4.36-1.04-17.97.8-20.6-1.83-3.32-3.32-1.84-9.78 3.07-10.88 3.59-.81 20.41-.74 22.83 1.69Z" fill="#00aeef"/>
        <path d="M31.28 471.04c2.02-.59 16.14-.45 18.22.2 5.84 1.83 5.22 10.79-1.31 11.81-2.76.43-14.3.44-16.71-.32-5.53-1.73-4.9-10.32-.2-11.69" fill="#00aeef"/>
        <path d="M291.55 251.6h24.86c1.6 0 5.13-3.05 5.99-4.6l8.26-19.85 11.66 41.76c2.88 6.2 9.96 7.51 14.79 2.21 3.86-4.23 9.94-19.77 13.03-22.03 2.89-2.12 13.92.3 18.45-1.11 5.64-1.77 5.32-10.34-.47-11.84-6.59 1.07-17.21-2.03-23 .61-6.68 3.04-8.71 15.35-14.07 19.75l-13.45-48.91c-2.76-6.24-10.17-6.19-13.63-.57l-11.24 32.37h-24.45c-6.09-49.01 47.03-84.01 89.92-58.53 48.47 28.79 33.43 102.33-21.96 110.59-28.02 4.18-56.82-12.29-64.69-39.83Z" fill="none"/>
    </g>
</svg>
