<?xml version="1.0" encoding="UTF-8"?>
<svg data-bbox="0 0 412.36 550" viewBox="0 0 412.36 550" xmlns="http://www.w3.org/2000/svg" data-type="color">
    <g>
        <path d="M345.18 380.49h-28.95c-.95 0-1.79-.61-2.09-1.5l-9.55-28.65c-.67-2.01-3.51-2.01-4.17 0l-9.55 28.65c-.3.9-1.14 1.5-2.09 1.5h-68.1c-.95 0-1.79-.61-2.09-1.5l-9.55-28.65c-.67-2.01-3.51-2.01-4.17 0l-9.55 28.65c-.3.9-1.14 1.5-2.09 1.5h-68.1c-.95 0-1.79-.61-2.09-1.5l-9.55-28.65c-.67-2.01-3.51-2.01-4.17 0l-9.55 28.65c-.3.9-1.14 1.5-2.09 1.5H68.73c-2.03 0-2.98 2.52-1.44 3.86l22.41 19.49c.65.57.91 1.46.66 2.29l-8.71 29.04c-.6 1.99 1.65 3.63 3.36 2.44l25.15-17.41c.75-.52 1.75-.52 2.5 0l25.15 17.41c1.71 1.18 3.96-.45 3.36-2.44l-8.71-29.04c-.25-.83.01-1.72.66-2.29l24.62-21.41c.83-.72 2.06-.72 2.89 0l24.62 21.41c.65.57.91 1.46.66 2.29l-8.71 29.04c-.6 1.99 1.65 3.63 3.36 2.44l25.15-17.41c.75-.52 1.75-.52 2.5 0l25.15 17.41c1.71 1.18 3.96-.45 3.36-2.44l-8.71-29.04c-.25-.83.01-1.72.66-2.29l24.62-21.41c.83-.72 2.06-.72 2.89 0l24.62 21.41c.65.57.91 1.46.66 2.29l-8.71 29.04c-.6 1.99 1.65 3.63 3.36 2.44l25.15-17.41c.75-.52 1.75-.52 2.5 0l25.15 17.41c1.71 1.18 3.96-.45 3.36-2.44l-8.71-29.04c-.25-.83.01-1.72.66-2.29l22.41-19.49c1.54-1.34.59-3.86-1.44-3.86Z" fill="#00aeef" data-color="1"/>
        <path d="M30.8 550h350.76c17.01 0 30.8-13.79 30.8-30.8V30.8c0-17.01-13.79-30.8-30.8-30.8H30.8C13.79 0 0 13.79 0 30.8v488.4C0 536.21 13.79 550 30.8 550m4.95-536.25h340.87c12.15 0 22 9.85 22 22v478.5c0 12.15-9.85 22-22 22H35.75c-12.15 0-22-9.85-22-22V35.75c0-12.15 9.85-22 22-22" fill="#00aeef" fill-rule="evenodd" data-color="1"/>
        <path d="M75.7 171.24h261.52c3.65 0 6.6 2.95 6.6 6.6v.28c0 3.65-2.95 6.6-6.6 6.6H75.7c-3.65 0-6.6-2.95-6.6-6.6v-.28c0-3.65 2.95-6.6 6.6-6.6" fill="#00aeef" fill-rule="evenodd" data-color="1"/>
        <path d="M75.7 117.82h261.52c3.65 0 6.6 2.95 6.6 6.6v.28c0 3.65-2.95 6.6-6.6 6.6H75.7c-3.65 0-6.6-2.95-6.6-6.6v-.28c0-3.65 2.95-6.6 6.6-6.6" fill="#00aeef" fill-rule="evenodd" data-color="1"/>
        <path d="M75.7 64.4h261.52c3.65 0 6.6 2.95 6.6 6.6v.28c0 3.65-2.95 6.6-6.6 6.6H75.7c-3.65 0-6.6-2.95-6.6-6.6V71c0-3.65 2.95-6.6 6.6-6.6" fill="#00aeef" fill-rule="evenodd" data-color="1"/>
        <path d="M75.7 225.74h123.88c3.65 0 6.6 2.95 6.6 6.6v.84c0 3.65-2.95 6.6-6.6 6.6H75.7c-3.65 0-6.6-2.95-6.6-6.6v-.84c0-3.65 2.95-6.6 6.6-6.6" fill="#00aeef" fill-rule="evenodd" data-color="1"/>
    </g>
</svg>
