<?xml version="1.0" encoding="UTF-8"?>
<svg data-bbox="0.014 0.002 563.503 549.993" viewBox="0 0 563.53 550" xmlns="http://www.w3.org/2000/svg" data-type="ugc">
    <g>
        <path d="M240.44 64.08c-1-.91-1.94-3.52-2.3-4.9-2.66-10.22-3.2-22.95-4.74-33.52l-42.4.04c-1.22 1.18-4.21 28.84-5.54 33.47-2.24 7.79-8.54 6.72-14.77 8.72-4.86 1.55-9.88 3.1-14.55 5.15-6 2.62-13.45 9.41-19.72 6.78l-29.17-24.6-32.12 31.54c-.37 2.13 22.25 26.08 23.37 31 .93 5.84-7.2 15.83-9.94 21.8-2.78 6.04-4.31 14.52-6.86 19.66-2.06 4.15-6.02 5.07-10.15 5.76-9.34 1.55-19.64 1.61-29.07 3.13l.07 44.62c1.11 1.31 28.01 3.56 33.51 7.02 5.22 3.29 4.11 8.28 7.03 11.15l59.01 36.46c1.76 1.84 4.28 3.74 5.1 6.27.69 2.13.26 6.92 1.03 7.46.89.62 13.05 4.96 14.87 5.43 10.27 2.68 22.3.81 32.78 2.83l1.58-.71c6.51-9.59 18.56-16.54 29.84-18.66 21.12-3.96 44.96-2.62 66.34-6.39 32.69-2.82 63.57 31.63 95.25 27.81 4.14-.5 19.58-6 22.07-8.81 1.43-1.61-.91-7.75 3.91-12.19 18.69-10.06 36.83-24.21 55.45-33.95 8.33-4.36 13.74-4.69 19.81 3.38 19.1 37.43 46.23 73.71 64.65 111.13 3.93 7.99 3.66 12.9-3.67 18.56-16.39 12.66-39.9 22.48-57.28 34.39-5.17 1.86-12.04-.16-14.28-5.37l-2.15.3-49.34 37.09-.4 1.19c17.1 23.76-7.15 51.91-33.63 43.15 1.27 21.57-20.03 34.24-39.4 26.51-1.96 25.73-31.1 35.1-49.25 17.43-.03 14.1-13.3 25.16-26.92 25.76-18.28.8-31.15-17.75-45.44-26.55-1.83-.01-8.53 11.1-10.97 13.31-14.85 13.46-39.07 3.65-40.18-16.31-15.58 3.99-29.32-6.17-31.79-21.66-17.06 3.23-32.95-9.9-31.09-27.59-21.16 2.32-35.54-19.59-25.9-38.4 1.59-3.1 10.75-14.03 10.76-15.78-6.02-8.76-14.81-15.01-22.37-22.33l-4.88 6.46c-3.43 3.8-8.73 4.19-13.46 2.79L4.62 369.24C1.46 366-.93 361.34.38 356.72l70.11-120.85c.23-2.19.16-5.03-2.02-6.25-8.93-3.78-36.69-1.83-38.14-14.14 1.18-15.82-1.52-33.74-.02-49.3.62-6.4 4.58-8.86 10.46-10 4.21-.81 29.18-2.33 30.39-3.33 1.93-6.85 4.43-13.72 7.55-20.11 1.1-2.25 6.89-11.1 6.98-12.05.06-.66-.01-1.26-.39-1.82L63.27 91.62c-2.11-3.84-1.33-7.6 1.19-11.03 4.81-6.54 28.98-30.54 35.59-35.63 4.32-3.32 8.2-3.79 12.85-.69l27.06 23.69c11.1-5.07 21.96-11.28 34.33-12.8 1.84-10.19 2.41-22 4.8-31.95 1.21-5.04 3.6-9.02 9.24-9.7 10.37-1.25 35.58-.96 46.27-.01 3.38.3 6.72 1.27 8.57 4.31 3.32 11.85 3.93 24.54 6.53 36.66 11.61 3.34 23.08 7.28 33.49 13.51 2 .2 25.83-24.44 30.69-25.9 1.29-.48 2.59-.66 3.97-.49 3.17.38 10.93 7.98 13.73 10.57 2.2 2.03 12.29 11.72 12.9 13.62 1.33 4.12-.95 8.19-5.42 8.34-5.26.18-17.99-16.04-22.65-19.65-7.92 6.82-15.98 15.75-24.27 21.94-10.04 7.5-10.18 3.37-19.54-.87-3.8-1.72-7.77-3.56-11.69-4.98-4.33-1.56-18.14-4.41-20.42-6.49ZM79.99 242.83 10.85 359.98l57.01 33.65L137 276.48zm399.12 1.8-56.97 33.65 67.75 114.7 56.97-33.65zm-189.81 31.3c-20.47 1.09-41.63 4.44-62.14 6.05-7.84 2.08-15.17 6.77-20.16 13.18-4.35 5.59-24.42 36.91-25.93 42.26-4.62 16.35 10.69 14.77 21.24 10.63 10.48-4.11 18.57-12.01 26.16-20.06 3.58-3.8 5.38-9.2 11.53-10.45 6.8-1.38 33.73-.87 41.53-.2 4.18.36 7.61 1.67 10.89 4.26l126.33 106.3 53.74-40.08-55.73-94.39c-10.02 4.51-20.21 9.7-31.46 10.27-21.02 1.06-44.27-14.4-63.5-22.09-13.16-5.27-17.93-6.48-32.49-5.71Zm-99.86 24.78c-1.23-.97-21.41-1.21-25.19-1.72-4.17-.57-21.2-8.56-23.21-7.29l-53.75 91.97 24.49 23.85c13.19-15.24 37.36-8.33 42.06 10.62 4.96-2.51 9-5.63 14.88-5.99 13.14-.79 28.24 11.21 26.78 24.93 17.46-3.99 34.15 11.96 29.55 29.55 14.95 1.11 25.31 14.09 23.29 28.98-.94 6.95-5.08 12.26-8.09 18.31 12.71 8.18 30.9 32.83 47.63 21.24 7.63-5.28 8.95-17.4 1.97-23.84l-30.73-26.09c-3.61-5.81 2.11-12.09 7.97-7.97 15.38 12.28 29.91 25.84 45.48 37.86 5.69 4.39 8.76 7.64 16.65 6.84 8.71-.89 15.01-10.06 13.94-18.5-.64-5.07-4.38-8.53-7.87-11.83-15.71-14.87-35.64-27.57-51.94-42.01-5.06-6.4 2.74-13.78 9.05-8.3l66.8 54.42c12.97 6.45 25.6-4.25 23.37-18.06-1.06-6.54-11.97-14.3-17.02-18.59-17.76-15.09-36.51-29.1-54.19-44.31-2.35-2.41-2.61-4.83-.72-7.61 3.82-5.62 7.9-1.57 11.71 1.17 24.46 17.59 47.03 40.85 71.38 58.94 16.45 10.14 34.53-5.59 25.13-22.86-38.82-33.26-77.37-67.3-116.96-99.74-6.2-5.08-16.39-15.27-24.2-15.96-10.99-.98-23.57.66-34.73.19-8.48 9.73-17.03 19.64-28.34 26.21-11.97 6.96-30.51 12.7-41.55.93-15.2-16.2 8.52-40.94 16.32-55.33ZM126.35 411.5c-1.03.21-3.65 1.59-4.59 2.23-3.28 2.25-19.06 24.12-19.87 27.86-2.86 13.3 12.24 24.65 22.8 14.47 2.77-2.67 17.24-22.46 18.33-25.61 3.86-11.13-4.76-21.38-16.68-18.95Zm40.92 12.88c-3.49.65-6.58 3.75-8.86 6.28-5.23 5.8-23.54 29.46-26.45 35.68-6.98 14.95 9.87 28.16 21.16 18.13 4.62-4.11 24.65-31.46 28.31-37.61 7.03-11.8-.38-25.03-14.16-22.49Zm34.12 23.51c-3.41.1-6.89 2-9.32 4.32-4.86 9.34-28.86 33.36-29.91 42.06-1.49 12.3 11.03 20.14 20.86 13.29 3.59-2.51 26.97-33.4 29.3-38.13 4.64-9.37.43-21.88-10.92-21.53Zm21.17 31.03c-2.11.49-5.07 3.85-6.57 5.54-3.57 4.03-20.46 25.92-21.83 29.69-4.5 12.31 9.53 22.47 19.55 14.25 3.24-2.66 20.35-25.66 21.97-29.55 4.14-9.86-1.38-22.64-13.12-19.93" fill="#00aeef"/>
        <path d="M441.77.15c34.96-1.82 70.5 13.25 92.56 40.34 1.41 0 16.4-18.29 20.26-19.51 7.03-2.23 12.35 6.87 6.27 12.09-27.56 27.96-54.97 56.07-82.49 84.07-9.31 9.47-22.09 25.62-32.28 33.18-3.45 2.56-6.8 3.17-10.38.4l-43.94-44.73c-6.87-8 .92-16.88 9.94-9.94 12.91 9.93 24.5 28.39 37.7 38.53.62.48.98 1.35 1.98 1.16l83-86.12C480.14-3.15 395.34 2.98 361.13 63.69c-31.45 55.8-2.6 128.49 59.44 145.26 73.47 19.86 139.11-44.12 123.73-117.93-1.28-6.13-8.29-19.58-1.58-23.06 11.12-5.77 15 20.67 15.95 27.74 12.55 92.89-82.1 160.84-165.36 116.47C295.12 159.84 327.59 6.08 441.77.15" fill="#00aeef"/>
        <path d="M130.91 262.3c-9.03 8.24-16.07-13.71-18.02-19.38-28.47-83.03 43.4-164.48 129.32-142.88 67.54 16.98 102.91 97.07 67.87 158.25-2.12 3.7-4.68 6.91-9.39 5.18-8.99-3.3 1.35-17.54 3.58-23.53 30.76-82.58-54.36-159.64-132.86-120.03-44.51 22.46-62.85 75.53-45.16 121.76 2.1 5.48 9.86 15.9 4.67 20.64Z" fill="#00aeef"/>
        <path d="M189.44 300.71c-7.8 14.39-31.52 39.13-16.32 55.33 11.04 11.77 29.58 6.03 41.55-.93 11.31-6.58 19.86-16.48 28.34-26.21 11.16.47 23.73-1.17 34.73-.19 7.8.69 18 10.88 24.2 15.96 39.59 32.44 78.14 66.48 116.96 99.74 9.39 17.27-8.68 33.01-25.13 22.86-24.34-18.09-46.92-41.35-71.38-58.94-3.81-2.74-7.89-6.79-11.71-1.17-1.89 2.78-1.63 5.21.72 7.61 17.68 15.21 36.43 29.21 54.19 44.31 5.04 4.29 15.96 12.05 17.02 18.59 2.24 13.82-10.39 24.52-23.37 18.06l-66.8-54.42c-6.31-5.49-14.11 1.9-9.05 8.3 16.29 14.44 36.23 27.14 51.94 42.01 3.48 3.3 7.22 6.76 7.87 11.83 1.07 8.43-5.24 17.61-13.94 18.5-7.9.81-10.97-2.45-16.65-6.84-15.57-12.02-30.1-25.58-45.48-37.86-5.86-4.12-11.59 2.16-7.97 7.97l30.73 26.09c6.98 6.44 5.66 18.56-1.97 23.84-16.74 11.59-34.92-13.06-47.63-21.24 3.01-6.04 7.15-11.35 8.09-18.31 2.02-14.89-8.34-27.87-23.29-28.98 4.6-17.58-12.1-33.54-29.55-29.55 1.46-13.72-13.64-25.72-26.78-24.93-5.88.36-9.92 3.48-14.88 5.99-4.7-18.95-28.87-25.86-42.06-10.62l-24.49-23.85 53.75-91.97c2.01-1.27 19.04 6.73 23.21 7.29 3.77.51 23.96.75 25.19 1.72Z" fill="none"/>
        <path d="M289.3 275.93c14.56-.77 19.33.44 32.49 5.71 19.23 7.7 42.48 23.16 63.5 22.09 11.26-.57 21.45-5.76 31.46-10.27l55.73 94.39-53.74 40.08-126.33-106.3c-3.28-2.59-6.71-3.9-10.89-4.26-7.8-.67-34.73-1.18-41.53.2-6.14 1.25-7.95 6.65-11.53 10.45-7.59 8.04-15.68 15.95-26.16 20.06-10.55 4.14-25.86 5.72-21.24-10.63 1.51-5.35 21.58-36.67 25.93-42.26 4.99-6.41 12.32-11.1 20.16-13.18 20.51-1.61 41.67-4.96 62.14-6.05Z" fill="none"/>
        <path fill="none" d="m479.116 244.645 67.749 114.695-56.973 33.653-67.75-114.695z"/>
        <path d="M79.99 242.83 137 276.48 67.86 393.63l-57.01-33.65zM52.1 345.58c-16.03 3.26-2.98 31.65 10.43 18.76 8.6-8.27.8-21.05-10.43-18.76" fill="none"/>
        <path d="M167.27 424.38c13.77-2.55 21.18 10.69 14.16 22.49-3.66 6.14-23.69 33.5-28.31 37.61-11.29 10.03-28.14-3.18-21.16-18.13 2.91-6.22 21.22-29.88 26.45-35.68 2.28-2.53 5.37-5.64 8.86-6.28Z" fill="none"/>
        <path d="M201.39 447.89c11.35-.34 15.56 12.16 10.92 21.53-2.34 4.72-25.71 35.62-29.3 38.13-9.82 6.86-22.34-.98-20.86-13.29 1.05-8.69 25.05-32.72 29.91-42.06 2.43-2.32 5.92-4.22 9.32-4.32Z" fill="none"/>
        <path d="M126.35 411.5c11.92-2.43 20.53 7.82 16.68 18.95-1.09 3.16-15.57 22.95-18.33 25.61-10.56 10.18-25.66-1.17-22.8-14.47.81-3.74 16.59-25.61 19.87-27.86.94-.64 3.56-2.02 4.59-2.23Z" fill="none"/>
        <path d="M222.56 478.92c11.75-2.71 17.26 10.07 13.12 19.93-1.63 3.88-18.73 26.89-21.97 29.55-10.02 8.22-24.05-1.94-19.55-14.25 1.37-3.76 18.27-25.66 21.83-29.69 1.5-1.69 4.47-5.06 6.57-5.54" fill="none"/>
    </g>
</svg>
