<?xml version="1.0" encoding="UTF-8"?>
<svg data-bbox="28.3 41.1 535.4 407.3" viewBox="0 0 591 507.1" xmlns="http://www.w3.org/2000/svg" data-type="ugc">
    <g>
        <path d="M398.8 199c-.2-4.7 1.6-9.3 4.9-12.8 3.8-2.7 7.9-4.9 12.2-6.6 32.5-14.5 69.8-14.3 102.1.6 3.5 1.3 6.8 3.2 9.7 5.4 3.4 3.6 5.4 8.3 5.5 13.3v61c4.2 3.1 8.3 6.5 12.2 10.1v-71.1c0-8.2-3.2-16.1-9.1-21.9-4-3.3-8.4-6-13.3-7.9-35.4-16.5-76.3-16.8-111.9-.8-5.4 2.1-10.5 4.9-15.1 8.4-6.2 5.7-9.6 13.8-9.4 22.2v7.3c4.1.6 8.2 1.3 12.2 2v-9.4Z" stroke-width="6.1" fill="#86ba23" stroke="#86ba23"/>
        <path d="M466.1 150.4c23.5 0 42.6-19 42.6-42.5s-19.1-42.5-42.6-42.5-42.6 19-42.6 42.5c-.1 23.3 18.7 42.4 42.1 42.5zm0-72.9c16.8 0 30.4 13.6 30.4 30.4s-13.6 30.4-30.4 30.4-30.4-13.6-30.4-30.4 13.6-30.4 30.4-30.4Z" stroke-width="6.1" fill="#86ba23" stroke="#86ba23"/>
        <path d="M58.8 199c0-2.6.6-5.2 1.6-7.7 1.4-3.4 3.9-6.2 7.1-8 2.5-1.4 5.1-2.7 7.8-3.7 32.5-14.5 69.8-14.3 102.1.6 3.5 1.3 6.8 3.2 9.7 5.4 3.4 3.6 5.4 8.3 5.5 13.3v9.5c4-.7 8.1-1.4 12.2-2V199c-.1-8.2-3.4-16-9.1-21.9-4-3.3-8.4-6-13.3-7.9-35.4-16.5-76.3-16.8-111.9-.8-5.2 2.1-10.2 4.8-14.8 8.1l-1 .9c-5.5 5.8-8.4 13.6-8.2 21.6v71.1c3.9-3.6 7.9-6.9 12.2-10.1v-61Z" stroke-width="6.1" fill="#86ba23" stroke="#86ba23"/>
        <path d="M296 126.1c23.5 0 42.6-19 42.6-42.5S319.5 41.1 296 41.1s-42.6 19-42.6 42.5c-.1 23.3 18.7 42.4 42.1 42.5zm0-72.9c16.8 0 30.4 13.6 30.4 30.4S312.8 114 296 114s-30.4-13.6-30.4-30.4 13.6-30.4 30.4-30.4Z" stroke-width="6.1" fill="#86ba23" stroke="#86ba23"/>
        <path d="M125.7 150.4c23.5 0 42.6-19 42.6-42.5s-19.1-42.5-42.6-42.5-42.6 19-42.6 42.5c-.1 23.3 18.7 42.4 42.1 42.5zm0-72.9c16.8 0 30.4 13.6 30.4 30.4s-13.6 30.4-30.4 30.4-30.4-13.6-30.4-30.4 13.6-30.4 30.4-30.4Z" stroke-width="6.1" fill="#86ba23" stroke="#86ba23"/>
        <path d="M228.5 174.7c-.2-4.7 1.6-9.3 4.9-12.8 3.8-2.7 7.9-4.9 12.2-6.6 32.5-14.5 69.8-14.3 102.1.6 3.5 1.3 6.8 3.2 9.7 5.4 3.4 3.6 5.4 8.3 5.5 13.3v28.5c4.1.5 8.2.9 12.2 1.5v-30c-.1-8.2-3.3-16-9.1-21.9-4-3.3-8.4-6-13.3-7.9-35.4-16.5-76.3-16.8-111.9-.8-5.4 2.1-10.5 4.9-15.1 8.4-6.2 5.7-9.6 13.8-9.4 22.2v30c4-.5 8.1-1 12.2-1.5v-28.5Z" stroke-width="6.1" fill="#86ba23" stroke="#86ba23"/>
        <path d="M296 211.6c-150.1 0-267.7 52-267.7 118.4S145.9 448.4 296 448.4s267.7-52 267.7-118.4S446.1 211.6 296 211.6Zm0 224.7c-138.5 0-255.5-48.7-255.5-106.3s117-106.3 255.5-106.3S551.5 272.4 551.5 330 434.5 436.3 296 436.3Z" stroke-width="6.1" fill="#86ba23" stroke="#86ba23"/>
        <path d="m412.6 308.8-13.3-40.1-13.3 40.1h-78.1l-13.3-40.1-13.3 40.1h-78.1l-13.3-40.1-13.3 40.1h-39.9l30.6 26.8-12 40.1 34.6-24.1 34.6 24.1-12-40.1 29.7-26 29.7 26-12 40.1 34.6-24.1 34.6 24.1-12-40.1 29.7-26 29.7 26-12 40.1 34.6-24.1 34.6 24.1-12-40.1 30.6-26.8h-39.9Zm-208.1 24.4 7.6 25.5-22.4-15.6-22.4 15.6 7.6-25.5-20.1-17.6h26.5l8.4-25.2 8.4 25.2h26.5zm104.8 0 7.6 25.5-22.4-15.6-22.4 15.6 7.6-25.5-20.1-17.6h26.5l8.4-25.2 8.4 25.2h26.5zm112.4 25.5-22.4-15.6-22.4 15.6 7.6-25.5-20.1-17.6h26.5l8.4-25.2 8.4 25.2h26.5l-20.1 17.6z" fill="#86ba23" stroke="#86ba23" fill-rule="evenodd" stroke-miterlimit="8" stroke-width="3.4"/>
    </g>
</svg>
