<?xml version="1.0" encoding="UTF-8"?>
<svg data-bbox="7.9 9.8 129.8 129.9" viewBox="0 0 146.8 146.9" xmlns="http://www.w3.org/2000/svg" data-type="ugc">
    <g>
        <path d="M72.8 13.3c34 0 61.5 27.5 61.5 61.5s-27.5 61.5-61.5 61.5-61.5-27.6-61.5-61.5c0-34 27.5-61.5 61.5-61.5m0-3.5C37 9.8 7.9 38.9 7.9 74.8s29.1 64.9 64.9 64.9 64.9-29.1 64.9-64.9-29-64.9-64.9-64.9Z" fill="#86ba23" stroke="#86ba23" stroke-width="2.7"/>
        <path d="M83.1 37.2v27.3h27.3V85H83.1v27.3H62.6V85H35.3V64.5h27.3V37.2zm-24-3.4v27.3H31.8v27.3h27.3v27.3h27.3V88.4h27.3V61.1H86.4V33.8z" fill="#86ba23" stroke="#86ba23" stroke-width="2.7"/>
    </g>
</svg>
