<?xml version="1.0" encoding="UTF-8"?>
<svg data-bbox="5.2 7.5 374 544" viewBox="0 0 385.3 560" xmlns="http://www.w3.org/2000/svg" data-type="color">
    <g>
        <path d="M268.7 534.5h-153c-4.7 0-8.5 3.8-8.5 8.5s3.8 8.5 8.5 8.5h153c4.7 0 8.5-3.8 8.5-8.5s-3.8-8.5-8.5-8.5" fill="#ffffff" data-color="1"/>
        <path fill="#ffffff" d="M124.2 182.1v29l24.3-18.2z" data-color="1"/>
        <path fill="#ffffff" d="m124.2 163.5 68 30.2 68-30.2V152h-136z" data-color="1"/>
        <path d="M195.6 210.8c-2.2 1-4.7 1-6.9 0l-22.4-10-42.2 31.6v4.6h136v-4.6l-42.2-31.6-22.4 10Z" fill="#ffffff" data-color="1"/>
        <path fill="#ffffff" d="M260.2 211.1v-29l-24.4 10.8z" data-color="1"/>
        <path d="M311.2 194.5c0-65.6-53.4-119-119-119s-119 53.4-119 119 53.4 119 119 119 119-53.4 119-119m-204 51v-102c0-4.7 3.8-8.5 8.5-8.5h153c4.7 0 8.5 3.8 8.5 8.5v102c0 4.7-3.8 8.5-8.5 8.5h-153c-4.7 0-8.5-3.8-8.5-8.5" fill="#ffffff" data-color="1"/>
        <path d="M192.2 517.5c2.3 0 4.5-1 6.1-2.6 7.4-7.7 180.9-191 180.9-320.4s-83.9-187-187-187-187 83.9-187 187 173.5 312.7 180.9 320.4c1.6 1.7 3.8 2.6 6.1 2.6m-136-323c0-75 61-136 136-136s136 61 136 136-61 136-136 136-136-61-136-136" fill="#ffffff" data-color="1"/>
    </g>
</svg>
