<?xml version="1.0" encoding="UTF-8"?>
<svg data-bbox="39.9 0.03 1000.3 567.37" viewBox="0 0 1080 792.2" xmlns="http://www.w3.org/2000/svg" data-type="color">
    <g>
        <path d="M528.4 23.7v81.1h23.3V23.6c54.2 1.3 107.7 11.8 158.3 31.2l-29.4 68.6 21.4 9.2 29.6-69c35.5 15.6 68.9 35.5 99.5 59.2l18-15.4C632.4-63.5 318.2-26.4 147.3 190.3c-69.6 88.3-107.5 197.5-107.4 310v46.5h23.3v-46.5c0-58.1 10.6-115.7 31.4-170l68.6 29.4 9.2-21.4-69-29.6c22.3-50.7 53.3-97.1 91.5-137.2l57.7 57.7 16.4-16.4-57.7-57.7c40.1-38.2 86.5-69.2 137.2-91.5l29.6 69 21.4-9.2-29.4-68.7c50.6-19.3 104.2-29.9 158.3-31.1" fill="#1a8441" data-color="1"/>
        <path d="m937.6 197.3-15.3 18.2c21.6 28.9 39.8 60.2 54.3 93.2l-69 29.6 9.2 21.4 68.8-29.5c20.8 54.3 31.4 111.9 31.3 170v46.5h23.3v-46.5c0-109.5-36-216-102.6-302.9" fill="#1a8441" data-color="1"/>
        <path d="M932 113.2c-4.3-4.3-11.1-4.5-15.7-.6L502.8 465.5c-2.2 1.5-4.2 3.3-5.8 5.5-.4.5-.8 1-2.1 2.3-19.8 24.5-16.6 60.3 7.2 80.9 10.2 8.5 23.1 13.2 36.3 13.2s33.1-7.5 44.2-20.3L932.7 129c3.9-4.6 3.5-11.5-.8-15.7m-367 418.6c-12 14.2-33.2 16.3-47.7 4.7-14.1-12-16.3-33-5.1-47.7 1.1-1.1 2-2.2 2.8-3.2l.6-.7c.5-.3 1-.7 1.5-1.1l307.7-262.6h.2v.2L564.9 532Z" fill="#1a8441" data-color="1"/>
    </g>
</svg>
