<?xml version="1.0" encoding="UTF-8"?>
<svg data-bbox="4 3 2214.2 2171.19" overflow="hidden" xmlns="http://www.w3.org/2000/svg" height="2177" width="2223" data-type="color">
    <g>
        <path fill-rule="evenodd" fill="#FFFFFF" d="M556.35 729.94h43.23c86.45-91.47 172.9-173.31 297.78-259.97V339.99C772.48 258.15 642.8 214.82 517.92 128.17c-86.45 86.65-216.13 173.31-302.59 298.48 86.46 129.98 129.69 211.82 216.14 303.29zM301.79 941.76c0-43.33 0-43.33 43.23-86.65-81.66-81.84-172.91-173.31-216.14-255.15C47.23 729.94 4 898.43 4 1066.93c0 216.64 43.23 428.46 168.11 553.63 43.22-168.5 91.25-380.32 172.91-553.63 0 0-43.23-81.84-43.23-125.17M1108.7 171.5c43.22 0 129.68 43.32 172.91 86.65 124.87-86.65 254.56-86.65 384.24-129.98C1492.94 41.51 1324.83 3 1108.7 3 983.82 3 854.14 3 729.26 41.51c81.65 43.33 168.1 129.99 254.56 173.31 43.23 0 81.65-43.32 124.88-43.32m341.01 1112.07 86.46-86.66c-86.46-211.82-211.34-385.13-341.02-558.44h-86.45c-43.23 0-81.65 0-124.88-38.51-86.46 81.84-172.91 129.98-254.56 211.82 43.22 43.33 43.22 86.65 43.22 129.98v86.66c211.34 125.16 422.67 211.82 677.23 255.15m297.79 293.66v385.13c172.91-129.98 341.02-341.8 384.24-553.63-81.65 43.33-168.1 43.33-254.56 43.33 0 86.66-43.23 125.17-129.68 125.17m-341.02-125.17c-254.56-43.33-509.12-168.49-720.45-298.48-43.23 0-86.45 43.33-129.68 43.33-38.43 0-38.43 0-38.43-43.33-134.48 211.83-172.9 423.65-216.13 678.8 129.68 86.66 254.56 216.64 384.24 259.96 168.11-259.96 422.67-515.11 720.45-640.28m427.47-1193.91c-168.1 43.33-341.01 81.84-509.12 125.17l38.43 43.33c0 43.32-38.43 43.32-38.43 86.65 168.11 168.5 254.56 385.13 341.02 640.28 81.65 0 168.1 43.33 211.33 129.99 129.68 0 211.34 0 297.79-43.33 43.23-43.33 43.23-129.98 43.23-173.31 0-293.66-168.11-596.96-384.25-808.78m-297.78 1319.08c-297.79 129.98-509.12 298.48-682.03 558.44 86.45 38.52 172.91 38.52 254.56 38.52 172.91 0 297.78-38.52 470.69-81.85 0-129.98 43.23-259.96 43.23-341.8 0-43.33 0-86.66-43.23-129.98 0-43.33-43.22-43.33-43.22-43.33" data-color="1"/>
    </g>
</svg>
