<?xml version="1.0" encoding="UTF-8"?>
<svg data-bbox="13.4 25.7 1053.3 630" viewBox="0 0 1080 724" xmlns="http://www.w3.org/2000/svg" data-type="ugc">
    <g>
        <path d="M872.4 495.6V83.4H207.6v412.4zM230.5 106.3h619v366.4l-619 .2z" fill="#ffffff" fill-rule="evenodd"/>
        <path d="M173.9 71.6c0-12.7 10.3-22.9 22.9-23h687.4c12.7 0 22.9 10.3 22.9 23v470.5H930V71.6c0-25.3-20.5-45.9-45.8-45.9H196.9c-25.3 0-45.8 20.6-45.8 45.9v470.5H174V71.6z" stroke-miterlimit="8" fill="#ffffff" fill-rule="evenodd" stroke="#1a8441" stroke-width="9.2"/>
        <path d="M597.2 575.8v22.8H482.7v-22.8H13.4v22.8c0 31.5 25.6 57.1 57.2 57.1h938.8c31.6 0 57.2-25.6 57.3-57.1v-22.8zm412.2 57.1H70.6c-19 0-34.3-15.4-34.4-34.3h423.6c-.4 12.2 9.1 22.4 21.4 22.8h116c12.2.4 22.5-9.1 22.9-21.3v-1.5h423.6c0 18.9-15.4 34.2-34.4 34.3" fill-rule="evenodd" fill="#1a8441"/>
        <path d="M665 259.5c0-9.4-7.6-17-17-17h-51.2v-51.2c0-9.4-7.6-17-17-17h-68.2c-9.4 0-17 7.6-17 17v51.2h-51.2c-9.4 0-17 7.6-17 17v68.2c0 9.4 7.6 17 17 17h51.2v51.2c0 9.4 7.6 17 17 17h68.2c9.4 0 17-7.6 17-17v-51.2H648c9.4 0 17-7.6 17-17z" fill="#ffffff" fill-rule="evenodd" stroke="#1a8441" stroke-width="9.2" stroke-linecap="round" stroke-linejoin="round"/>
    </g>
</svg>
