<?xml version="1.0" encoding="UTF-8"?>
<svg data-bbox="9.2 8.2 579.6 579.6" viewBox="0 0 598 597" xmlns="http://www.w3.org/2000/svg" data-type="color">
    <g>
        <path d="M340.9 538.2c49.6-61 104.5-138 109.8-224.9h91.5c-6.9 113.6-91.5 205.9-201.3 224.9m-285.1-225h91.5c6.1 86.9 60.2 163.9 109.8 224.9C147.3 519 62.7 426.8 55.8 313.2M257.1 57.8c-49.6 61-104.5 138-109.8 224.9H55.8c6.9-113.6 91.5-205.9 201.3-224.9m57.1 255.4h106c-6.1 78.5-57.2 149.4-106 209.7zm-30.4 0v209.7c-48.8-60.2-99.9-131.1-106-209.7zm30.4-240.1c48.8 60.2 99.9 130.4 106 209.7h-106zm-30.4 209.7h-106c6.1-78.5 57.2-149.5 106-209.7zm258.4 0h-91.5c-5.3-86.9-60.2-163.9-109.8-224.9C450.7 77 535.3 169.2 542.2 282.8M299 8.2C138.9 8.2 9.2 137.9 9.2 298S138.8 587.8 299 587.8 588.8 458.2 588.8 298 459.1 8.2 299 8.2" fill="#ffffff" data-color="1"/>
    </g>
</svg>
