<?xml version="1.0" encoding="UTF-8"?>
<svg data-bbox="5.395 43.76 134.151 58.548" overflow="hidden" xmlns="http://www.w3.org/2000/svg" height="146" width="144" data-type="ugc">
    <g>
        <path transform="matrix(1 0 0 1.00699 1 1)" fill="#86BA23" stroke-width="2.667" stroke="#86BA23" d="M55.115 57.514h35.75a4.469 4.469 0 1 1 0 8.938H64.052a1.49 1.49 0 1 0 0 2.979h26.813a7.448 7.448 0 0 0 0-14.896h-35.75c-2.687.022-5.322.74-7.648 2.086L5.312 76.879a1.49 1.49 0 1 0 1.291 2.681l42.255-20.306a12.53 12.53 0 0 1 6.257-1.74Z"/>
        <path transform="matrix(1 0 0 1.00699 1 1)" fill="#86BA23" stroke-width="2.667" stroke="#86BA23" d="M131.083 42.465a6.9 6.9 0 0 0-3.873 1.092l-25.471 14.598a1.49 1.49 0 1 0 1.48 2.586l25.569-14.653a4 4 0 0 1 2.295-.644c2.468 0 4.469 2 4.469 4.469a5.17 5.17 0 0 1-1.573 3.489L93.133 83.268a4.55 4.55 0 0 1-2.71.914h-27.86c-15.236 0-27.62 4.66-36.805 13.853a1.49 1.49 0 1 0 2.106 2.107c8.607-8.61 20.282-12.975 34.698-12.975h27.856a7.54 7.54 0 0 0 4.455-1.479l40.977-29.95.174-.15a8.08 8.08 0 0 0 2.522-5.672 7.46 7.46 0 0 0-7.463-7.451Z"/>
    </g>
</svg>
