<?xml version="1.0" encoding="UTF-8"?>
<svg data-bbox="60.882 61.404 475.894 426.313" overflow="hidden" xmlns="http://www.w3.org/2000/svg" height="715" width="587" data-type="ugc">
    <g>
        <defs>
            <clipPath id="392b8c2b-c455-4cee-8fa1-ddf96fb41b84">
                <path d="m3861.44 1447.39 486.05 97.65-97.65 486.05-486.05-97.64Z"/>
            </clipPath>
            <clipPath id="7e63d67c-1e84-419d-877e-03f76c718b06">
                <path clip-rule="evenodd" fill-rule="evenodd" d="m3861.44 1447.39 486.05 97.65-97.65 486.05-486.05-97.64Z"/>
            </clipPath>
            <clipPath id="8e971714-ed54-40bb-83b7-7873fb7b9064">
                <path clip-rule="evenodd" fill-rule="evenodd" d="m3861.44 1447.39 486.05 97.65-97.65 486.05-486.05-97.64Z"/>
            </clipPath>
            <clipPath id="c570be7c-9881-4baf-91de-3e3106f392e2">
                <path d="m3919.92 1384.85 300.37-64.05 64.04 300.37-300.36 64.05Z"/>
            </clipPath>
            <clipPath id="efe1b6bf-b8d4-44bb-9634-698a55437a4c">
                <path clip-rule="evenodd" fill-rule="evenodd" d="m3919.92 1384.85 300.37-64.05 64.04 300.37-300.36 64.05Z"/>
            </clipPath>
            <clipPath id="72666f82-f1d9-492f-a0cf-07c85c0c0cc5">
                <path clip-rule="evenodd" fill-rule="evenodd" d="m3919.92 1384.85 300.37-64.05 64.04 300.37-300.36 64.05Z"/>
            </clipPath>
        </defs>
        <g clip-path="url(#392b8c2b-c455-4cee-8fa1-ddf96fb41b84)" transform="translate(-3762 -1320)">
            <g clip-path="url(#7e63d67c-1e84-419d-877e-03f76c718b06)">
                <g clip-path="url(#8e971714-ed54-40bb-83b7-7873fb7b9064)">
                    <path fill="#86BA23" stroke-width="9.181" stroke="#86BA23" d="m4009.5 1680.52 121.51 24.41c8.39 1.68 13.82 9.85 12.14 18.24-1.69 8.39-9.85 13.82-18.24 12.14l-91.14-18.31c-2.79-.56-5.52 1.25-6.08 4.04a5.16 5.16 0 0 0 4.05 6.08l91.13 18.31c13.98 2.81 27.59-6.24 30.4-20.23 2.81-13.98-6.25-27.59-20.23-30.4l-121.51-24.41a53.8 53.8 0 0 0-27.42 1.87l-157.12 40.07a5.167 5.167 0 0 0-4 6.11 5.16 5.16 0 0 0 6.11 4c.15-.03.3-.07.45-.11l157.49-40.17a43.4 43.4 0 0 1 22.46-1.64Z"/>
                    <path fill="#86BA23" stroke-width="9.181" stroke="#86BA23" d="M4277.99 1681.24c-4.64-1.04-9.48-.67-13.91 1.07l-96.55 32.22c-2.7.9-4.17 3.83-3.26 6.53a5.16 5.16 0 0 0 6.53 3.27l96.91-32.34a13.83 13.83 0 0 1 8.24-.62c8.39 1.68 13.83 9.85 12.14 18.24-1.1 4.45-3.87 8.3-7.73 10.78l-159.22 73.62a15.75 15.75 0 0 1-9.84 1.26l-94.7-19.02c-51.78-10.41-97.06-3.03-134.56 21.95a5.17 5.17 0 0 0-1.56 7.14 5.16 5.16 0 0 0 7.13 1.56c.06-.03.11-.07.15-.1 35.14-23.39 77.8-30.25 126.8-20.41l94.68 19.02c5.46 1.08 11.12.38 16.16-1.98l159.73-73.82.69-.39a28.03 28.03 0 0 0 12.45-17.56c2.79-14-6.28-27.62-20.28-30.42Z"/>
                </g>
            </g>
        </g>
        <g clip-path="url(#c570be7c-9881-4baf-91de-3e3106f392e2)" transform="translate(-3762 -1320)">
            <g clip-path="url(#efe1b6bf-b8d4-44bb-9634-698a55437a4c)">
                <g clip-path="url(#72666f82-f1d9-492f-a0cf-07c85c0c0cc5)">
                    <path fill="#86BA23" stroke-width="9.202" stroke="#86BA23" d="M4078.11 1390.37c62.21-13.26 123.39 26.41 136.65 88.62 13.27 62.21-26.41 123.39-88.62 136.66-62.2 13.26-123.39-26.42-136.65-88.62-13.19-62.2 26.46-123.33 88.62-136.66m-1.34-6.26c-65.66 14-107.54 78.59-93.54 144.25s78.58 107.55 144.25 93.54c65.66-14 107.54-78.58 93.54-144.24-13.96-65.64-78.5-107.54-144.14-93.57a.4.4 0 0 1-.11.02Z"/>
                    <path fill="#86BA23" stroke-width="9.202" stroke="#86BA23" d="M4082.11 1409.14c51.84-11.05 102.83 22.01 113.88 73.85 11.06 51.84-22.01 102.83-73.85 113.88-51.84 11.06-102.82-22.01-113.88-73.85-10.99-51.83 22.05-102.77 73.85-113.88m-1.33-6.25c-55.3 11.79-90.57 66.17-78.78 121.47 11.79 55.29 66.18 90.56 121.48 78.77 55.29-11.79 90.56-66.17 78.77-121.47-11.85-55.26-66.19-90.5-121.47-78.77Z"/>
                    <path fill="#86BA23" stroke-width="9.202" stroke="#86BA23" d="m4120.73 1515.62-47.95 32.69 10.38-56.54 47.84-33.17Zm-43.39-27.61-13.62 74.22 62.83-42.84 13.49-74.84Z"/>
                    <path fill="#86BA23" stroke-width="9.202" stroke="#86BA23" d="M4108.38 1501.67a6.4 6.4 0 0 1-4.92 7.6 6.4 6.4 0 0 1-7.59-4.93c-.74-3.45 1.47-6.85 4.92-7.59a6.39 6.39 0 0 1 7.59 4.92Z"/>
                </g>
            </g>
        </g>
    </g>
</svg>
