<?xml version="1.0" encoding="UTF-8"?>
<svg data-bbox="10.999 7.999 187.374 187.743" overflow="hidden" xmlns="http://www.w3.org/2000/svg" height="206" width="206" data-type="ugc">
    <g>
        <path fill="none" stroke-miterlimit="10" stroke-linejoin="round" stroke-linecap="round" stroke-width="14.323" stroke="#FFFFFF" d="M198.368 148.56v28.27c.043 10.4-8.359 18.87-18.765 18.91-.592.01-1.183-.02-1.773-.07a186.5 186.5 0 0 1-81.303-28.92A183.8 183.8 0 0 1 40 110.22a186.46 186.46 0 0 1-28.923-81.68c-.936-10.36 6.707-19.53 17.07-20.46.558-.05 1.118-.08 1.678-.08h28.264c9.457-.09 17.518 6.84 18.842 16.21a121 121 0 0 0 6.595 26.47 18.85 18.85 0 0 1-4.24 19.88L67.321 82.52a150.7 150.7 0 0 0 56.527 56.53l11.964-11.97a18.86 18.86 0 0 1 19.879-4.24 120.8 120.8 0 0 0 26.473 6.6c9.474 1.33 16.441 9.56 16.204 19.12"/>
    </g>
</svg>
