<?xml version="1.0" encoding="UTF-8"?>
<svg data-bbox="3 8.5 922 551.5" overflow="hidden" xmlns="http://www.w3.org/2000/svg" height="563" width="926" data-type="ugc">
    <g>
        <path fill-rule="evenodd" fill="#FFFFFF" d="M754.96 419.82 755 59H173v361ZM193.07 79.05h541.86l-.04 320.73-541.82.16Z"/>
        <path fill-rule="evenodd" fill="#FFFFFF" stroke-miterlimit="8" stroke-width="9.167" stroke="#1A8441" d="M143.56 48.67c.01-11.09 8.98-20.07 20.06-20.09h601.76c11.08.02 20.05 9 20.06 20.09V460.5h20.06V48.67c-.02-22.18-17.97-40.15-40.12-40.17H163.62c-22.15.02-40.1 17.99-40.12 40.17V460.5h20.06Z"/>
        <path fill-rule="evenodd" fill="#1A8441" d="M514.11 490v20H413.89v-20H3v19.99c.03 27.6 22.44 49.98 50.11 50.01h821.77c27.67-.03 50.09-22.4 50.12-50.01V490Zm360.77 50H53.11c-16.6-.02-30.05-13.44-30.07-30h370.81c-.37 10.68 8 19.63 18.7 20 .45.01.89.01 1.34 0h100.22c10.7.37 19.67-7.99 20.04-18.67.02-.44.02-.88 0-1.33h370.81c-.03 16.56-13.48 29.98-30.08 30"/>
        <path fill-rule="evenodd" fill="#FFFFFF" stroke-miterlimit="10" stroke-linejoin="round" stroke-linecap="round" stroke-width="9.167" stroke="#1A8441" d="M573.45 213.12c0-8.24-6.68-14.92-14.92-14.92h-44.78v-44.78c0-8.24-6.68-14.92-14.92-14.92h-59.71c-8.24 0-14.92 6.68-14.92 14.92v44.78h-44.79c-8.24.01-14.91 6.69-14.91 14.92v59.71c0 8.24 6.68 14.92 14.92 14.92h44.78v44.78c0 8.24 6.68 14.92 14.92 14.92h59.71c8.24 0 14.92-6.68 14.92-14.92v-44.78h44.78c8.24 0 14.92-6.68 14.92-14.92Z"/>
    </g>
</svg>
