<?xml version="1.0" encoding="UTF-8"?>
<svg data-bbox="1 4 592.001 703" overflow="hidden" xmlns="http://www.w3.org/2000/svg" height="710" width="596" data-type="color">
    <g>
        <path fill-rule="evenodd" fill="#1A8441" d="M262.69 21.42c134.78-.13 244.15 109.11 244.28 244.01.01 3.24-.06 6.49-.18 9.73l-.01.31v9.32l2.31 4.03 60.04 104.54.23.4.26.39a25.32 25.32 0 0 1 4.4 24.48 17.54 17.54 0 0 1-12.74 9.61h-54.5v69.68a89.1 89.1 0 0 1-24.49 61.73c-16.07 16.25-37.96 25.4-60.79 25.39h-60.04v104.54H121.28V478.05l-6.75-5.23C53.6 425.71 18.13 352.85 18.6 275.79v-.31l-.01-.32C13.35 140.37 118.29 26.84 252.97 21.6c3.24-.12 6.48-.19 9.72-.18m0-17.42C118.29 3.87 1.13 120.92 1 265.44c0 3.45.06 6.9.2 10.35C.86 358.21 38.8 436.1 103.88 486.6V707h274.98V602.46h42.64c27.44-.05 53.73-11.02 73.09-30.49 19.09-19.9 29.7-46.45 29.58-74.04v-52.27h38.29c22.62-2.61 42.64-28.75 21.75-60.98l-60.04-104.54v-4.35C529.76 131.38 417.31 9.78 273.03 4.2c-3.45-.14-6.9-.2-10.34-.2" data-color="1"/>
        <path fill-rule="evenodd" fill="#1A8441" d="M349.7 240.75c0-6.38-5.17-11.55-11.55-11.55H303.5v-34.65c0-6.38-5.17-11.55-11.55-11.55h-46.2c-6.38 0-11.55 5.17-11.55 11.55v34.65h-34.67c-6.37.01-11.53 5.18-11.53 11.55v46.2c0 6.38 5.17 11.55 11.55 11.55h34.65v34.65c0 6.38 5.17 11.55 11.55 11.55h46.2c6.38 0 11.55-5.17 11.55-11.55V298.5h34.65c6.38 0 11.55-5.17 11.55-11.55Z" data-color="1"/>
    </g>
</svg>
