<?xml version="1.0" encoding="UTF-8"?>
<svg data-bbox="18.08 17.08 129.84 129.84" overflow="hidden" xmlns="http://www.w3.org/2000/svg" height="164" width="165" data-type="ugc">
    <g>
        <path fill="#86BA23" stroke-width="2.683" stroke="#86BA23" d="M83 20.5c33.97 0 61.5 27.53 61.5 61.5s-27.53 61.5-61.5 61.5S21.5 115.97 21.5 82c.04-33.95 27.55-61.46 61.5-61.5m0-3.42c-35.85 0-64.92 29.07-64.92 64.92S47.15 146.92 83 146.92s64.92-29.07 64.92-64.92c.01-35.84-29.03-64.9-64.86-64.92z"/>
        <path fill="#86BA23" stroke-width="2.683" stroke="#86BA23" d="M93.25 44.42v27.33h27.33v20.5H93.25v27.33h-20.5V92.25H45.42v-20.5h27.33V44.42ZM69.33 41v27.33H42v27.34h27.33V123h27.34V95.67H124V68.33H96.67V41Z"/>
    </g>
</svg>
