<?xml version="1.0" encoding="UTF-8"?>
<svg data-bbox="8.084 35.048 155.833 118.108" overflow="hidden" xmlns="http://www.w3.org/2000/svg" height="169" width="171" data-type="ugc">
    <g>
        <path transform="matrix(1.00592 0 0 1 1 0)" fill="#86BA23" stroke-width="1.76" stroke="#86BA23" d="M114.251 80.826a5.05 5.05 0 0 1 1.408-3.697 16.6 16.6 0 0 1 3.535-1.913 35.8 35.8 0 0 1 29.551.176c1.007.39 1.955.92 2.816 1.573a5.73 5.73 0 0 1 1.595 3.861v17.682a44 44 0 0 1 3.521 2.915V80.826a8.8 8.8 0 0 0-2.628-6.352 14.3 14.3 0 0 0-3.836-2.288 38.78 38.78 0 0 0-32.392-.22 19.2 19.2 0 0 0-4.378 2.422 8.48 8.48 0 0 0-2.713 6.438v2.121q1.784.277 3.521.59Z"/>
        <path transform="matrix(1.00592 0 0 1 1 0)" fill="#86BA23" stroke-width="1.76" stroke="#86BA23" d="M133.711 66.74c6.805 0 12.323-5.518 12.323-12.324 0-6.805-5.518-12.323-12.323-12.323s-12.323 5.517-12.323 12.323c-.041 6.765 5.41 12.282 12.174 12.323zm0-21.126a8.815 8.815 0 0 1 8.802 8.802 8.802 8.802 0 1 1-8.802-8.802Z"/>
        <path transform="matrix(1.00592 0 0 1 1 0)" fill="#86BA23" stroke-width="1.76" stroke="#86BA23" d="M15.844 80.826c.01-.765.17-1.52.47-2.223a4.75 4.75 0 0 1 2.054-2.306q1.086-.617 2.245-1.083a35.8 35.8 0 0 1 29.55.176c1.008.39 1.956.92 2.817 1.574a5.74 5.74 0 0 1 1.593 3.862v2.741q1.74-.314 3.52-.593v-2.148a9.3 9.3 0 0 0-2.626-6.35 13.6 13.6 0 0 0-3.84-2.288 38.78 38.78 0 0 0-32.39-.22 19.4 19.4 0 0 0-4.273 2.344l-.279.261a8.82 8.82 0 0 0-2.362 6.253v20.597a44 44 0 0 1 3.52-2.914Z"/>
        <path transform="matrix(1.00592 0 0 1 1 0)" fill="#86BA23" stroke-width="1.76" stroke="#86BA23" d="M84.5 59.694c6.806 0 12.323-5.517 12.323-12.323S91.306 35.048 84.5 35.048s-12.323 5.517-12.323 12.323c-.04 6.765 5.41 12.282 12.175 12.323zm0-21.125a8.813 8.813 0 0 1 8.802 8.802A8.802 8.802 0 1 1 84.5 38.57Z"/>
        <path transform="matrix(1.00592 0 0 1 1 0)" fill="#86BA23" stroke-width="1.76" stroke="#86BA23" d="M35.208 66.74c6.806 0 12.323-5.518 12.323-12.324 0-6.805-5.517-12.323-12.323-12.323-6.805 0-12.323 5.517-12.323 12.323-.04 6.765 5.41 12.282 12.175 12.323zm0-21.126a8.814 8.814 0 0 1 8.802 8.802 8.802 8.802 0 1 1-8.802-8.802Z"/>
        <path transform="matrix(1.00592 0 0 1 1 0)" fill="#86BA23" stroke-width="1.76" stroke="#86BA23" d="M64.96 73.783a5.05 5.05 0 0 1 1.408-3.697 16.5 16.5 0 0 1 3.535-1.914 35.8 35.8 0 0 1 29.552.176c1.008.39 1.956.919 2.816 1.572a5.74 5.74 0 0 1 1.594 3.863v8.252q1.778.198 3.52.43v-8.682a9.3 9.3 0 0 0-2.623-6.359 13.5 13.5 0 0 0-3.837-2.289 38.77 38.77 0 0 0-32.392-.22 19.3 19.3 0 0 0-4.382 2.423 8.48 8.48 0 0 0-2.712 6.445v8.705q1.744-.234 3.52-.435Z"/>
        <path transform="matrix(1.00592 0 0 1 1 0)" fill="#86BA23" stroke-width="1.76" stroke="#86BA23" d="M84.5 84.5c-43.435 0-77.458 15.078-77.458 34.328s34.023 34.328 77.458 34.328 77.458-15.078 77.458-34.328S127.935 84.5 84.5 84.5Zm0 65.135c-40.08 0-73.937-14.108-73.937-30.807S44.42 88.021 84.5 88.021s73.938 14.108 73.938 30.807-33.859 30.807-73.938 30.807Z"/>
    </g>
</svg>
