<?xml version="1.0" encoding="UTF-8"?>
<svg data-bbox="21.417 25.614 99.935 101.411" overflow="hidden" xmlns="http://www.w3.org/2000/svg" height="140" width="141" data-type="ugc">
    <g>
        <path transform="matrix(1.00719 0 0 1 1 1)" fill="#86BA23" stroke-width="2.667" stroke="#86BA23" d="M75.292 92.667H28.234l15.803-38.2a1.44 1.44 0 0 1 1.336-.894h69.101a1.45 1.45 0 0 1 1.332 2.013l-5.647 13.35 2.667 1.129 5.647-13.352a4.344 4.344 0 0 0-3.999-6.036h-69.1a4.33 4.33 0 0 0-4.014 2.683L23.89 95.563h51.402Z"/>
        <path transform="matrix(1.00719 0 0 1 1 1)" fill="#86BA23" stroke-width="2.667" stroke="#86BA23" d="M113.737 77.388c-7.612-7.648-19.981-7.677-27.63-.066-7.275 7.242-7.706 18.879-.985 26.638l-2.424 2.424a5.07 5.07 0 0 0-5.977.857l-10.08 10.081a5.068 5.068 0 1 0 7.166 7.167l10.082-10.08a5.07 5.07 0 0 0 .856-5.977l2.42-2.429c8.155 7.065 20.494 6.179 27.558-1.977 6.721-7.76 6.29-19.396-.986-26.638Zm-25.596 2.048a16.67 16.67 0 0 1 18.281-3.544l-7.456 16.775H83.343a16.63 16.63 0 0 1 4.799-13.231Zm-6.3 32.922-10.08 10.081a2.173 2.173 0 0 1-3.073-3.073l10.079-10.082a2.173 2.173 0 1 1 3.074 3.074Zm29.848-9.372c-6.48 6.503-17.004 6.521-23.507.041a16.6 16.6 0 0 1-4.32-7.465h16.984l8.14-18.311c7.71 4.997 9.909 15.297 4.912 23.007a16.7 16.7 0 0 1-2.209 2.727Z"/>
        <path transform="matrix(1.00719 0 0 1 1 1)" fill="#86BA23" stroke-width="2.667" stroke="#86BA23" d="M49.834 27.51c.275 0 .544.079.776.226l14.506 9.23c.696.445 1.505.68 2.33.68h36.804c.8 0 1.448.648 1.448 1.448v8.687h2.896v-8.687c0-2.4-1.945-4.344-4.344-4.344H67.447c-.275 0-.544-.078-.776-.226l-14.506-9.23a4.3 4.3 0 0 0-2.33-.68h-25.22a4.344 4.344 0 0 0-4.344 4.344v66.605h2.896V28.957c0-.8.648-1.448 1.448-1.448Z"/>
    </g>
</svg>
