<?xml version="1.0" encoding="UTF-8"?>
<svg data-bbox="17.375 21.271 109.671 98.458" overflow="hidden" xmlns="http://www.w3.org/2000/svg" height="140" width="140" data-type="ugc">
    <g>
        <path fill="#86BA23" stroke-width="2.686" stroke="#86BA23" d="m121.379 63.037-82.14-34.085-13.321 32.154L52.125 72.11l2.896 1.158v3.826c-.007 6.405-5.197 11.597-11.602 11.605H20.271V21.271h-2.896v98.458h2.896V91.596h23.148c8.003-.01 14.489-6.497 14.498-14.501V74.43l2.895 1.158L90.1 87.659l7.986-6.287 13.483 5.733 15.477-12.176-13.453-5.764ZM89.642 84.338 61.891 72.899l-8.642-3.456-23.552-9.892 11.11-26.813 74.899 31.081Zm31.782-8.669-10.296 8.101-10.443-4.438 10.32-8.124Z"/>
        <path fill="#86BA23" stroke-width="2.686" stroke="#86BA23" d="M56.469 53.139a5.792 5.792 0 1 0 5.791 5.792 5.81 5.81 0 0 0-5.791-5.792Zm0 8.688a2.895 2.895 0 1 1 2.896-2.896 2.897 2.897 0 0 1-2.893 2.899h-.003Z"/>
    </g>
</svg>
