<?xml version="1.0" encoding="UTF-8"?>
<svg data-bbox="2 4 186 175" overflow="hidden" xmlns="http://www.w3.org/2000/svg" height="183" width="188" data-type="color">
    <g>
        <path fill="#86BA23" d="M48 61v118H8V61z" data-color="1"/>
        <path fill-rule="evenodd" fill="#86BA23" d="m175.539 71.44-2.803-2.81-3.739-2.81-3.738-2.19-3.738-2.19-4.361-1.25-4.362-.94-4.672-.94-4.985-.31-3.738.31-3.427.32-3.426.62-3.115.94-2.804.94-2.804.93-2.492 1.88-2.181 1.25-3.738 3.44-3.115 2.81-2.181 2.82-2.18 3.44V60.81H69V179h38.94v-68.79l.311-2.5.312-2.5.311-1.87 1.869-2.82 1.558-2.5 2.181-2.5 2.18-2.19 2.804-1.88 3.115-1.25 2.804-.62 3.738-.31h2.492l2.181.31 2.18.62 1.87.63 2.18.94 1.246 1.56 1.869 1.25 1.246 1.56.935 1.88.935 1.88.623 2.5.934 2.19.935 5.31.311 5.94V179H188v-67.53l-.312-6.57-.623-5.94-.623-5.32-1.246-5.31-2.18-4.69-1.869-4.38-2.493-4.06z" data-color="1"/>
        <path fill-rule="evenodd" fill="#86BA23" d="m24 4-2.2.32-2.514.31-1.886.32-2.2.63-1.886.63-2.2.94-1.571 1.58-1.572 1.26L6.4 11.25l-.943 1.9-.943 1.57-1.257 1.58-.628 1.89-.315 1.89L2 22.29v4.42l.314 1.89.315 2.21.628 1.57.629 2.21 1.257 1.58L6.4 37.43l1.257 1.89 1.886 1.26 1.571.95L13 42.79l1.886.95 1.885.31 2.2.63 2.515.32h5.028l1.886-.32 2.514-.63 1.886-.31 2.2-.95 1.571-1.26 1.886-.95 1.572-1.26 1.257-1.89 1.571-1.26.943-1.58.943-2.21.628-1.57.315-2.21.314-1.89v-4.42l-.314-2.21-.629-1.89-.628-1.89-.629-1.58-.943-1.57-1.571-1.9-1.257-1.26-1.572-1.26-1.886-1.58L35 6.21l-2.2-.63-1.886-.63-2.2-.32-2.2-.31z" data-color="1"/>
    </g>
</svg>
