<?xml version="1.0" encoding="UTF-8"?>
<svg data-bbox="2.454 4.924 554.526 450.576" viewBox="0 0 560 460.1" xmlns="http://www.w3.org/2000/svg" data-type="color">
    <g>
        <path fill="#ffffff" d="M380.7 127.8 200.4 284.3l-50.8 144.1-16.3-203.2z" data-color="1"/>
        <path d="m556.3 16.9-182 433.3c-1.1 2.7-3.6 4.6-6.4 5.1-.5.1-1 .2-1.6.2-2.3 0-4.7-1-6.3-2.7L213.8 298.4l218.7-191.5c3.3-2.8 4.1-7.5 1.9-11.1s-6.7-5.2-10.7-3.6L125.1 209.8 5.2 97.9c-2.4-2.3-3.4-5.7-2.3-8.9 1-3.2 3.7-5.5 7-6L547.1 5c3-.4 6.2.8 8.1 3.3 1.9 2.4 2.3 5.7 1.1 8.6" fill="#ffffff" data-color="1"/>
        <path fill="#ffffff" d="m256 368.1-90.4 66.7 41.7-118z" data-color="1"/>
    </g>
</svg>
