<?xml version="1.0" encoding="UTF-8"?>
<svg data-bbox="92.9 35.4 1845.2 1876.2" viewBox="0 0 2000 2000" xmlns="http://www.w3.org/2000/svg" data-type="ugc">
    <g>
        <path fill="#00aeef" d="M668.8 664.9h619.1L959.6 35.4z"/>
        <path fill="#81bf41" d="m318.1 1424 1368.5 5.4-398.7-764.5H668.8z"/>
        <path fill="#1a8441" d="M92.9 1911.6h1845.2l-251.5-482.2-1368.5-5.4z"/>
        <path d="M848.1 401.1c0 3.2-1.4 5.8-4.1 7.9q-4.05 3-11.1 3c-7.05 0-5.1-.2-7.1-.7q-3-.75-5.7-1.8v-7.8h.9c1.7 1.4 3.7 2.5 5.9 3.2s4.2 1.1 6.2 1.1 1.2 0 2-.1 1.5-.2 2-.4c.6-.3 1.2-.6 1.6-1q.6-.6.6-1.8c0-1.2-.3-1.3-.9-1.9q-.9-.75-2.7-1.2c-1.2-.3-2.5-.6-3.9-.8-1.4-.3-2.7-.6-3.9-1-2.8-.9-4.7-2.1-5.9-3.6q-1.8-2.25-1.8-5.7c0-3.45 1.4-5.5 4.1-7.5s6.2-2.9 10.5-2.9 4.3.2 6.4.6 3.9.9 5.5 1.6v7.5h-.9c-1.3-1.1-2.9-1.9-4.8-2.6s-3.9-1.1-5.9-1.1-1.4 0-2.1.1c-.7 0-1.4.3-2 .5s-1.1.6-1.5 1-.6 1-.6 1.5c0 .9.3 1.5 1 2s1.9.9 3.7 1.3c1.2.2 2.4.5 3.5.7s2.3.6 3.6 1c2.5.8 4.4 1.9 5.5 3.4s1.8 3.2 1.8 5.5Z" fill="#ffffff"/>
        <path d="M878.1 411.4h-7.9v-2.7c-1.5 1.1-2.8 2-4 2.5-1.2.6-2.7.9-4.3.9q-4.05 0-6.3-2.4c-2.25-2.4-2.2-3.9-2.2-6.9v-16.1h7.9v12.2c0 1.2 0 2.3.1 3.1 0 .8.3 1.5.6 2.1.3.5.7.9 1.3 1.2s1.4.4 2.4.4 1.4-.1 2.2-.4 1.6-.6 2.4-1.1v-17.5h7.9v24.7Z" fill="#ffffff"/>
        <path d="M907 403.5c0 2.5-1.1 4.6-3.4 6.2s-5.4 2.3-9.4 2.3-4.2-.2-6-.6-3.2-.9-4.3-1.4v-6.5h.7c.4.3.9.6 1.4.9s1.3.7 2.2 1.1c.8.3 1.8.6 2.8.9 1 .2 2.2.4 3.3.4s2.7-.2 3.4-.5 1.1-.9 1.1-1.5-.2-1-.7-1.3c-.4-.3-1.3-.5-2.5-.8-.6-.1-1.4-.3-2.4-.4-1-.2-1.9-.3-2.7-.6-2.2-.6-3.9-1.5-5-2.7s-1.6-2.8-1.6-4.6 1.1-4.3 3.4-5.9c2.2-1.6 5.3-2.4 9.2-2.4s3.6.2 5.3.6 3 .8 4 1.2v6.2h-.7c-1.2-.8-2.5-1.5-4-2s-3-.8-4.6-.8-2.3.2-3.2.5c-.9.4-1.3.8-1.3 1.5s.2 1 .6 1.3 1.3.6 2.8.9c.8.2 1.7.3 2.6.5s1.9.3 2.8.6c2.1.5 3.6 1.4 4.6 2.6s1.5 2.6 1.5 4.4Z" fill="#ffffff"/>
        <path d="M928 411.1c-.8.2-1.8.4-2.7.5-1 .1-2.1.2-3.5.2-3.1 0-5.4-.6-6.9-1.9-1.5-1.2-2.3-3.4-2.3-6.4V392h-3.3v-5.4h3.3v-7.1h7.9v7.1h7.4v5.4h-7.4v11.1c0 .6.1 1.2.4 1.7.2.5.6.9 1.1 1.2s1.3.5 2.3.5.9 0 1.6-.3c.7-.2 1.1-.3 1.4-.5h.7z" fill="#ffffff"/>
        <path d="M947.7 408.7c-.4.3-1 .7-1.6 1.2s-1.2.8-1.8 1.1c-.8.4-1.6.6-2.4.8s-1.8.3-2.7.3c-2.3 0-4.3-.7-5.9-2.2s-2.4-3.3-2.4-5.6.4-3.3 1.2-4.4 1.9-2 3.4-2.7 3.3-1.1 5.4-1.4 4.4-.5 6.7-.6c0-1.5-.6-2.4-1.7-3s-2.8-.8-4.9-.8-2.7.2-4.2.7-2.5.8-3.2 1.1h-.7v-6c.8-.2 2.2-.5 4.1-.8s3.8-.5 5.7-.5c4.5 0 7.7.7 9.7 2.1s3 3.6 3 6.5v16.8h-7.8v-2.6Zm0-3.8v-5.1c-1.1 0-2.2.2-3.5.4-1.2.2-2.2.3-2.8.5-.8.2-1.4.6-1.8 1.1s-.6 1.1-.6 1.9 0 .9.1 1.2.3.6.7.9q.45.45 1.2.6c.75.15 1.2.2 2.2.2s1.6-.2 2.4-.5 1.5-.7 2.1-1.3Z" fill="#ffffff"/>
        <path d="M970.9 383.2h-8.4v-6h8.4zm-.2 28.2h-7.9v-24.7h7.9z" fill="#ffffff"/>
        <path d="M1003 411.4h-7.9v-12.2c0-1 0-2-.2-3-.1-1-.3-1.7-.5-2.2-.3-.5-.7-.9-1.3-1.2-.6-.2-1.4-.4-2.4-.4s-1.4.1-2.2.4-1.5.6-2.4 1.1v17.5h-7.9v-24.7h7.9v2.7c1.4-1.1 2.8-1.9 4-2.5 1.3-.6 2.7-.9 4.3-.9 2.7 0 4.7.8 6.2 2.3s2.2 3.9 2.2 7v16.1Z" fill="#ffffff"/>
        <path d="M1025.2 408.7c-.4.3-1 .7-1.6 1.2s-1.2.8-1.8 1.1c-.8.4-1.6.6-2.4.8s-1.8.3-2.7.3c-2.3 0-4.3-.7-5.9-2.2s-2.4-3.3-2.4-5.6.4-3.3 1.2-4.4 1.9-2 3.4-2.7 3.3-1.1 5.4-1.4 4.4-.5 6.7-.6c0-1.5-.6-2.4-1.7-3s-2.8-.8-4.9-.8-2.7.2-4.2.7-2.5.8-3.2 1.1h-.7v-6c.8-.2 2.2-.5 4.1-.8s3.8-.5 5.7-.5c4.5 0 7.7.7 9.7 2.1s3 3.6 3 6.5v16.8h-7.8v-2.6Zm0-3.8v-5.1c-1.1 0-2.2.2-3.5.4-1.2.2-2.2.3-2.8.5-.8.2-1.4.6-1.8 1.1s-.6 1.1-.6 1.9 0 .9.1 1.2.3.6.7.9q.45.45 1.2.6c.75.15 1.2.2 2.2.2s1.6-.2 2.4-.5 1.5-.7 2.1-1.3Z" fill="#ffffff"/>
        <path d="M1066 398.7c0 3.9-1.1 7-3.2 9.5s-4.8 3.7-8 3.7-2.6-.1-3.6-.4-2-.7-3-1.3l-.3 1.2h-7.6v-34.2h7.9v12.1c1.2-1 2.5-1.8 3.7-2.4 1.3-.6 2.7-.9 4.4-.9 3.1 0 5.5 1.1 7.2 3.4s2.5 5.4 2.5 9.3m-8.1.1c0-2.2-.4-3.9-1.1-5.1s-2.1-1.8-4-1.8-1.5.1-2.3.3-1.5.6-2.3 1v12.4c.6.2 1.1.3 1.6.4.5 0 1.1.1 1.8.1 2.1 0 3.6-.6 4.7-1.8 1-1.2 1.5-3.1 1.5-5.5Z" fill="#ffffff"/>
        <path d="M1079.7 411.4h-7.9v-34.2h7.9z" fill="#ffffff"/>
        <path d="M1111.4 400.5h-18.1c.1 1.9.9 3.4 2.2 4.4q2.1 1.5 6 1.5c3.9 0 3.3-.3 4.9-.9s2.8-1.2 3.7-1.9h.9v6.4c-1.8.7-3.5 1.2-5.1 1.6s-3.3.5-5.3.5c-5 0-8.7-1.1-11.4-3.3s-4-5.4-4-9.5 1.2-7.3 3.7-9.7 5.9-3.6 10.3-3.6 7 1 9.1 3c2 2 3 4.9 3 8.8v2.8Zm-7.8-4.7c0-1.7-.5-2.9-1.2-3.7s-2-1.3-3.6-1.3-2.8.4-3.8 1.2-1.5 2.1-1.6 3.8h10.3Z" fill="#ffffff"/>
        <path d="m1126.9 402.7-7.9 16.8h-4.9l4.3-16.8z" fill="#ffffff"/>
        <path d="M861.4 476.4h-7.9v-34.2h7.9z" fill="#ffffff"/>
        <path d="M893.1 465.5H875c.1 1.9.9 3.4 2.2 4.4s3.4 1.5 6 1.5 3.3-.3 4.9-.9 2.8-1.2 3.7-1.9h.9v6.4c-1.8.7-3.5 1.2-5.1 1.6s-3.3.5-5.3.5c-5 0-8.7-1.1-11.4-3.3s-4-5.4-4-9.5 1.2-7.3 3.7-9.7 5.9-3.6 10.3-3.6 7 1 9.1 3c2 2 3 4.9 3 8.8v2.8Zm-7.9-4.7c0-1.7-.5-2.9-1.2-3.7s-2-1.3-3.6-1.3-2.8.4-3.8 1.2-1.5 2.1-1.6 3.8h10.3Z" fill="#ffffff"/>
        <path d="m923.5 451.7-9.5 24.7h-9l-9.4-24.7h8.4l5.7 17 5.7-17h8.2Z" fill="#ffffff"/>
        <path d="M952.2 465.5h-18.1c.1 1.9.9 3.4 2.2 4.4s3.4 1.5 6 1.5 3.3-.3 4.9-.9 2.8-1.2 3.7-1.9h.9v6.4c-1.8.7-3.5 1.2-5.1 1.6s-3.3.5-5.3.5c-5 0-8.7-1.1-11.4-3.3s-4-5.4-4-9.5 1.2-7.3 3.7-9.7 5.9-3.6 10.3-3.6 7 1 9.1 3c2 2 3 4.9 3 8.8v2.8Zm-7.8-4.7c0-1.7-.5-2.9-1.2-3.7s-2-1.3-3.6-1.3-2.8.4-3.8 1.2-1.5 2.1-1.6 3.8h10.3Z" fill="#ffffff"/>
        <path d="M975.7 459.2h-.7c-.3-.1-.9-.2-1.6-.3h-1.9c-1.1 0-2.1 0-3 .2-.9.1-1.8.4-2.8.7v16.5h-7.9v-24.7h7.9v3.6c1.7-1.5 3.3-2.5 4.5-3 1.3-.5 2.5-.7 3.6-.7h1.8v7.5Z" fill="#ffffff"/>
        <path d="M995.1 473.7c-.4.3-1 .7-1.6 1.2s-1.2.8-1.8 1.1c-.8.4-1.6.6-2.4.8s-1.8.3-2.7.3c-2.3 0-4.3-.7-5.9-2.2s-2.4-3.3-2.4-5.6.4-3.3 1.2-4.4 1.9-2 3.4-2.7 3.3-1.1 5.4-1.4 4.4-.5 6.7-.6c0-1.5-.6-2.4-1.7-3s-2.8-.8-4.9-.8-2.7.2-4.2.7-2.5.8-3.2 1.1h-.7v-6c.8-.2 2.2-.5 4.1-.8s3.8-.5 5.7-.5c4.5 0 7.7.7 9.7 2.1s3 3.6 3 6.5v16.8H995v-2.6Zm0-3.8v-5.1c-1.1 0-2.2.2-3.5.4-1.2.2-2.2.3-2.8.5-.8.2-1.4.6-1.8 1.1s-.6 1.1-.6 1.9 0 .9.1 1.2.3.6.7.9q.45.45 1.2.6c.75.15 1.2.2 2.2.2s1.6-.2 2.4-.5 1.5-.7 2.1-1.3Z" fill="#ffffff"/>
        <path d="M1034.2 473.5c0 2.3-.3 4.3-1 5.8s-1.6 2.8-2.8 3.7-2.6 1.6-4.3 2q-2.55.6-5.7.6c-3.15 0-3.4-.1-5.1-.3s-3.1-.5-4.3-.7v-6.2h1c1 .4 2.1.7 3.5 1s2.6.5 3.7.5 2.7-.1 3.6-.4q1.35-.45 2.1-1.2c.5-.5.8-1.1 1-1.8s.3-1.6.3-2.6v-.5c-1 .8-2 1.4-3.2 1.8-1.2.5-2.4.7-3.9.7-3.5 0-6.1-1-8-3.1s-2.8-5.2-2.8-9.5.3-3.8.9-5.3q.9-2.25 2.4-3.9 1.5-1.5 3.6-2.4c1.4-.6 2.9-.9 4.3-.9s2.5.2 3.6.5 2.1.8 3 1.3l.3-1.1h7.7v21.8Zm-7.9-4.9v-11.2c-.5-.2-1-.3-1.7-.5-.7-.1-1.2-.2-1.8-.2-2.1 0-3.6.6-4.7 1.8-1 1.2-1.6 2.9-1.6 5s.4 4 1.3 5c.9.9 2.2 1.4 3.9 1.4s1.6-.1 2.3-.4c.8-.2 1.5-.6 2.1-1Z" fill="#ffffff"/>
        <path d="M1066 465.5h-18.1c.1 1.9.9 3.4 2.2 4.4q2.1 1.5 6 1.5c3.9 0 3.3-.3 4.9-.9s2.8-1.2 3.7-1.9h.9v6.4c-1.8.7-3.5 1.2-5.1 1.6s-3.3.5-5.3.5c-5 0-8.7-1.1-11.4-3.3s-4-5.4-4-9.5 1.2-7.3 3.7-9.7 5.9-3.6 10.3-3.6 7 1 9.1 3c2 2 3 4.9 3 8.8v2.8Zm-7.9-4.7c0-1.7-.5-2.9-1.2-3.7s-2-1.3-3.6-1.3-2.8.4-3.8 1.2-1.5 2.1-1.6 3.8h10.3Z" fill="#ffffff"/>
        <path d="M1095.6 476.4h-7.9v-2.6c-1.4 1.1-2.6 1.9-3.8 2.5-1.2.5-2.6.8-4.1.8-3 0-5.4-1.2-7.2-3.5s-2.7-5.4-2.7-9.4.3-4 .9-5.6 1.4-3 2.5-4.2c1-1.1 2.2-2 3.6-2.6s2.8-.9 4.3-.9 2.7.2 3.6.5 1.9.7 2.9 1.2v-10.5h7.9v34.2Zm-7.9-6.8v-12.1c-.6-.2-1.1-.4-1.8-.5-.6-.1-1.2-.2-1.7-.2-2.1 0-3.6.6-4.7 1.9-1 1.3-1.6 3.1-1.6 5.4s.4 4.2 1.2 5.3 2.2 1.6 4 1.6 1.5-.1 2.3-.4 1.5-.6 2.1-1.1Z" fill="#ffffff"/>
        <path d="M836.6 583c-2.6 1-6.1 2-10.4 3s-8.6 1.5-12.9 1.5c-9.9 0-17.6-2.7-23.2-8.1s-8.4-12.8-8.4-22.3 2.8-16.3 8.5-21.9c5.7-5.5 13.5-8.3 23.6-8.3s7.5.3 10.9 1c3.5.7 7.3 2.1 11.6 4.1v13.6h-1.7c-.7-.5-1.8-1.3-3.2-2.3s-2.8-1.9-4.1-2.6c-1.5-.8-3.3-1.5-5.3-2.1s-4.2-.9-6.4-.9-5.1.4-7.2 1.2c-2.2.8-4.1 2-5.8 3.6-1.6 1.6-2.9 3.5-3.9 6-1 2.4-1.4 5.2-1.4 8.3 0 6.4 1.7 11.4 5.1 14.8s8.5 5.1 15.1 5.1h1.9c.7 0 1.3 0 1.9-.1v-11.4h-11.6v-11h26.8v28.7Z" fill="#ffffff"/>
        <path d="M906 586.4h-18.3l-15.8-21.3H865v21.3h-14.9v-58.2h25.2c3.4 0 6.4.2 8.9.6s4.8 1.2 7 2.5 3.9 3 5.2 5.1 1.9 4.7 1.9 7.8-1 7.8-3 10.5-4.8 5-8.5 6.8l19.4 24.9ZM882.6 546c0-1.5-.3-2.7-.9-3.8-.6-1-1.6-1.9-3.1-2.5-1-.4-2.2-.7-3.6-.8-1.4 0-2.9-.1-4.7-.1h-5.4v15.7h4.6c2.4 0 4.4-.1 6-.4 1.6-.2 3-.8 4.1-1.6 1-.8 1.8-1.7 2.3-2.7s.7-2.3.7-3.9Z" fill="#ffffff"/>
        <path d="M969.2 557.3c0 9.3-2.7 16.6-8 22.1s-12.7 8.2-22 8.2-16.7-2.7-22-8.2-8-12.8-8-22.1 2.7-16.7 8-22.2 12.6-8.1 22-8.1 16.7 2.7 22 8.1 8 12.8 8 22.2M949.3 572c1.5-1.8 2.5-3.9 3.2-6.3s1.1-5.2 1.1-8.5-.4-6.5-1.2-8.9-1.9-4.4-3.2-5.9c-1.3-1.6-2.9-2.7-4.6-3.4s-3.5-1.1-5.4-1.1-3.7.3-5.4 1-3.2 1.8-4.6 3.4c-1.3 1.5-2.4 3.5-3.2 6-.8 2.6-1.2 5.5-1.2 8.9s.4 6.4 1.2 8.8 1.8 4.4 3.1 6c1.3 1.5 2.8 2.7 4.6 3.4 1.7.7 3.6 1.1 5.5 1.1s3.8-.4 5.5-1.1 3.3-1.9 4.6-3.5Z" fill="#ffffff"/>
        <path d="m1060.9 528.2-15.7 58.2h-16.6l-10.4-37.9-10.2 37.9h-16.6l-15.7-58.2h15.7l8.9 40 10.7-40h15l10.2 40 9.4-40z" fill="#ffffff"/>
        <path d="M1116.4 539.4h-18.2v46.9h-15v-46.9H1065v-11.2h51.3v11.2Z" fill="#ffffff"/>
        <path d="M1177.6 586.4h-15v-25.6h-22.1v25.6h-15v-58.2h15v21.3h22.1v-21.3h15z" fill="#ffffff"/>
        <path d="M828.7 765.8c0 2.7-.6 5.1-1.9 7.3-1.2 2.1-2.8 3.8-4.7 4.9-1.4.9-3 1.5-4.7 1.8s-3.7.5-6 .5h-10.3v-29.1h10.5c2.4 0 4.4.2 6.1.6s3.2 1 4.3 1.7c2 1.2 3.6 2.9 4.7 5 1.2 2.1 1.7 4.5 1.7 7.3Zm-7.7-.1c0-1.9-.3-3.6-1-4.9-.7-1.4-1.8-2.4-3.3-3.2-.8-.4-1.6-.6-2.4-.8s-2-.2-3.6-.2h-1.9v18.2h1.9c1.8 0 3.1 0 3.9-.2q1.2-.3 2.4-.9c1.4-.8 2.4-1.8 3-3.1s1-2.9 1-4.9" fill="#ffffff"/>
        <path d="M850.2 780.3h-17v-5.2h4.8v-18.8h-4.8v-5.2h17v5.2h-4.8v18.8h4.8z" fill="#ffffff"/>
        <path d="M877.1 756.8h-13.4v5.4h12.4v5.6h-12.4v12.4h-7.5v-29.1H877v5.6Z" fill="#ffffff"/>
        <path d="M903.1 756.8h-13.4v5.4h12.4v5.6h-12.4v12.4h-7.5v-29.1H903v5.6Z" fill="#ffffff"/>
        <path d="M929.4 780.3h-21v-29.1h21v5.6h-13.6v5h12.6v5.6h-12.6v7.2h13.6v5.6Z" fill="#ffffff"/>
        <path d="M963.6 780.3h-9.2l-7.9-10.7H943v10.7h-7.5v-29.1h12.6c1.7 0 3.2 0 4.4.3 1.2.2 2.4.6 3.5 1.3s2 1.5 2.6 2.5 1 2.3 1 3.9-.5 3.9-1.5 5.3-2.4 2.5-4.3 3.4l9.7 12.5Zm-11.7-20.2c0-.7-.1-1.4-.4-1.9q-.45-.75-1.5-1.2c-.5-.2-1.1-.3-1.8-.4h-5.1v7.8h2.3c1.2 0 2.2 0 3-.2.8-.1 1.5-.4 2-.8s.9-.8 1.1-1.3.4-1.1.4-2" fill="#ffffff"/>
        <path d="M988 780.3h-21v-29.1h21v5.6h-13.6v5H987v5.6h-12.6v7.2H988v5.6Z" fill="#ffffff"/>
        <path d="M1020.7 780.3h-7.2l-12.3-20v20h-6.9v-29.1h9l10.6 16.7v-16.7h6.9v29.1Z" fill="#ffffff"/>
        <path d="M1050.9 756.8h-9.1v23.5h-7.5v-23.5h-9.1v-5.6h25.7z" fill="#ffffff"/>
        <path d="M1071.1 780.3h-17v-5.2h4.8v-18.8h-4.8v-5.2h17v5.2h-4.8v18.8h4.8z" fill="#ffffff"/>
        <path d="M1104.1 780.3h-7.7l-2-5.9h-10.8l-2 5.9h-7.6l10.7-29.1h8.6l10.7 29.1Zm-11.6-11.2-3.6-10.4-3.6 10.4z" fill="#ffffff"/>
        <path d="M1131 756.8h-9.1v23.5h-7.5v-23.5h-9.1v-5.6h25.7z" fill="#ffffff"/>
        <path d="M1156.6 780.3h-21v-29.1h21v5.6H1143v5h12.6v5.6H1143v7.2h13.6v5.6Z" fill="#ffffff"/>
        <path d="M721.4 828.1c-.7.2-1.4.3-2.3.4-.8.1-1.5.2-2.2.2q-3.3 0-5.1-1.8c-1.2-1.2-1.7-3.1-1.7-5.8v-11.6h-2.5v-3.1h2.5v-6.3h3.7v6.3h7.6v3.1h-7.6v12.6c0 .6.2 1.2.5 1.8.3.5.7.9 1.2 1.1s1.3.4 2.3.4 1.2 0 1.9-.3c.7-.2 1.1-.3 1.4-.4h.2v3.3Z" fill="#ffffff"/>
        <path d="M744.1 828.3h-3.7v-12.4c0-1 0-1.9-.2-2.8s-.3-1.6-.6-2.1-.8-1-1.4-1.2c-.6-.3-1.4-.4-2.4-.4s-2.1.2-3.1.7c-1.1.5-2.1 1.1-3.1 1.9v16.3h-3.7v-30.4h3.7v11c1.1-1 2.3-1.7 3.6-2.2 1.2-.5 2.5-.8 3.8-.8q3.6 0 5.4 2.1c1.2 1.4 1.9 3.5 1.9 6.1v14.2Z" fill="#ffffff"/>
        <path d="M764.8 810.5h-.2c-.5-.1-1.1-.2-1.6-.3h-1.8c-1.1 0-2.2.3-3.3.8s-2.1 1.1-3 1.9v15.5h-3.7v-21.8h3.7v3.2c1.5-1.2 2.7-2 3.9-2.5s2.2-.7 3.4-.7h1.4c.3 0 .7 0 1.3.2v3.8Z" fill="#ffffff"/>
        <path d="M786.8 817.4q0 5.4-2.7 8.4c-1.8 2.1-4.3 3.1-7.3 3.1s-5.5-1-7.4-3.1q-2.7-3.15-2.7-8.4c0-5.25.9-6.4 2.7-8.4 1.8-2.1 4.3-3.1 7.4-3.1s5.5 1 7.3 3.1q2.7 3.15 2.7 8.4m-3.8 0c0-2.8-.6-4.9-1.7-6.3s-2.6-2.1-4.6-2.1-3.5.7-4.6 2.1-1.7 3.5-1.7 6.3.6 4.8 1.7 6.2 2.6 2.1 4.6 2.1 3.5-.7 4.6-2.1 1.7-3.5 1.7-6.2" fill="#ffffff"/>
        <path d="M810.6 828.3h-3.7v-2.4c-1.2 1-2.4 1.7-3.6 2.2s-2.4.8-3.8.8q-3.45 0-5.4-2.1c-1.3-1.4-1.9-3.5-1.9-6.2v-14.2h3.7v12.4c0 1.1 0 2.1.2 2.8.1.8.3 1.5.7 2 .4.6.8 1 1.4 1.2.6.3 1.4.4 2.4.4s2-.2 3.1-.7 2.2-1.1 3.2-1.9v-16.3h3.7v21.8Z" fill="#ffffff"/>
        <path d="M835.5 825.8c0 3.7-.8 6.4-2.5 8.1s-4.3 2.6-7.8 2.6-2.3 0-3.4-.2-2.2-.4-3.3-.7v-3.8h.2c.6.2 1.5.5 2.9.9 1.3.3 2.6.5 3.9.5s2.3-.1 3.1-.4 1.5-.7 1.9-1.2c.5-.5.8-1.1 1-1.8q.3-1.05.3-2.4v-2c-1.1.9-2.2 1.5-3.2 2-1 .4-2.3.7-3.9.7-2.6 0-4.7-.9-6.2-2.8s-2.3-4.5-2.3-8 .3-3.5.8-4.9 1.2-2.5 2.2-3.5c.8-.9 1.9-1.6 3.1-2.2 1.2-.5 2.4-.8 3.6-.8s2.3.1 3.2.4 1.8.6 2.7 1.2l.2-.9h3.4v19.3Zm-3.7-3.5v-11.9c-1-.4-1.9-.8-2.7-.9-.8-.2-1.7-.3-2.5-.3-2 0-3.6.7-4.8 2-1.2 1.4-1.7 3.3-1.7 5.9s.4 4.3 1.3 5.6 2.3 1.9 4.3 1.9 2.1-.2 3.2-.6 2.1-1 3-1.7Z" fill="#ffffff"/>
        <path d="M861 828.3h-3.7v-12.4c0-1 0-1.9-.2-2.8s-.3-1.6-.6-2.1-.8-1-1.4-1.2c-.6-.3-1.4-.4-2.4-.4s-2.1.2-3.1.7c-1.1.5-2.1 1.1-3.1 1.9v16.3h-3.7v-30.4h3.7v11c1.1-1 2.3-1.7 3.6-2.2 1.2-.5 2.5-.8 3.8-.8q3.6 0 5.4 2.1c1.2 1.4 1.9 3.5 1.9 6.1v14.2Z" fill="#ffffff"/>
        <path d="M909.3 813.8c0 2.7-.6 5.1-1.9 7.3-1.2 2.1-2.8 3.8-4.7 4.9-1.4.9-3 1.5-4.7 1.8s-3.7.5-6 .5h-10.3v-29.1h10.5c2.4 0 4.4.2 6.1.6s3.2 1 4.3 1.7c2 1.2 3.6 2.9 4.7 5 1.2 2.1 1.7 4.5 1.7 7.3Zm-7.8-.1c0-1.9-.3-3.6-1-4.9-.7-1.4-1.8-2.4-3.3-3.2-.8-.4-1.6-.6-2.4-.8s-2-.2-3.6-.2h-1.9v18.2h1.9c1.8 0 3.1 0 3.9-.2q1.2-.3 2.4-.9c1.4-.8 2.4-1.8 3-3.1s1-2.9 1-4.9" fill="#ffffff"/>
        <path d="M930.7 828.3h-17v-5.2h4.8v-18.8h-4.8v-5.2h17v5.2h-4.8v18.8h4.8z" fill="#ffffff"/>
        <path d="M962.6 826.6c-1.3.5-3 1-5.2 1.5s-4.3.8-6.4.8c-4.9 0-8.8-1.3-11.6-4q-4.2-4.05-4.2-11.1c0-7.05 1.4-8.2 4.2-10.9 2.8-2.8 6.8-4.2 11.8-4.2s3.7.2 5.5.5c1.7.3 3.7 1 5.8 2.1v6.8h-.8c-.4-.3-.9-.7-1.6-1.2s-1.4-.9-2-1.3c-.8-.4-1.6-.8-2.6-1.1s-2.1-.4-3.2-.4-2.5.2-3.6.6-2.1 1-2.9 1.8-1.5 1.8-1.9 3c-.5 1.2-.7 2.6-.7 4.2 0 3.2.9 5.7 2.6 7.4s4.2 2.6 7.6 2.6h1.8V818h-5.8v-5.5h13.4v14.4Z" fill="#ffffff"/>
        <path d="M985 828.3h-17v-5.2h4.8v-18.8H968v-5.2h17v5.2h-4.8v18.8h4.8z" fill="#ffffff"/>
        <path d="M1013.9 804.8h-9.1v23.5h-7.5v-23.5h-9.1v-5.6h25.7z" fill="#ffffff"/>
        <path d="M1045.3 828.3h-7.7l-2-5.9h-10.8l-2 5.9h-7.6l10.7-29.1h8.6l10.7 29.1Zm-11.6-11.2-3.6-10.4-3.6 10.4z" fill="#ffffff"/>
        <path d="M1070.4 828.3h-21v-29.1h7.5v23.5h13.5z" fill="#ffffff"/>
        <path d="M1110 810.5v1.9c0 1.2-.2 2.7-.5 4.2-.3 1.6-.9 3.1-1.7 4.5l7.4 7.2h-4.8l-4.5-4.4c-1.5 1.8-3 3.1-4.6 3.9s-3.2 1.1-4.8 1.1c-2.7 0-5-.8-6.7-2.4-1.8-1.6-2.7-3.7-2.7-6.2s.2-2.2.5-3.1.7-1.6 1.2-2.3c.5-.6 1-1.2 1.7-1.7s1.4-1 2.1-1.4c-1.4-.9-2.5-1.9-3.1-2.8-.6-1-.9-2.1-.9-3.6s.2-1.7.5-2.5.9-1.5 1.6-2.2c.7-.6 1.5-1.1 2.5-1.5s2.2-.6 3.5-.6c2.3 0 4.1.6 5.5 1.7s2.1 2.6 2.1 4.3 0 1.2-.2 1.9-.4 1.4-.8 1.9q-.6.9-1.8 1.8t-3 1.5l7.2 7.1c.2-.5.3-1.1.4-1.7 0-.6.1-1.3.2-2v-4.7h3.8Zm-5.8 11.6-9.3-9.1c-.4.2-.8.5-1.2.8s-.8.8-1.2 1.3q-.6.75-.9 1.8c-.2.7-.4 1.5-.4 2.4 0 1.9.6 3.4 1.7 4.6s2.7 1.7 4.7 1.7 2.4-.3 3.6-.9q1.8-.9 3-2.7Zm-3.8-17.1c0-1.2-.4-2.2-1.1-2.9s-1.7-1.1-2.8-1.1-2.2.4-2.9 1.2c-.8.8-1.1 1.8-1.1 2.9s.3 1.8.8 2.6 1.6 1.6 3.3 2.7c1.3-.5 2.2-1.1 2.9-2s1-2 1-3.4Z" fill="#ffffff"/>
        <path d="M1158.8 813.8c0 2.7-.6 5.1-1.9 7.3-1.2 2.1-2.8 3.8-4.7 4.9-1.4.9-3 1.5-4.7 1.8s-3.7.5-6 .5h-10.3v-29.1h10.5c2.4 0 4.4.2 6.1.6s3.2 1 4.3 1.7c2 1.2 3.6 2.9 4.7 5 1.2 2.1 1.7 4.5 1.7 7.3Zm-7.7-.1c0-1.9-.3-3.6-1-4.9-.7-1.4-1.8-2.4-3.3-3.2-.8-.4-1.6-.6-2.4-.8s-2-.2-3.6-.2h-1.9v18.2h1.9c1.8 0 3.1 0 3.9-.2q1.2-.3 2.4-.9c1.4-.8 2.4-1.8 3-3.1s1-2.9 1-4.9" fill="#ffffff"/>
        <path d="M1191.4 828.3h-7.7l-2-5.9h-10.8l-2 5.9h-7.6l10.7-29.1h8.6l10.7 29.1Zm-11.5-11.2-3.6-10.4-3.6 10.4z" fill="#ffffff"/>
        <path d="M1218.4 804.8h-9.1v23.5h-7.5v-23.5h-9.1v-5.6h25.7z" fill="#ffffff"/>
        <path d="M1249.8 828.3h-7.7l-2-5.9h-10.8l-2 5.9h-7.6l10.7-29.1h8.6l10.7 29.1Zm-11.6-11.2-3.6-10.4-3.6 10.4z" fill="#ffffff"/>
        <path d="M742.7 1008.9h-21v-29.1h21v5.6h-13.6v5h12.6v5.6h-12.6v7.2h13.6v5.6Z" fill="#ffffff"/>
        <path d="M775.4 1008.9h-8.7l-6.3-9.5-6.4 9.5h-8.3l10.3-14.7-10.1-14.4h8.7l6 9.1 6.2-9.1h8.3L765 993.9l10.3 15Z" fill="#ffffff"/>
        <path d="M803.6 989c0 1.3-.2 2.6-.7 3.8s-1.1 2.3-2 3.1c-1.2 1.1-2.5 2-3.9 2.6s-3.2.9-5.3.9H787v9.5h-7.5v-29.1h12.3c1.8 0 3.4.2 4.7.5s2.4.8 3.4 1.4c1.2.8 2.1 1.8 2.7 2.9.6 1.2.9 2.6.9 4.3Zm-7.8.1c0-.8-.2-1.5-.7-2.1-.4-.6-1-1-1.5-1.2-.8-.3-1.5-.5-2.3-.5H787v8.7h2.1c1.3 0 2.3 0 3.2-.2q1.2-.3 2.1-.9c.5-.4.8-.9 1-1.5q.3-.9.3-2.1Z" fill="#ffffff"/>
        <path d="M835.8 1008.9h-7.7l-2-5.9h-10.8l-2 5.9h-7.6l10.7-29.1h8.6l10.7 29.1Zm-11.6-11.2-3.6-10.4-3.6 10.4z" fill="#ffffff"/>
        <path d="M866.4 1008.9h-7.2l-12.3-20v20H840v-29.1h9l10.6 16.7v-16.7h6.9v29.1Z" fill="#ffffff"/>
        <path d="M901.3 994.4c0 2.7-.6 5.1-1.9 7.3-1.2 2.1-2.8 3.8-4.7 4.9-1.4.9-3 1.5-4.7 1.8s-3.7.5-6 .5h-10.3v-29.1h10.5c2.4 0 4.4.2 6.1.6s3.2 1 4.3 1.7c2 1.2 3.6 2.9 4.7 5 1.2 2.1 1.7 4.5 1.7 7.3Zm-7.8-.1c0-1.9-.3-3.6-1-4.9-.7-1.4-1.8-2.4-3.3-3.2-.8-.4-1.6-.6-2.4-.8s-2-.2-3.6-.2h-1.9v18.2h1.9c1.8 0 3.1 0 3.9-.2q1.2-.3 2.4-.9c1.4-.8 2.4-1.8 3-3.1s1-2.9 1-4.9" fill="#ffffff"/>
        <path d="M947.6 1008.9h-7.7l-2-5.9h-10.8l-2 5.9h-7.6l10.7-29.1h8.6l10.7 29.1ZM936 997.7l-3.6-10.4-3.6 10.4z" fill="#ffffff"/>
        <path d="M964.9 1009.4c-2.2 0-4.2-.3-6-1-1.8-.6-3.4-1.6-4.7-2.9s-2.3-2.8-3.1-4.7c-.7-1.9-1.1-4.1-1.1-6.5s.3-4.4 1-6.3q1.05-2.85 3-4.8c1.3-1.3 2.8-2.3 4.7-3s3.9-1.1 6.1-1.1 2.3 0 3.3.2c1 .1 1.9.3 2.7.5.9.2 1.7.5 2.4.8s1.3.6 1.9.8v7.1h-.9c-.4-.3-.8-.7-1.4-1.1s-1.2-.8-1.9-1.3c-.7-.4-1.5-.8-2.3-1-.8-.3-1.7-.4-2.7-.4s-2.1.2-3 .5c-1 .3-1.8.9-2.6 1.6s-1.4 1.7-1.9 2.9-.7 2.7-.7 4.4.3 3.3.8 4.6c.5 1.2 1.2 2.2 1.9 2.9q1.2 1.05 2.7 1.5c1 .3 1.9.5 2.9.5s1.8-.1 2.7-.4 1.7-.6 2.5-1.1l1.8-1.2c.5-.4 1-.8 1.3-1.1h.8v7l-2.1.9c-.7.3-1.4.5-2.1.7-1 .3-1.8.5-2.7.6-.8.1-2 .2-3.4.2Z" fill="#ffffff"/>
        <path d="M993.8 1009.4c-2.2 0-4.2-.3-6-1-1.8-.6-3.4-1.6-4.7-2.9s-2.3-2.8-3.1-4.7c-.7-1.9-1.1-4.1-1.1-6.5s.3-4.4 1-6.3q1.05-2.85 3-4.8c1.3-1.3 2.8-2.3 4.7-3s3.9-1.1 6.1-1.1 2.3 0 3.3.2c1 .1 1.9.3 2.7.5.9.2 1.7.5 2.4.8s1.3.6 1.9.8v7.1h-.9c-.4-.3-.8-.7-1.4-1.1s-1.2-.8-1.9-1.3c-.7-.4-1.5-.8-2.3-1-.8-.3-1.7-.4-2.7-.4s-2.1.2-3 .5c-1 .3-1.8.9-2.6 1.6s-1.4 1.7-1.9 2.9-.7 2.7-.7 4.4.3 3.3.8 4.6c.5 1.2 1.2 2.2 1.9 2.9q1.2 1.05 2.7 1.5c1 .3 1.9.5 2.9.5s1.8-.1 2.7-.4 1.7-.6 2.5-1.1l1.8-1.2c.5-.4 1-.8 1.3-1.1h.8v7l-2.1.9c-.7.3-1.4.5-2.1.7-1 .3-1.8.5-2.7.6-.8.1-2 .2-3.4.2Z" fill="#ffffff"/>
        <path d="M1030.7 1008.9h-21v-29.1h21v5.6h-13.6v5h12.6v5.6h-12.6v7.2h13.6v5.6Z" fill="#ffffff"/>
        <path d="M1060.2 999.7c0 2.9-1.2 5.2-3.6 7q-3.6 2.7-9.9 2.7c-6.3 0-4.5-.2-6.3-.6s-3.5-1-5-1.6v-7h.8c1.5 1.2 3.3 2.2 5.2 2.9s3.8 1 5.5 1 1.1 0 1.8-.1 1.3-.2 1.8-.4c.6-.2 1-.5 1.4-.9s.6-.9.6-1.6-.3-1.2-.8-1.7-1.3-.8-2.4-1.1-2.2-.5-3.5-.7c-1.2-.2-2.4-.5-3.4-.9-2.4-.8-4.2-1.9-5.3-3.2-1.1-1.4-1.6-3-1.6-5.1s1.2-4.9 3.6-6.6 5.5-2.6 9.4-2.6 3.8.2 5.7.6 3.5.8 4.9 1.4v6.7h-.8c-1.2-.9-2.6-1.7-4.3-2.4-1.7-.6-3.4-.9-5.2-.9s-1.2 0-1.9.1c-.6 0-1.2.2-1.8.5-.5.2-.9.5-1.3.9s-.5.8-.5 1.4q0 1.2.9 1.8c.9.6 1.7.8 3.3 1.1 1.1.2 2.1.4 3.1.6s2 .5 3.2.9c2.2.7 3.9 1.7 4.9 3 1.1 1.3 1.6 2.9 1.6 4.9Z" fill="#ffffff"/>
        <path d="M1088.7 999.7c0 2.9-1.2 5.2-3.6 7q-3.6 2.7-9.9 2.7c-6.3 0-4.5-.2-6.3-.6s-3.5-1-5-1.6v-7h.8c1.5 1.2 3.3 2.2 5.2 2.9s3.8 1 5.5 1 1.1 0 1.8-.1 1.3-.2 1.8-.4c.6-.2 1-.5 1.4-.9s.6-.9.6-1.6-.3-1.2-.8-1.7-1.3-.8-2.4-1.1-2.2-.5-3.5-.7c-1.2-.2-2.4-.5-3.4-.9-2.4-.8-4.2-1.9-5.3-3.2-1.1-1.4-1.6-3-1.6-5.1s1.2-4.9 3.6-6.6 5.5-2.6 9.4-2.6 3.8.2 5.7.6 3.5.8 4.9 1.4v6.7h-.8c-1.2-.9-2.6-1.7-4.3-2.4-1.7-.6-3.4-.9-5.2-.9s-1.2 0-1.9.1c-.6 0-1.2.2-1.8.5-.5.2-.9.5-1.3.9s-.5.8-.5 1.4q0 1.2.9 1.8c.9.6 1.7.8 3.3 1.1 1.1.2 2.1.4 3.1.6s2 .5 3.2.9c2.2.7 3.9 1.7 4.9 3 1.1 1.3 1.6 2.9 1.6 4.9Z" fill="#ffffff"/>
        <path d="M1118.7 1008.7c-.7.2-1.4.3-2.3.4s-1.5.2-2.2.2q-3.3 0-5.1-1.8c-1.2-1.2-1.7-3.1-1.7-5.8v-11.6h-2.5V987h2.5v-6.3h3.7v6.3h7.6v3.1h-7.6v12.6c0 .7.2 1.2.5 1.8.3.5.7.9 1.2 1.1s1.3.4 2.3.4 1.2 0 1.9-.3 1.1-.3 1.4-.4h.2v3.3Z" fill="#ffffff"/>
        <path d="M1141.4 1008.9h-3.7v-12.4c0-1 0-1.9-.2-2.8s-.3-1.6-.6-2.1-.8-1-1.4-1.2c-.6-.3-1.4-.4-2.4-.4s-2.1.2-3.1.7c-1.1.5-2.1 1.1-3.1 1.9v16.3h-3.7v-30.4h3.7v11c1.1-1 2.3-1.7 3.6-2.2 1.2-.5 2.5-.8 3.8-.8q3.6 0 5.4 2.1c1.2 1.4 1.9 3.5 1.9 6.1v14.2Z" fill="#ffffff"/>
        <path d="M1162.1 991.1h-.2c-.5-.1-1.1-.2-1.6-.3s-1.1 0-1.8 0c-1.1 0-2.2.3-3.3.8s-2.1 1.1-3 1.9v15.5h-3.7v-21.8h3.7v3.2c1.5-1.2 2.7-2 3.9-2.5s2.2-.7 3.4-.7h1.4c.3 0 .7 0 1.3.2v3.8Z" fill="#ffffff"/>
        <path d="M1184.1 998q0 5.4-2.7 8.4c-1.8 2.1-4.3 3.1-7.3 3.1s-5.5-1-7.4-3.1q-2.7-3.15-2.7-8.4c0-5.25.9-6.4 2.7-8.4 1.8-2.1 4.3-3.1 7.4-3.1s5.5 1 7.3 3.1q2.7 3.15 2.7 8.4m-3.8 0c0-2.8-.6-4.9-1.7-6.3s-2.6-2.1-4.6-2.1-3.5.7-4.6 2.1-1.7 3.5-1.7 6.3.6 4.8 1.7 6.2 2.6 2.1 4.6 2.1 3.5-.7 4.6-2.1 1.7-3.5 1.7-6.2" fill="#ffffff"/>
        <path d="M1207.9 1008.9h-3.7v-2.4c-1.2 1-2.4 1.7-3.6 2.2s-2.4.8-3.8.8q-3.45 0-5.4-2.1c-1.3-1.4-1.9-3.5-1.9-6.2V987h3.7v12.4c0 1.1 0 2.1.2 2.8.1.8.3 1.5.7 2 .4.6.8 1 1.4 1.2.6.3 1.4.4 2.4.4s2-.2 3.1-.7 2.2-1.1 3.2-1.9v-16.3h3.7v21.8Z" fill="#ffffff"/>
        <path d="M1232.8 1006.4c0 3.7-.8 6.4-2.5 8.1s-4.3 2.6-7.8 2.6-2.3 0-3.4-.2-2.2-.4-3.3-.7v-3.8h.2c.6.2 1.5.5 2.9.9s2.6.5 3.9.5 2.3-.1 3.1-.4 1.5-.7 1.9-1.2c.5-.5.8-1.1 1-1.8s.3-1.5.3-2.4v-2c-1.1.9-2.2 1.5-3.2 2-1 .4-2.3.7-3.9.7-2.6 0-4.7-.9-6.2-2.8s-2.3-4.5-2.3-8 .3-3.5.8-4.9 1.2-2.5 2.2-3.5c.8-.9 1.9-1.6 3.1-2.2 1.2-.5 2.4-.8 3.6-.8s2.3.1 3.2.4 1.8.6 2.7 1.2l.2-.9h3.4v19.3Zm-3.7-3.5V991c-1-.4-1.9-.8-2.7-.9-.8-.2-1.7-.3-2.5-.3-2 0-3.6.7-4.8 2-1.2 1.4-1.7 3.3-1.7 5.9s.4 4.3 1.3 5.6 2.3 1.9 4.3 1.9 2.1-.2 3.2-.6 2.1-1 3-1.7Z" fill="#ffffff"/>
        <path d="M1258.3 1008.9h-3.7v-12.4c0-1 0-1.9-.2-2.8s-.3-1.6-.6-2.1-.8-1-1.4-1.2c-.6-.3-1.4-.4-2.4-.4s-2.1.2-3.1.7c-1.1.5-2.1 1.1-3.1 1.9v16.3h-3.7v-30.4h3.7v11c1.1-1 2.3-1.7 3.6-2.2 1.2-.5 2.5-.8 3.8-.8q3.6 0 5.4 2.1c1.2 1.4 1.9 3.5 1.9 6.1v14.2Z" fill="#ffffff"/>
        <path d="m778.3 1027.8-10.6 29.1h-8.4l-10.6-29.1h7.9l7 20.4 7-20.4z" fill="#ffffff"/>
        <path d="M809.3 1056.9h-7.7l-2-5.9h-10.8l-2 5.9h-7.6l10.7-29.1h8.6l10.7 29.1Zm-11.5-11.2-3.6-10.4-3.6 10.4z" fill="#ffffff"/>
        <path d="M834.5 1056.9h-21v-29.1h7.5v23.5h13.5z" fill="#ffffff"/>
        <path d="M864.5 1046.3c0 3.6-1.1 6.3-3.3 8.3s-5.4 2.9-9.7 2.9-7.5-1-9.7-2.9-3.3-4.7-3.3-8.2v-18.6h7.5v18.1c0 2 .4 3.5 1.3 4.5.8 1 2.2 1.5 4.1 1.5s3.2-.5 4.1-1.4c.9-1 1.3-2.5 1.3-4.6v-18.1h7.5v18.6Z" fill="#ffffff"/>
        <path d="M892.5 1056.9h-21v-29.1h21v5.6h-13.6v5h12.6v5.6h-12.6v7.2h13.6v5.6Z" fill="#ffffff"/>
        <path d="M930.1 1056.9h-3.7v-2.3q-1.65 1.35-3.3 2.1c-1.1.5-2.4.8-3.7.8-2.6 0-4.7-1-6.2-3s-2.3-4.8-2.3-8.3.3-3.5.8-4.9 1.2-2.7 2.1-3.7 1.9-1.7 3.1-2.3c1.2-.5 2.4-.8 3.7-.8s2.2.1 3 .4c.9.2 1.8.6 2.8 1.1v-9.5h3.7zm-3.7-5.4V1039q-1.5-.6-2.7-.9c-.8-.2-1.6-.3-2.6-.3q-3.15 0-4.8 2.1c-1.1 1.4-1.7 3.5-1.7 6.1s.4 4.6 1.3 5.9 2.3 2 4.3 2 2.1-.2 3.2-.7q1.65-.75 3-1.8Z" fill="#ffffff"/>
        <path d="M955.6 1046.3h-16.1c0 1.3.2 2.5.6 3.5s1 1.8 1.7 2.5c.7.6 1.5 1.1 2.4 1.4s2 .5 3.1.5 3-.3 4.5-.9 2.6-1.2 3.2-1.7h.2v4c-1.2.5-2.5 1-3.8 1.3s-2.6.5-4.1.5c-3.6 0-6.4-1-8.5-2.9-2-2-3-4.7-3-8.3s1-6.4 2.9-8.5 4.5-3.1 7.7-3.1 5.2.9 6.8 2.6 2.4 4.2 2.4 7.3v2Zm-3.6-2.8q0-2.85-1.5-4.5c-1.5-1.65-2.4-1.6-4.4-1.6s-3.5.6-4.7 1.7c-1.2 1.2-1.8 2.6-2 4.3h12.5Z" fill="#ffffff"/>
        <path d="M993 1056.9h-3.7v-12.4c0-.9 0-1.8-.1-2.7 0-.9-.3-1.6-.5-2.1-.3-.6-.7-1-1.3-1.3s-1.4-.4-2.4-.4-2.1.3-3.1.8-2.1 1.2-3.1 2v16.2h-3.7v-12.4c0-1 0-1.9-.1-2.7 0-.9-.3-1.6-.5-2.1-.3-.6-.7-1-1.3-1.3s-1.4-.4-2.4-.4-2 .2-3 .7-2 1.1-3 1.9v16.3h-3.7v-21.8h3.7v2.4c1.1-1 2.3-1.7 3.4-2.2s2.4-.8 3.6-.8 2.7.3 3.8.9 1.8 1.5 2.3 2.6c1.5-1.2 2.8-2.2 4.1-2.7 1.2-.6 2.5-.8 3.9-.8 2.4 0 4.2.7 5.3 2.2s1.7 3.5 1.7 6.1v14.2Z" fill="#ffffff"/>
        <path d="M1018.6 1046q0 5.4-2.7 8.4c-1.8 2.1-4.3 3.1-7.3 3.1s-5.5-1-7.4-3.1q-2.7-3.15-2.7-8.4c0-5.25.9-6.4 2.7-8.4 1.8-2.1 4.3-3.1 7.4-3.1s5.5 1 7.3 3.1q2.7 3.15 2.7 8.4m-3.7 0c0-2.8-.6-4.9-1.7-6.3s-2.6-2.1-4.6-2.1-3.5.7-4.6 2.1-1.7 3.5-1.7 6.3.6 4.8 1.7 6.2 2.6 2.1 4.6 2.1 3.5-.7 4.6-2.1 1.7-3.5 1.7-6.2" fill="#ffffff"/>
        <path d="M1042.6 1056.9h-3.7v-12.4c0-1 0-1.9-.2-2.8s-.3-1.6-.6-2.1-.8-1-1.4-1.2c-.6-.3-1.4-.4-2.4-.4s-2.1.2-3.1.7c-1.1.5-2.1 1.1-3.1 1.9v16.3h-3.7v-21.8h3.7v2.4c1.1-1 2.3-1.7 3.6-2.2 1.2-.5 2.5-.8 3.8-.8q3.6 0 5.4 2.1c1.2 1.4 1.9 3.5 1.9 6.1v14.2Z" fill="#ffffff"/>
        <path d="M1065.2 1050.6c0 2-.8 3.6-2.5 4.9-1.6 1.3-3.9 1.9-6.7 1.9s-3.1-.2-4.4-.6-2.5-.8-3.4-1.3v-4.1h.2c1.2.9 2.4 1.6 3.9 2.1 1.4.5 2.8.8 4.1.8s2.9-.3 3.8-.8 1.4-1.3 1.4-2.5-.2-1.5-.7-2c-.5-.4-1.4-.8-2.9-1.1-.5-.1-1.2-.3-2-.4s-1.6-.3-2.3-.5c-1.9-.5-3.3-1.3-4.1-2.2q-1.2-1.5-1.2-3.6c0-2.1.2-1.7.6-2.5s.9-1.5 1.7-2.1c.7-.6 1.7-1.1 2.8-1.5s2.4-.5 3.8-.5 2.6.2 4 .5q1.95.45 3.3 1.2v3.9h-.2c-.9-.7-2.1-1.3-3.4-1.7-1.3-.5-2.7-.7-3.9-.7s-2.5.3-3.4.8-1.4 1.3-1.4 2.3.3 1.6.8 2c.5.5 1.4.8 2.7 1.1.7.2 1.4.3 2.3.5s1.5.3 2.1.4c1.7.4 3 1.1 3.9 2 .9 1 1.4 2.2 1.4 3.8Z" fill="#ffffff"/>
        <path d="M1081.8 1056.7c-.7.2-1.4.3-2.3.4s-1.5.2-2.2.2q-3.3 0-5.1-1.8c-1.2-1.2-1.7-3.1-1.7-5.8v-11.6h-2.5v-3.1h2.5v-6.3h3.7v6.3h7.6v3.1h-7.6v12.6c0 .7.2 1.2.5 1.8.3.5.7.9 1.2 1.1s1.3.4 2.3.4 1.2 0 1.9-.3 1.1-.3 1.4-.4h.2v3.3Z" fill="#ffffff"/>
        <path d="M1099.9 1039.1h-.2c-.5-.1-1.1-.2-1.6-.3s-1.1 0-1.8 0c-1.1 0-2.2.3-3.3.8s-2.1 1.1-3 1.9v15.5h-3.7v-21.8h3.7v3.2c1.5-1.2 2.7-2 3.9-2.5s2.2-.7 3.4-.7h1.4c.3 0 .7 0 1.3.2v3.8Z" fill="#ffffff"/>
        <path d="M1119.6 1056.9h-3.7v-2.3c-.3.2-.8.5-1.3.9-.6.4-1.1.7-1.6.9-.6.3-1.3.5-2.1.8s-1.7.3-2.8.3c-2 0-3.6-.7-5-2s-2.1-3-2.1-5 .4-3 1.1-4q1.05-1.5 3-2.4t4.8-1.2c1.9-.2 3.9-.4 6-.5v-.6c0-.8-.1-1.5-.4-2.1s-.7-1-1.3-1.3c-.5-.3-1.1-.5-1.9-.6-.7-.1-1.5-.2-2.3-.2s-2 .1-3.2.4-2.4.6-3.7 1.1h-.2v-3.7c.7-.2 1.8-.4 3.1-.6s2.7-.4 4-.4 2.9.1 4 .4 2.1.7 3 1.3c.8.6 1.4 1.4 1.9 2.3.4 1 .6 2.1.6 3.5v14.8Zm-3.7-5.4v-6.1c-1.1 0-2.4.2-4 .3q-2.25.15-3.6.6c-1.1.3-1.9.8-2.6 1.4s-1 1.5-1 2.6.4 2.2 1.1 2.8c.8.6 1.9.9 3.5.9s2.5-.2 3.5-.8q1.65-.75 3-1.8Z" fill="#ffffff"/>
        <path d="M1138 1056.7c-.7.2-1.4.3-2.3.4-.8.1-1.5.2-2.2.2q-3.3 0-5.1-1.8c-1.2-1.2-1.7-3.1-1.7-5.8v-11.6h-2.5v-3.1h2.5v-6.3h3.7v6.3h7.6v3.1h-7.6v12.6c0 .6.2 1.2.5 1.8.3.5.7.9 1.2 1.1s1.3.4 2.3.4 1.2 0 1.9-.3c.7-.2 1.1-.3 1.4-.4h.2v3.3Z" fill="#ffffff"/>
        <path d="M1161 1046q0 5.4-2.7 8.4c-1.8 2.1-4.3 3.1-7.3 3.1s-5.5-1-7.4-3.1q-2.7-3.15-2.7-8.4c0-5.25.9-6.4 2.7-8.4 1.8-2.1 4.3-3.1 7.4-3.1s5.5 1 7.3 3.1q2.7 3.15 2.7 8.4m-3.8 0c0-2.8-.6-4.9-1.7-6.3s-2.6-2.1-4.6-2.1-3.5.7-4.6 2.1-1.7 3.5-1.7 6.3.6 4.8 1.7 6.2 2.6 2.1 4.6 2.1 3.5-.7 4.6-2.1 1.7-3.5 1.7-6.2" fill="#ffffff"/>
        <path d="M1184.9 1056.9h-3.7v-12.4c0-1 0-1.9-.2-2.8s-.3-1.6-.6-2.1-.8-1-1.4-1.2c-.6-.3-1.4-.4-2.4-.4s-2.1.2-3.1.7c-1.1.5-2.1 1.1-3.1 1.9v16.3h-3.7v-21.8h3.7v2.4c1.1-1 2.3-1.7 3.6-2.2 1.2-.5 2.5-.8 3.8-.8q3.6 0 5.4 2.1c1.2 1.4 1.9 3.5 1.9 6.1v14.2Z" fill="#ffffff"/>
        <path d="M1227.6 1039.1v1.9c0 1.2-.2 2.7-.5 4.2s-.9 3.1-1.7 4.5l7.4 7.2h-4.8l-4.5-4.4c-1.5 1.8-3 3.1-4.6 3.9s-3.2 1.1-4.8 1.1c-2.7 0-5-.8-6.7-2.4s-2.7-3.7-2.7-6.2.2-2.2.5-3.1.7-1.6 1.2-2.3c.5-.6 1-1.2 1.7-1.7s1.4-1 2.1-1.4c-1.4-.9-2.5-1.9-3.1-2.8-.6-1-.9-2.1-.9-3.6s.2-1.7.5-2.5.9-1.5 1.6-2.2c.7-.6 1.5-1.1 2.5-1.5s2.2-.6 3.5-.6c2.3 0 4.1.6 5.5 1.7s2.1 2.6 2.1 4.3 0 1.2-.2 1.9-.4 1.4-.8 1.9q-.6.9-1.8 1.8c-1.2.9-1.8 1.1-3 1.5l7.2 7.1c.2-.5.3-1.1.4-1.7s.1-1.3.2-2v-4.7h3.8Zm-5.9 11.6-9.3-9.1c-.4.2-.8.5-1.2.8s-.8.8-1.2 1.3q-.6.75-.9 1.8c-.2.7-.4 1.5-.4 2.4 0 1.9.6 3.4 1.7 4.6s2.7 1.7 4.7 1.7 2.4-.3 3.6-.9q1.8-.9 3-2.7Zm-3.8-17.1c0-1.2-.4-2.2-1.1-2.9s-1.7-1.1-2.8-1.1-2.2.4-2.9 1.2-1.1 1.8-1.1 2.9.3 1.8.8 2.6 1.6 1.6 3.3 2.7c1.3-.5 2.2-1.1 2.9-2s1-2 1-3.4Z" fill="#ffffff"/>
        <path d="M842.8 1104.9h-7.7l-2-5.9h-10.8l-2 5.9h-7.6l10.7-29.1h8.6l10.7 29.1Zm-11.6-11.2-3.6-10.4-3.6 10.4z" fill="#ffffff"/>
        <path d="M867.8 1081.4h-13.4v5.4h12.4v5.6h-12.4v12.4h-7.5v-29.1h20.8v5.6Z" fill="#ffffff"/>
        <path d="M893.8 1081.4h-13.4v5.4h12.4v5.6h-12.4v12.4h-7.5v-29.1h20.8v5.6Z" fill="#ffffff"/>
        <path d="M927.3 1090.3c0 4.6-1.3 8.3-4 11s-6.3 4.1-11 4.1-8.3-1.4-11-4.1-4-6.4-4-11 1.3-8.4 4-11.1 6.3-4.1 11-4.1 8.3 1.4 11 4.1 4 6.4 4 11.1m-10 7.4c.7-.9 1.3-1.9 1.6-3.1.4-1.2.5-2.6.5-4.2s-.2-3.2-.6-4.5c-.4-1.2-.9-2.2-1.6-3s-1.4-1.3-2.3-1.7-1.8-.5-2.7-.5-1.8.2-2.7.5c-.8.3-1.6.9-2.3 1.7-.7.7-1.2 1.7-1.6 3q-.6 1.95-.6 4.5c0 2.55.2 3.2.6 4.4s.9 2.2 1.6 3 1.4 1.3 2.3 1.7 1.8.5 2.8.5 1.9-.2 2.8-.6 1.6-.9 2.3-1.7Z" fill="#ffffff"/>
        <path d="M961 1104.9h-9.2l-7.9-10.7h-3.5v10.7h-7.5v-29.1h12.6c1.7 0 3.2 0 4.4.3 1.2.2 2.4.6 3.5 1.3s2 1.5 2.6 2.5 1 2.3 1 3.9-.5 3.9-1.5 5.3-2.4 2.5-4.3 3.4l9.7 12.5Zm-11.7-20.2c0-.7-.1-1.4-.4-1.9q-.45-.75-1.5-1.2c-.5-.2-1.1-.3-1.8-.4h-5.1v7.8h2.3c1.2 0 2.2 0 3-.2.8-.1 1.5-.4 2-.8s.9-.8 1.1-1.3.4-1.1.4-2" fill="#ffffff"/>
        <path d="M991.8 1090.4c0 2.7-.6 5.1-1.9 7.3-1.2 2.1-2.8 3.8-4.7 4.9-1.4.9-3 1.5-4.7 1.8s-3.7.5-6 .5h-10.3v-29.1h10.5c2.4 0 4.4.2 6.1.6s3.2 1 4.3 1.7c2 1.2 3.6 2.9 4.7 5 1.2 2.1 1.7 4.5 1.7 7.3Zm-7.8-.1c0-1.9-.3-3.6-1-4.9-.7-1.4-1.8-2.4-3.3-3.2-.8-.4-1.6-.6-2.4-.8s-2-.2-3.6-.2h-1.9v18.2h1.9c1.8 0 3.1 0 3.9-.2q1.2-.3 2.4-.9c1.4-.8 2.4-1.8 3-3.1s1-2.9 1-4.9" fill="#ffffff"/>
        <path d="M1024.4 1104.9h-7.7l-2-5.9h-10.8l-2 5.9h-7.6l10.7-29.1h8.6l10.7 29.1Zm-11.6-11.2-3.6-10.4-3.6 10.4z" fill="#ffffff"/>
        <path d="M1053.4 1096c0 1.4-.3 2.7-.8 3.8-.6 1.1-1.3 2-2.3 2.8-1.1.9-2.4 1.5-3.8 1.8-1.4.4-3.1.5-5.2.5h-12.7v-29.1h11.3c2.3 0 4.1 0 5.1.2s2.2.5 3.2 1c1.1.6 1.9 1.3 2.5 2.3.5.9.8 2 .8 3.2s-.4 2.6-1.1 3.7-1.8 1.9-3.1 2.5v.2c1.9.4 3.4 1.2 4.5 2.3 1.1 1.2 1.7 2.7 1.7 4.7Zm-9.6-12c0-.5-.1-1-.4-1.4-.2-.5-.7-.8-1.3-1.1-.5-.2-1.2-.3-2-.3h-4.1v6.2h4.2c.8 0 1.5-.2 2-.4.7-.3 1.1-.7 1.3-1.2s.3-1 .3-1.7Zm1.8 11.8c0-.9-.2-1.6-.5-2.1-.4-.5-1-.9-1.8-1.1q-.9-.3-2.4-.3h-4.8v7.2h5c.9 0 1.7-.2 2.5-.5s1.3-.8 1.6-1.3.4-1.2.4-1.9" fill="#ffffff"/>
        <path d="M1074.7 1104.9h-17v-5.2h4.8v-18.8h-4.8v-5.2h17v5.2h-4.8v18.8h4.8z" fill="#ffffff"/>
        <path d="M1101.8 1104.9h-21v-29.1h7.5v23.5h13.5z" fill="#ffffff"/>
        <path d="M1122.1 1104.9h-17v-5.2h4.8v-18.8h-4.8v-5.2h17v5.2h-4.8v18.8h4.8z" fill="#ffffff"/>
        <path d="M1150.9 1081.4h-9.1v23.5h-7.5v-23.5h-9.1v-5.6h25.7z" fill="#ffffff"/>
        <path d="m1181 1075.8-10.7 17.8v11.2h-7.5v-10.9l-10.9-18.2h8.5l6.3 11.2 6.1-11.2h8.2Z" fill="#ffffff"/>
        <path d="M769.7 1286c-2.2 0-4.2-.3-6-1-1.8-.6-3.4-1.6-4.7-2.9s-2.3-2.8-3.1-4.7-1.1-4.1-1.1-6.5.3-4.4 1-6.3q1.05-2.85 3-4.8c1.3-1.3 2.8-2.3 4.7-3s3.9-1.1 6.1-1.1 2.3 0 3.3.2c1 .1 1.9.3 2.7.5.9.2 1.7.5 2.4.8s1.3.6 1.9.8v7.1h-.9c-.4-.3-.8-.7-1.4-1.1s-1.2-.8-1.9-1.3c-.7-.4-1.5-.8-2.3-1-.8-.3-1.7-.4-2.7-.4s-2.1.2-3 .5c-1 .3-1.8.9-2.6 1.6s-1.4 1.7-1.9 2.9-.7 2.7-.7 4.4.3 3.3.8 4.6c.5 1.2 1.2 2.2 1.9 2.9q1.2 1.05 2.7 1.5c1.5.45 1.9.5 2.9.5s1.8-.1 2.7-.4 1.7-.6 2.5-1.1l1.8-1.2c.6-.4 1-.8 1.3-1.1h.8v7l-2.1.9c-.7.3-1.4.5-2.1.7-1 .3-1.8.5-2.7.6-.8.1-2 .2-3.4.2Z" fill="#ffffff"/>
        <path d="M813.5 1285.4h-9.2l-7.9-10.7h-3.5v10.7h-7.5v-29.1H798c1.7 0 3.2 0 4.4.3 1.2.2 2.4.6 3.5 1.3s2 1.5 2.6 2.5 1 2.3 1 3.9-.5 3.9-1.5 5.3-2.4 2.5-4.3 3.4l9.7 12.5Zm-11.7-20.1c0-.7-.1-1.4-.4-1.9q-.45-.75-1.5-1.2c-.5-.2-1.1-.3-1.8-.4H793v7.8h2.3c1.2 0 2.2 0 3-.2.8-.1 1.5-.4 2-.8s.9-.8 1.1-1.3.4-1.1.4-2" fill="#ffffff"/>
        <path d="M837.8 1285.4h-21v-29.1h21v5.6h-13.6v5h12.6v5.6h-12.6v7.2h13.6v5.6Z" fill="#ffffff"/>
        <path d="M870.9 1285.4h-7.7l-2-5.9h-10.8l-2 5.9h-7.6l10.7-29.1h8.6l10.7 29.1Zm-11.5-11.2-3.6-10.4-3.6 10.4z" fill="#ffffff"/>
        <path d="M897.9 1262h-9.1v23.5h-7.5V1262h-9.1v-5.6h25.7z" fill="#ffffff"/>
        <path d="M923.4 1285.4h-21v-29.1h21v5.6h-13.6v5h12.6v5.6h-12.6v7.2h13.6v5.6Z" fill="#ffffff"/>
        <path d="M947.2 1260h-4.1v-3.8h4.1zm-.2 25.4h-3.7v-21.8h3.7z" fill="#ffffff"/>
        <path d="M972 1285.4h-3.7v-2.3q-1.65 1.35-3.3 2.1c-1.1.5-2.4.8-3.7.8-2.6 0-4.7-1-6.2-3s-2.3-4.8-2.3-8.3.3-3.5.8-4.9 1.2-2.7 2.1-3.7 1.9-1.7 3.1-2.3c1.2-.5 2.4-.8 3.7-.8s2.2.1 3 .4c.9.2 1.8.6 2.8 1.1v-9.5h3.7zm-3.7-5.3v-12.5q-1.5-.6-2.7-.9c-1.2-.3-1.6-.3-2.6-.3q-3.15 0-4.8 2.1c-1.1 1.4-1.7 3.5-1.7 6.1s.4 4.6 1.3 5.9 2.3 2 4.3 2 2.1-.2 3.2-.7q1.65-.75 3-1.8Z" fill="#ffffff"/>
        <path d="M997.3 1285.4h-3.7v-2.4c-1.2 1-2.4 1.7-3.6 2.2s-2.4.8-3.8.8q-3.45 0-5.4-2.1c-1.3-1.4-1.9-3.5-1.9-6.2v-14.2h3.7v12.4c0 1.1 0 2.1.2 2.8.1.8.3 1.5.7 2 .4.6.8 1 1.4 1.2.6.3 1.4.4 2.4.4s2-.2 3.1-.7 2.2-1.1 3.2-1.9v-16.3h3.7v21.8Z" fill="#ffffff"/>
        <path d="M1020.1 1279.2c0 2-.8 3.6-2.5 4.9s-3.9 1.9-6.7 1.9-3.1-.2-4.4-.6-2.5-.8-3.4-1.3v-4.1h.2c1.2.9 2.4 1.6 3.9 2.1s2.8.8 4.1.8 2.9-.3 3.8-.8 1.4-1.3 1.4-2.5-.2-1.5-.7-2-1.4-.8-2.9-1.1c-.5-.1-1.2-.3-2-.4s-1.6-.3-2.3-.5c-1.9-.5-3.3-1.3-4.1-2.2s-1.2-2.2-1.2-3.6.2-1.7.6-2.5.9-1.5 1.7-2.1c.7-.6 1.7-1.1 2.8-1.5s2.4-.5 3.8-.5 2.6.2 4 .5 2.4.7 3.3 1.2v3.9h-.2c-.9-.7-2.1-1.3-3.4-1.7s-2.7-.7-3.9-.7-2.5.3-3.4.8-1.4 1.3-1.4 2.3.3 1.6.8 2c.5.5 1.4.8 2.7 1.1.7.2 1.4.3 2.3.5s1.5.3 2.1.4c1.7.4 3 1.1 3.9 2 .9 1 1.4 2.2 1.4 3.8Z" fill="#ffffff"/>
        <path d="M1036.7 1285.2c-.7.2-1.4.3-2.3.4s-1.5.2-2.2.2q-3.3 0-5.1-1.8c-1.8-1.8-1.7-3.1-1.7-5.8v-11.6h-2.5v-3.1h2.5v-6.3h3.7v6.3h7.6v3.1h-7.6v12.6c0 .7.2 1.2.5 1.8.3.5.7.9 1.2 1.1s1.3.4 2.3.4 1.2 0 1.9-.3 1.1-.3 1.4-.4h.2v3.3Z" fill="#ffffff"/>
        <path d="M1054.7 1267.6h-.2c-.5-.1-1.1-.2-1.6-.3s-1.1 0-1.8 0c-1.1 0-2.2.3-3.3.8s-2.1 1.1-3 1.9v15.5h-3.7v-21.8h3.7v3.2c1.5-1.2 2.7-2 3.9-2.5s2.2-.7 3.4-.7h1.4c.3 0 .7 0 1.3.2v3.8Z" fill="#ffffff"/>
        <path d="m1077 1263.6-12.7 29.9h-3.9l4.1-9.1-8.7-20.8h4l6.7 16.2 6.8-16.2h3.8Z" fill="#ffffff"/>
        <path d="M1092.6 1274.5h-12.2v-3.5h12.2z" fill="#ffffff"/>
        <path d="M1102.9 1285.4h-3.7V1255h3.7z" fill="#ffffff"/>
        <path d="M1128.5 1274.9h-16.1c0 1.3.2 2.5.6 3.5s1 1.8 1.7 2.5c.7.6 1.5 1.1 2.4 1.4s2 .5 3.1.5 3-.3 4.5-.9 2.6-1.2 3.2-1.7h.2v4c-1.2.5-2.5 1-3.8 1.3-1.3.4-2.6.5-4.1.5-3.6 0-6.4-1-8.5-2.9s-3-4.7-3-8.3 1-6.4 2.9-8.5 4.5-3.1 7.7-3.1 5.2.9 6.8 2.6 2.4 4.2 2.4 7.3v2Zm-3.6-2.8q0-2.85-1.5-4.5c-1-1.1-2.4-1.6-4.4-1.6s-3.5.6-4.7 1.7-1.8 2.6-2 4.3h12.5Z" fill="#ffffff"/>
        <path d="M1151 1285.4h-3.7v-2.3c-.3.2-.8.5-1.3.9s-1.1.7-1.6.9c-.6.3-1.3.5-2.1.8-.8.2-1.7.3-2.8.3-2 0-3.6-.7-5-2s-2.1-3-2.1-5 .4-3 1.1-4 1.7-1.8 3-2.4q1.95-.9 4.8-1.2c2.85-.3 3.9-.4 6-.5v-.6c0-.8-.1-1.5-.4-2.1s-.7-1-1.3-1.3c-.5-.3-1.1-.5-1.9-.6s-1.5-.2-2.3-.2-2 .1-3.2.4-2.4.6-3.7 1.1h-.2v-3.7c.7-.2 1.8-.4 3.1-.6s2.7-.4 4-.4 2.9.1 4 .4 2.1.7 3 1.3c.8.6 1.4 1.4 1.9 2.3s.6 2.1.6 3.5v14.8Zm-3.7-5.3v-6.1c-1.1 0-2.4.2-4 .3s-2.7.3-3.6.6c-1.1.3-1.9.8-2.6 1.4s-1 1.5-1 2.6.4 2.2 1.1 2.8 1.9.9 3.5.9 2.5-.3 3.5-.8 2.1-1.1 3-1.8Z" fill="#ffffff"/>
        <path d="M1175.8 1285.4h-3.7v-2.3q-1.65 1.35-3.3 2.1c-1.65.75-2.4.8-3.7.8-2.6 0-4.7-1-6.2-3s-2.3-4.8-2.3-8.3.3-3.5.8-4.9 1.2-2.7 2.1-3.7 1.9-1.7 3.1-2.3 2.4-.8 3.7-.8 2.2.1 3 .4 1.8.6 2.8 1.1v-9.5h3.7zm-3.7-5.3v-12.5q-1.5-.6-2.7-.9c-1.2-.3-1.6-.3-2.6-.3q-3.15 0-4.8 2.1c-1.65 2.1-1.7 3.5-1.7 6.1s.4 4.6 1.3 5.9 2.3 2 4.3 2 2.1-.2 3.2-.7 2.1-1.1 3-1.8Z" fill="#ffffff"/>
        <path d="M1186.9 1260h-4.1v-3.8h4.1zm-.2 25.4h-3.7v-21.8h3.7z" fill="#ffffff"/>
        <path d="M1212.2 1285.4h-3.7V1273c0-1 0-1.9-.2-2.8s-.3-1.6-.6-2.1-.8-1-1.4-1.2-1.4-.4-2.4-.4-2.1.2-3.1.7-2.1 1.1-3.1 1.9v16.3h-3.7v-21.8h3.7v2.4c1.1-1 2.3-1.7 3.6-2.2s2.5-.8 3.8-.8q3.6 0 5.4 2.1c1.8 2.1 1.9 3.5 1.9 6.1v14.2Z" fill="#ffffff"/>
        <path d="M1237 1283c0 3.7-.8 6.4-2.5 8.1s-4.3 2.6-7.8 2.6-2.3 0-3.4-.2-2.2-.4-3.3-.7v-3.8h.2c.6.2 1.5.5 2.9.9 1.3.3 2.6.5 3.9.5s2.3-.2 3.1-.4c.8-.3 1.5-.7 1.9-1.2.5-.5.8-1.1 1-1.8q.3-1.05.3-2.4v-2c-1.1.9-2.2 1.5-3.2 2s-2.3.7-3.9.7c-2.6 0-4.7-.9-6.2-2.8s-2.3-4.5-2.3-8 .3-3.5.8-4.9 1.2-2.5 2.2-3.5c.8-.9 1.9-1.6 3.1-2.2s2.4-.8 3.6-.8 2.3.1 3.2.4 1.8.6 2.7 1.2l.2-.9h3.4v19.3Zm-3.7-3.6v-11.9c-1-.4-1.9-.8-2.7-.9s-1.7-.3-2.5-.3c-2 0-3.6.7-4.8 2s-1.7 3.3-1.7 5.9.4 4.3 1.3 5.6 2.3 1.9 4.3 1.9 2.1-.2 3.2-.6 2.1-1 3-1.7Z" fill="#ffffff"/>
        <path d="M599.8 1313.5c0 1.3-.2 2.6-.7 3.8s-1.1 2.3-2 3.1c-1.2 1.1-2.5 2-3.9 2.6s-3.2.9-5.3.9h-4.7v9.5h-7.5v-29.1H588c1.8 0 3.4.2 4.7.5s2.4.8 3.4 1.4c1.2.8 2.1 1.8 2.7 2.9.6 1.2.9 2.6.9 4.3Zm-7.8.2c0-.8-.2-1.5-.7-2.1-.4-.6-1-1-1.5-1.2-.8-.3-1.5-.5-2.3-.5h-4.3v8.7h2.1c1.3 0 2.3 0 3.2-.2q1.2-.3 2.1-.9c.5-.4.8-.9 1-1.5s.3-1.3.3-2.1Z" fill="#ffffff"/>
        <path d="M632 1333.4h-7.7l-2-5.9h-10.8l-2 5.9h-7.6l10.7-29.1h8.6l10.7 29.1Zm-11.6-11.2-3.6-10.4-3.6 10.4z" fill="#ffffff"/>
        <path d="M658.9 1310h-9.1v23.5h-7.5V1310h-9.1v-5.6h25.7z" fill="#ffffff"/>
        <path d="M679.2 1333.4h-17v-5.2h4.8v-18.8h-4.8v-5.2h17v5.2h-4.8v18.8h4.8z" fill="#ffffff"/>
        <path d="M706.3 1333.4h-21v-29.1h21v5.6h-13.6v5h12.6v5.6h-12.6v7.2h13.6v5.6Z" fill="#ffffff"/>
        <path d="M739 1333.4h-7.2l-12.3-20v20h-6.9v-29.1h9l10.6 16.7v-16.7h6.9v29.1Z" fill="#ffffff"/>
        <path d="M769.2 1310h-9.1v23.5h-7.5V1310h-9.1v-5.6h25.7z" fill="#ffffff"/>
        <path d="M787.1 1323.3h-14.9v-5.6h14.9z" fill="#ffffff"/>
        <path d="M813.8 1310h-13.4v5.4h12.4v5.6h-12.4v12.4h-7.5v-29.1h20.8v5.6Z" fill="#ffffff"/>
        <path d="M847.2 1318.9c0 4.6-1.3 8.3-4 11s-6.3 4.1-11 4.1-8.3-1.4-11-4.1-4-6.4-4-11 1.3-8.4 4-11.1 6.3-4.1 11-4.1 8.3 1.4 11 4.1 4 6.4 4 11.1m-9.9 7.4c.7-.9 1.3-1.9 1.6-3.1s.5-2.6.5-4.2-.2-3.2-.6-4.5c-.4-1.2-.9-2.2-1.6-3s-1.4-1.3-2.3-1.7-1.8-.5-2.7-.5-1.8.2-2.7.5-1.6.9-2.3 1.7c-.7.7-1.2 1.7-1.6 3s-.6 2.8-.6 4.5.2 3.2.6 4.4.9 2.2 1.6 3 1.4 1.3 2.3 1.7 1.8.5 2.8.5 1.9-.2 2.8-.6 1.6-.9 2.3-1.7Z" fill="#ffffff"/>
        <path d="M866.1 1334c-2.2 0-4.2-.3-6-1-1.8-.6-3.4-1.6-4.7-2.9s-2.3-2.8-3.1-4.7-1.1-4.1-1.1-6.5.3-4.4 1-6.3q1.05-2.85 3-4.8c1.3-1.3 2.8-2.3 4.7-3s3.9-1.1 6.1-1.1 2.3 0 3.3.2c1 .1 1.9.3 2.7.5.9.2 1.7.5 2.4.8s1.3.6 1.9.8v7.1h-.9c-.4-.3-.8-.7-1.4-1.1s-1.2-.8-1.9-1.3c-.7-.4-1.5-.8-2.3-1-.8-.3-1.7-.4-2.7-.4s-2.1.2-3 .5c-1 .3-1.8.9-2.6 1.6s-1.4 1.7-1.9 2.9-.7 2.7-.7 4.4.3 3.3.8 4.6c.5 1.2 1.2 2.2 1.9 2.9q1.2 1.05 2.7 1.5c1.5.45 1.9.5 2.9.5s1.8-.1 2.7-.4 1.7-.6 2.5-1.1l1.8-1.2c.6-.4 1-.8 1.3-1.1h.8v7l-2.1.9c-.7.3-1.4.5-2.1.7-1 .3-1.8.5-2.7.6-.8.1-2 .2-3.4.2Z" fill="#ffffff"/>
        <path d="M907.4 1322.9c0 3.6-1.1 6.3-3.3 8.3s-5.4 2.9-9.7 2.9-7.5-1-9.7-2.9-3.3-4.7-3.3-8.2v-18.6h7.5v18.1c0 2 .4 3.5 1.3 4.5.8 1 2.2 1.5 4.1 1.5s3.2-.5 4.1-1.4c.9-1 1.3-2.5 1.3-4.6v-18.1h7.5v18.6Z" fill="#ffffff"/>
        <path d="M937.6 1324.3c0 2.9-1.2 5.2-3.6 7q-3.6 2.7-9.9 2.7c-6.3 0-4.5-.2-6.3-.6s-3.5-1-5-1.6v-7h.8c1.5 1.2 3.3 2.2 5.2 2.9s3.8 1 5.5 1 1.1 0 1.8-.1 1.3-.2 1.8-.4c.6-.2 1-.5 1.4-.9s.6-.9.6-1.6-.3-1.2-.8-1.7-1.3-.8-2.4-1.1-2.2-.5-3.5-.7c-1.2-.2-2.4-.5-3.4-.9-2.4-.8-4.2-1.9-5.3-3.2s-1.6-3-1.6-5.1 1.2-4.9 3.6-6.6 5.5-2.6 9.4-2.6 3.8.2 5.7.6 3.5.8 4.9 1.4v6.7h-.8c-1.2-.9-2.6-1.7-4.3-2.4s-3.4-.9-5.2-.9-1.2 0-1.9.1c-.6 0-1.2.2-1.8.5-.5.2-.9.5-1.3.9s-.5.8-.5 1.4q0 1.2.9 1.8c.9.6 1.7.8 3.3 1.1 1.1.2 2.1.4 3.1.6s2 .5 3.2.9c2.2.7 3.9 1.7 4.9 3 1.1 1.3 1.6 2.9 1.6 4.9Z" fill="#ffffff"/>
        <path d="M963.8 1333.4h-21v-29.1h21v5.6h-13.6v5h12.6v5.6h-12.6v7.2h13.6v5.6Z" fill="#ffffff"/>
        <path d="M997.6 1318.9c0 2.7-.6 5.1-1.9 7.3-1.2 2.1-2.8 3.8-4.7 4.9-1.4.9-3 1.5-4.7 1.8s-3.7.5-6 .5H970v-29.1h10.5c2.4 0 4.4.2 6.1.6s3.2 1 4.3 1.7c2 1.2 3.6 2.9 4.7 5s1.7 4.5 1.7 7.3Zm-7.8 0c0-1.9-.3-3.6-1-4.9-.7-1.4-1.8-2.4-3.3-3.2-.8-.4-1.6-.6-2.4-.8s-2-.2-3.6-.2h-1.9v18.2h1.9c1.8 0 3.1 0 3.9-.2q1.2-.3 2.4-.9c1.4-.8 2.4-1.8 3-3.1s1-2.9 1-4.9" fill="#ffffff"/>
        <path d="M1033 1332.1c-1.2.6-2.4 1-3.5 1.4s-2.3.5-3.5.5-3-.2-4.3-.7-2.4-1.2-3.4-2.1-1.7-2.1-2.2-3.6-.8-3.1-.8-5c0-3.6 1-6.4 2.9-8.4s4.5-3 7.8-3 2.5.2 3.7.5 2.3.8 3.3 1.3v4.1h-.2c-1.1-.9-2.3-1.5-3.5-2s-2.4-.7-3.5-.7c-2.1 0-3.7.7-4.9 2.1s-1.8 3.5-1.8 6.2.6 4.7 1.8 6.1 2.8 2.1 5 2.1 1.5 0 2.3-.3 1.5-.4 2.1-.8l1.5-.9c.5-.3.8-.6 1.1-.8h.2v4Z" fill="#ffffff"/>
        <path d="M1055.8 1333.4h-3.7v-2.4c-1.2 1-2.4 1.7-3.6 2.2s-2.4.8-3.8.8q-3.45 0-5.4-2.1c-1.95-2.1-1.9-3.5-1.9-6.2v-14.2h3.7v12.4c0 1.1 0 2.1.2 2.8s.3 1.5.7 2c.4.6.8 1 1.4 1.2s1.4.4 2.4.4 2-.2 3.1-.7 2.2-1.1 3.2-1.9v-16.3h3.7v21.8Z" fill="#ffffff"/>
        <path d="M1078.6 1327.2c0 2-.8 3.6-2.5 4.9s-3.9 1.9-6.7 1.9-3.1-.2-4.4-.6-2.5-.8-3.4-1.3v-4.1h.2c1.2.9 2.4 1.6 3.9 2.1s2.8.8 4.1.8 2.9-.3 3.8-.8 1.4-1.3 1.4-2.5-.2-1.5-.7-2-1.4-.8-2.9-1.1c-.5-.1-1.2-.3-2-.4s-1.6-.3-2.3-.5c-1.9-.5-3.3-1.3-4.1-2.2s-1.2-2.2-1.2-3.6.2-1.7.6-2.5.9-1.5 1.7-2.1c.7-.6 1.7-1.1 2.8-1.5s2.4-.5 3.8-.5 2.6.2 4 .5 2.4.7 3.3 1.2v3.9h-.2c-.9-.7-2.1-1.3-3.4-1.7s-2.7-.7-3.9-.7-2.5.3-3.4.8-1.4 1.3-1.4 2.3.3 1.6.8 2c.5.5 1.4.8 2.7 1.1.7.2 1.4.3 2.3.5s1.5.3 2.1.4c1.7.4 3 1.1 3.9 2 .9 1 1.4 2.2 1.4 3.8Z" fill="#ffffff"/>
        <path d="M1095.2 1333.2c-.7.2-1.4.3-2.3.4s-1.5.2-2.2.2q-3.3 0-5.1-1.8c-1.8-1.8-1.7-3.1-1.7-5.8v-11.6h-2.5v-3.1h2.5v-6.3h3.7v6.3h7.6v3.1h-7.6v12.6c0 .7.2 1.2.5 1.8.3.5.7.9 1.2 1.1s1.3.4 2.3.4 1.2 0 1.9-.3 1.1-.3 1.4-.4h.2v3.3Z" fill="#ffffff"/>
        <path d="M1118.2 1322.5q0 5.4-2.7 8.4c-2.7 3-4.3 3.1-7.3 3.1s-5.5-1-7.4-3.1-2.7-4.9-2.7-8.4.9-6.4 2.7-8.4 4.3-3.1 7.4-3.1 5.5 1 7.3 3.1 2.7 4.9 2.7 8.4m-3.8 0c0-2.8-.6-4.9-1.7-6.3s-2.6-2.1-4.6-2.1-3.5.7-4.6 2.1-1.7 3.5-1.7 6.3.6 4.8 1.7 6.2 2.6 2.1 4.6 2.1 3.5-.7 4.6-2.1 1.7-3.5 1.7-6.2" fill="#ffffff"/>
        <path d="M1155.8 1333.4h-3.7V1321c0-.9 0-1.8-.1-2.7 0-.9-.3-1.6-.5-2.1-.3-.6-.7-1-1.3-1.3s-1.4-.4-2.4-.4-2.1.3-3.1.8-2.1 1.2-3.1 2v16.2h-3.7v-12.4c0-1 0-1.9-.1-2.7 0-.9-.3-1.6-.5-2.1-.3-.6-.7-1-1.3-1.3s-1.4-.4-2.4-.4-2 .2-3 .7-2 1.1-3 1.9v16.3h-3.7v-21.8h3.7v2.4c1.1-1 2.3-1.7 3.4-2.2s2.4-.8 3.6-.8 2.7.3 3.8.9 1.8 1.5 2.3 2.6c1.5-1.2 2.8-2.2 4.1-2.7 1.2-.6 2.5-.8 3.9-.8 2.4 0 4.2.7 5.3 2.2s1.7 3.5 1.7 6.1v14.2Z" fill="#ffffff"/>
        <path d="M1181.1 1322.9H1165c0 1.3.2 2.5.6 3.5s1 1.8 1.7 2.5c.7.6 1.5 1.1 2.4 1.4s2 .5 3.1.5 3-.3 4.5-.9 2.6-1.2 3.2-1.7h.2v4c-1.2.5-2.5 1-3.8 1.3s-2.6.5-4.1.5c-3.6 0-6.4-1-8.5-2.9s-3-4.7-3-8.3 1-6.4 2.9-8.5 4.5-3.1 7.7-3.1 5.2.9 6.8 2.6 2.4 4.2 2.4 7.3v2Zm-3.6-2.8q0-2.85-1.5-4.5c-1.5-1.65-2.4-1.6-4.4-1.6s-3.5.6-4.7 1.7-1.8 2.6-2 4.3h12.5Z" fill="#ffffff"/>
        <path d="M1200.3 1315.6h-.2c-.5-.1-1.1-.2-1.6-.3s-1.1 0-1.8 0c-1.1 0-2.2.3-3.3.8s-2.1 1.1-3 1.9v15.5h-3.7v-21.8h3.7v3.2c1.5-1.2 2.7-2 3.9-2.5s2.2-.7 3.4-.7h1.4c.3 0 .7 0 1.3.2v3.8Z" fill="#ffffff"/>
        <path d="M1236 1322.9h-16.1c0 1.3.2 2.5.6 3.5s1 1.8 1.7 2.5c.7.6 1.5 1.1 2.4 1.4s2 .5 3.1.5 3-.3 4.5-.9 2.6-1.2 3.2-1.7h.2v4c-1.2.5-2.5 1-3.8 1.3s-2.6.5-4.1.5c-3.6 0-6.4-1-8.5-2.9s-3-4.7-3-8.3 1-6.4 2.9-8.5 4.5-3.1 7.7-3.1 5.2.9 6.8 2.6 2.4 4.2 2.4 7.3v2Zm-3.5-2.8q0-2.85-1.5-4.5c-1.5-1.65-2.4-1.6-4.4-1.6s-3.5.6-4.7 1.7-1.8 2.6-2 4.3h12.5Z" fill="#ffffff"/>
        <path d="M1260.5 1333.4h-4.6l-6.2-8.4-6.2 8.4h-4.3l8.5-10.9-8.4-10.9h4.6l6.2 8.2 6.2-8.2h4.3l-8.6 10.7 8.6 11.1Z" fill="#ffffff"/>
        <path d="M1284.5 1322.3c0 1.8-.3 3.4-.8 4.9s-1.2 2.7-2.1 3.7-1.9 1.7-3 2.2-2.4.8-3.7.8-2.2-.1-3.1-.4-1.9-.6-2.8-1.2v9.1h-3.7v-29.9h3.7v2.3q1.5-1.2 3.3-2.1c1.8-.9 2.5-.8 3.9-.8 2.6 0 4.7 1 6.1 3s2.2 4.7 2.2 8.3Zm-3.8.1c0-2.6-.4-4.6-1.3-5.9s-2.3-2-4.1-2-2.1.2-3.2.7-2.1 1.1-3.1 1.8v12.4c1 .5 1.9.8 2.7 1s1.6.3 2.5.3q3 0 4.8-2.1c1.8-2.1 1.7-3.4 1.7-6.1Z" fill="#ffffff"/>
        <path d="M1308.5 1322.9h-16.1c0 1.3.2 2.5.6 3.5s1 1.8 1.7 2.5c.7.6 1.5 1.1 2.4 1.4s2 .5 3.1.5 3-.3 4.5-.9 2.6-1.2 3.2-1.7h.2v4c-1.2.5-2.5 1-3.8 1.3s-2.6.5-4.1.5c-3.6 0-6.4-1-8.5-2.9s-3-4.7-3-8.3 1-6.4 2.9-8.5 4.5-3.1 7.7-3.1 5.2.9 6.8 2.6 2.4 4.2 2.4 7.3v2Zm-3.6-2.8q0-2.85-1.5-4.5c-1.5-1.65-2.4-1.6-4.4-1.6s-3.5.6-4.7 1.7-1.8 2.6-2 4.3h12.5Z" fill="#ffffff"/>
        <path d="M1327.6 1315.6h-.2c-.5-.1-1.1-.2-1.6-.3s-1.1 0-1.8 0c-1.1 0-2.2.3-3.3.8s-2.1 1.1-3 1.9v15.5h-3.7v-21.8h3.7v3.2c1.5-1.2 2.7-2 3.9-2.5s2.2-.7 3.4-.7h1.4c.3 0 .7 0 1.3.2v3.8Z" fill="#ffffff"/>
        <path d="M1349.4 1322.9h-16.1c0 1.3.2 2.5.6 3.5s1 1.8 1.7 2.5c.7.6 1.5 1.1 2.4 1.4s2 .5 3.1.5 3-.3 4.5-.9 2.6-1.2 3.2-1.7h.2v4c-1.2.5-2.5 1-3.8 1.3s-2.6.5-4.1.5c-3.6 0-6.4-1-8.5-2.9s-3-4.7-3-8.3 1-6.4 2.9-8.5 4.5-3.1 7.7-3.1 5.2.9 6.8 2.6 2.4 4.2 2.4 7.3v2Zm-3.6-2.8q0-2.85-1.5-4.5c-1.5-1.65-2.4-1.6-4.4-1.6s-3.5.6-4.7 1.7-1.8 2.6-2 4.3h12.5Z" fill="#ffffff"/>
        <path d="M1373.2 1333.4h-3.7V1321c0-1 0-1.9-.2-2.8s-.3-1.6-.6-2.1-.8-1-1.4-1.2-1.4-.4-2.4-.4-2.1.2-3.1.7-2.1 1.1-3.1 1.9v16.3h-3.7v-21.8h3.7v2.4c1.1-1 2.3-1.7 3.6-2.2s2.5-.8 3.8-.8q3.6 0 5.4 2.1c1.8 2.1 1.9 3.5 1.9 6.1v14.2Z" fill="#ffffff"/>
        <path d="M1396.4 1332.1c-1.2.6-2.4 1-3.5 1.4s-2.3.5-3.5.5-3-.2-4.3-.7-2.4-1.2-3.4-2.1-1.7-2.1-2.2-3.6-.8-3.1-.8-5c0-3.6 1-6.4 2.9-8.4s4.5-3 7.8-3 2.5.2 3.7.5 2.3.8 3.3 1.3v4.1h-.2c-1.1-.9-2.3-1.5-3.5-2s-2.4-.7-3.5-.7c-2.1 0-3.7.7-4.9 2.1s-1.8 3.5-1.8 6.2.6 4.7 1.8 6.1 2.8 2.1 5 2.1 1.5 0 2.3-.3 1.5-.4 2.1-.8l1.5-.9c.5-.3.8-.6 1.1-.8h.2v4Z" fill="#ffffff"/>
        <path d="M1419.3 1322.9h-16.1c0 1.3.2 2.5.6 3.5s1 1.8 1.7 2.5c.7.6 1.5 1.1 2.4 1.4s2 .5 3.1.5 3-.3 4.5-.9 2.6-1.2 3.2-1.7h.2v4c-1.2.5-2.5 1-3.8 1.3s-2.6.5-4.1.5c-3.6 0-6.4-1-8.5-2.9s-3-4.7-3-8.3 1-6.4 2.9-8.5 4.5-3.1 7.7-3.1 5.2.9 6.8 2.6 2.4 4.2 2.4 7.3v2Zm-3.5-2.8q0-2.85-1.5-4.5c-1.5-1.65-2.4-1.6-4.4-1.6s-3.5.6-4.7 1.7-1.8 2.6-2 4.3h12.5Z" fill="#ffffff"/>
        <path stroke-width="3" fill="none" stroke-miterlimit="10" stroke="#ffffff" d="M770.1 907.3h425"/>
        <path stroke-width="3" fill="none" stroke-miterlimit="10" stroke="#ffffff" d="M675.5 1181.4h627.6"/>
        <path fill="none" stroke-miterlimit="10" stroke="#ffffff" stroke-width="2" d="M1243.6 1551.4v194.8"/>
        <path d="M329.7 1558.2h-9.1v23.5h-7.5v-23.5H304v-5.6h25.7z" fill="#ffffff"/>
        <path d="M362.2 1581.6H353l-7.9-10.7h-3.5v10.7h-7.5v-29.1h12.6c1.7 0 3.2 0 4.4.3 1.2.2 2.4.6 3.5 1.3s2 1.5 2.6 2.5 1 2.3 1 3.9-.5 3.9-1.5 5.3-2.4 2.5-4.3 3.4l9.7 12.5Zm-11.7-20.2c0-.7-.1-1.4-.4-1.9q-.45-.75-1.5-1.2c-.5-.2-1.1-.3-1.8-.4h-5.1v7.8h2.3c1.2 0 2.2 0 3-.2.8-.1 1.5-.4 2-.8s.9-.8 1.1-1.3.4-1.1.4-2" fill="#ffffff"/>
        <path d="M392.3 1581.6h-7.7l-2-5.9h-10.8l-2 5.9h-7.6l10.7-29.1h8.6l10.7 29.1Zm-11.5-11.2-3.6-10.4-3.6 10.4z" fill="#ffffff"/>
        <path d="M423 1581.6h-7.2l-12.3-20v20h-6.9v-29.1h9l10.6 16.7v-16.7h6.9v29.1Z" fill="#ffffff"/>
        <path d="M453.7 1572.5c0 2.9-1.2 5.2-3.6 7q-3.6 2.7-9.9 2.7c-6.3 0-4.5-.2-6.3-.6s-3.5-1-5-1.6v-7h.8c1.5 1.2 3.3 2.2 5.2 2.9s3.8 1 5.5 1 1.1 0 1.8-.1 1.3-.2 1.8-.4c.6-.2 1-.5 1.4-.9s.6-.9.6-1.6-.3-1.2-.8-1.7-1.3-.8-2.4-1.1-2.2-.5-3.5-.7c-1.2-.2-2.4-.5-3.4-.9-2.4-.8-4.2-1.9-5.3-3.2s-1.6-3-1.6-5.1 1.2-4.9 3.6-6.6 5.5-2.6 9.4-2.6 3.8.2 5.7.6 3.5.8 4.9 1.4v6.7h-.8c-1.2-.9-2.6-1.7-4.3-2.4s-3.4-.9-5.2-.9-1.2 0-1.9.1c-.6 0-1.2.2-1.8.5-.5.2-.9.5-1.3.9s-.5.8-.5 1.4q0 1.2.9 1.8c.9.6 1.7.8 3.3 1.1 1.1.2 2.1.4 3.1.6s2 .5 3.2.9c2.2.7 3.9 1.7 4.9 3 1.1 1.3 1.6 2.9 1.6 4.9Z" fill="#ffffff"/>
        <path d="M479.6 1558.2h-13.4v5.4h12.4v5.6h-12.4v12.4h-7.5v-29.1h20.8v5.6Z" fill="#ffffff"/>
        <path d="M513.1 1567.1c0 4.6-1.3 8.3-4 11s-6.3 4.1-11 4.1-8.3-1.4-11-4.1-4-6.4-4-11 1.3-8.4 4-11.1 6.3-4.1 11-4.1 8.3 1.4 11 4.1 4 6.4 4 11.1m-9.9 7.3c.7-.9 1.3-1.9 1.6-3.1s.5-2.6.5-4.2-.2-3.2-.6-4.5c-.4-1.2-.9-2.2-1.6-3s-1.4-1.3-2.3-1.7-1.8-.5-2.7-.5-1.8.2-2.7.5-1.6.9-2.3 1.7c-.7.7-1.2 1.7-1.6 3s-.6 2.8-.6 4.5.2 3.2.6 4.4.9 2.2 1.6 3 1.4 1.3 2.3 1.7 1.8.5 2.8.5 1.9-.2 2.8-.6 1.6-.9 2.3-1.7Z" fill="#ffffff"/>
        <path d="M546.8 1581.6h-9.2l-7.9-10.7h-3.5v10.7h-7.5v-29.1h12.6c1.7 0 3.2 0 4.4.3 1.2.2 2.4.6 3.5 1.3s2 1.5 2.6 2.5 1 2.3 1 3.9-.5 3.9-1.5 5.3-2.4 2.5-4.3 3.4l9.7 12.5Zm-11.7-20.2c0-.7-.1-1.4-.4-1.9q-.45-.75-1.5-1.2c-.5-.2-1.1-.3-1.8-.4h-5.1v7.8h2.3c1.2 0 2.2 0 3-.2.8-.1 1.5-.4 2-.8s.9-.8 1.1-1.3.4-1.1.4-2" fill="#ffffff"/>
        <path d="M580.6 1581.6h-7.5v-19.5l-5.4 12.6h-5.2l-5.4-12.6v19.5H550v-29.1h8.7l6.5 14.6 6.5-14.6h8.7v29.1Z" fill="#ffffff"/>
        <path d="M370.8 1618.7q0 5.4-2.7 8.4c-1.8 2.1-4.3 3.1-7.3 3.1s-5.5-1-7.4-3.1-2.7-4.9-2.7-8.4.9-6.4 2.7-8.4 4.3-3.1 7.4-3.1 5.5 1 7.3 3.1q2.7 3.15 2.7 8.4m-3.8 0c0-2.8-.6-4.9-1.7-6.3s-2.6-2.1-4.6-2.1-3.5.7-4.6 2.1-1.7 3.5-1.7 6.3.6 4.8 1.7 6.2 2.6 2.1 4.6 2.1 3.5-.7 4.6-2.1 1.7-3.5 1.7-6.2" fill="#ffffff"/>
        <path d="M395.6 1618.4c0 1.8-.3 3.4-.8 4.9s-1.2 2.7-2.1 3.7-1.9 1.7-3 2.2c-1.2.5-2.4.8-3.7.8s-2.2-.1-3.1-.4-1.9-.6-2.8-1.2v9.1h-3.7v-29.9h3.7v2.3q1.5-1.2 3.3-2.1c1.2-.6 2.5-.8 3.9-.8 2.6 0 4.7 1 6.1 3s2.2 4.7 2.2 8.3Zm-3.7.1c0-2.6-.4-4.6-1.3-5.9s-2.3-2-4.1-2-2.1.2-3.2.7-2.1 1.1-3.1 1.8v12.4c1 .5 1.9.8 2.7 1 .7.2 1.6.3 2.5.3q3 0 4.8-2.1c1.1-1.4 1.7-3.4 1.7-6.1Z" fill="#ffffff"/>
        <path d="M419.6 1619.1h-16.1c0 1.3.2 2.5.6 3.5s1 1.8 1.7 2.5c.7.6 1.5 1.1 2.4 1.4s2 .5 3.1.5 3-.3 4.5-.9 2.6-1.2 3.2-1.7h.2v4c-1.2.5-2.5 1-3.8 1.3s-2.6.5-4.1.5c-3.6 0-6.4-1-8.5-2.9s-3-4.7-3-8.3 1-6.4 2.9-8.5 4.5-3.1 7.7-3.1 5.2.9 6.8 2.6 2.4 4.2 2.4 7.3v2Zm-3.5-2.8q0-2.85-1.5-4.5c-1.5-1.65-2.4-1.6-4.4-1.6s-3.5.6-4.7 1.7c-1.2 1.2-1.8 2.6-2 4.3H416Z" fill="#ffffff"/>
        <path d="M438.8 1611.8h-.2c-.5-.1-1.1-.2-1.6-.3h-1.8c-1.1 0-2.2.3-3.3.8s-2.1 1.1-3 1.9v15.5h-3.7v-21.8h3.7v3.2c1.5-1.2 2.7-2 3.9-2.5s2.2-.7 3.4-.7h1.4c.3 0 .7 0 1.3.2v3.8Z" fill="#ffffff"/>
        <path d="M458.5 1629.6h-3.7v-2.3c-.3.2-.8.5-1.3.9-.6.4-1.1.7-1.6.9-.6.3-1.3.5-2.1.8-.8.2-1.7.3-2.8.3-2 0-3.6-.7-5-2s-2.1-3-2.1-5 .4-3 1.1-4q1.05-1.5 3-2.4t4.8-1.2c1.9-.2 3.9-.4 6-.5v-.6c0-.8-.1-1.5-.4-2.1s-.7-1-1.3-1.3c-.5-.3-1.1-.5-1.9-.6-.7-.1-1.5-.2-2.3-.2s-2 .1-3.2.4-2.4.6-3.7 1.1h-.2v-3.7c.7-.2 1.8-.4 3.1-.6 1.4-.2 2.7-.4 4-.4s2.9.1 4 .4 2.1.7 3 1.3c.8.6 1.4 1.4 1.9 2.3s.6 2.1.6 3.5v14.8Zm-3.6-5.4v-6.1c-1.1 0-2.4.2-4 .3q-2.25.15-3.6.6c-1.1.3-1.9.8-2.6 1.4s-1 1.5-1 2.6.4 2.2 1.1 2.8c.8.6 1.9.9 3.5.9s2.5-.3 3.5-.8q1.65-.75 3-1.8Z" fill="#ffffff"/>
        <path d="M476.9 1629.4c-.7.2-1.4.3-2.3.4-.8.1-1.5.2-2.2.2q-3.3 0-5.1-1.8c-1.2-1.2-1.7-3.1-1.7-5.8v-11.6h-2.5v-3.1h2.5v-6.3h3.7v6.3h7.6v3.1h-7.6v12.6c0 .6.2 1.2.5 1.8.3.5.7.9 1.2 1.1s1.3.4 2.3.4 1.2 0 1.9-.3c.7-.2 1.1-.3 1.4-.4h.2v3.3Z" fill="#ffffff"/>
        <path d="M485.3 1604.1h-4.1v-3.8h4.1zm-.2 25.5h-3.7v-21.8h3.7z" fill="#ffffff"/>
        <path d="M510.6 1629.6h-3.7v-12.4c0-1 0-1.9-.2-2.8s-.3-1.6-.6-2.1-.8-1-1.4-1.2c-.6-.3-1.4-.4-2.4-.4s-2.1.2-3.1.7-2.1 1.1-3.1 1.9v16.3h-3.7v-21.8h3.7v2.4c1.1-1 2.3-1.7 3.6-2.2 1.2-.5 2.5-.8 3.8-.8q3.6 0 5.4 2.1c1.2 1.4 1.9 3.5 1.9 6.1v14.2Z" fill="#ffffff"/>
        <path d="M535.3 1627.1c0 3.7-.8 6.4-2.5 8.1s-4.3 2.6-7.8 2.6-2.3 0-3.4-.2-2.2-.4-3.3-.7v-3.8h.2c.6.2 1.5.5 2.9.9 1.3.3 2.6.5 3.9.5s2.3-.2 3.1-.4c.8-.3 1.5-.7 1.9-1.2.5-.5.8-1.1 1-1.8q.3-1.05.3-2.4v-2c-1.1.9-2.2 1.5-3.2 2-1 .4-2.3.7-3.9.7-2.6 0-4.7-.9-6.2-2.8s-2.3-4.5-2.3-8 .3-3.5.8-4.9 1.2-2.5 2.2-3.5c.8-.9 1.9-1.6 3.1-2.2s2.4-.8 3.6-.8 2.3.1 3.2.4 1.8.6 2.7 1.2l.2-.9h3.4v19.3Zm-3.6-3.5v-11.9c-1-.4-1.9-.8-2.7-.9s-1.7-.3-2.5-.3c-2 0-3.6.7-4.8 2-1.2 1.4-1.7 3.3-1.7 5.9s.4 4.3 1.3 5.6 2.3 1.9 4.3 1.9 2.1-.2 3.2-.6 2.1-1 3-1.7Z" fill="#ffffff"/>
        <path d="M417.7 1677.6H414v-12.4c0-.9 0-1.8-.1-2.7 0-.9-.3-1.6-.5-2.1-.3-.6-.7-1-1.3-1.3s-1.4-.4-2.4-.4-2.1.3-3.1.8-2.1 1.2-3.1 2v16.2h-3.7v-12.4c0-1 0-1.9-.1-2.7 0-.9-.3-1.6-.5-2.1-.3-.6-.7-1-1.3-1.3s-1.4-.4-2.4-.4-2 .2-3 .7-2 1.1-3 1.9v16.3h-3.7v-21.8h3.7v2.4c1.1-1 2.3-1.7 3.4-2.2s2.4-.8 3.6-.8 2.7.3 3.8.9 1.8 1.5 2.3 2.6c1.5-1.2 2.8-2.2 4.1-2.7 1.2-.6 2.5-.8 3.9-.8 2.4 0 4.2.7 5.3 2.2s1.7 3.5 1.7 6.1v14.2Z" fill="#ffffff"/>
        <path d="M443.4 1666.7q0 5.4-2.7 8.4c-1.8 2.1-4.3 3.1-7.3 3.1s-5.5-1-7.4-3.1-2.7-4.9-2.7-8.4.9-6.4 2.7-8.4 4.3-3.1 7.4-3.1 5.5 1 7.3 3.1q2.7 3.15 2.7 8.4m-3.8 0c0-2.8-.6-4.9-1.7-6.3s-2.6-2.1-4.6-2.1-3.5.7-4.6 2.1-1.7 3.5-1.7 6.3.6 4.8 1.7 6.2 2.6 2.1 4.6 2.1 3.5-.7 4.6-2.1 1.7-3.5 1.7-6.2" fill="#ffffff"/>
        <path d="M466.8 1677.6h-3.7v-2.3q-1.65 1.35-3.3 2.1c-1.1.5-2.4.8-3.7.8-2.6 0-4.7-1-6.2-3s-2.3-4.8-2.3-8.3.3-3.5.8-4.9 1.2-2.7 2.1-3.7 1.9-1.7 3.1-2.3c1.2-.5 2.4-.8 3.7-.8s2.2.1 3 .4c.9.2 1.8.6 2.8 1.1v-9.5h3.7zm-3.7-5.4v-12.5q-1.5-.6-2.7-.9c-1.2-.3-1.6-.3-2.6-.3q-3.15 0-4.8 2.1c-1.1 1.4-1.7 3.5-1.7 6.1s.4 4.6 1.3 5.9 2.3 2 4.3 2 2.1-.2 3.2-.7q1.65-.75 3-1.8Z" fill="#ffffff"/>
        <path d="M492.3 1667.1h-16.1c0 1.3.2 2.5.6 3.5s1 1.8 1.7 2.5c.7.6 1.5 1.1 2.4 1.4s2 .5 3.1.5 3-.3 4.5-.9 2.6-1.2 3.2-1.7h.2v4c-1.2.5-2.5 1-3.8 1.3s-2.6.5-4.1.5c-3.6 0-6.4-1-8.5-2.9s-3-4.7-3-8.3 1-6.4 2.9-8.5 4.5-3.1 7.7-3.1 5.2.9 6.8 2.6 2.4 4.2 2.4 7.3v2Zm-3.6-2.8q0-2.85-1.5-4.5c-1.5-1.65-2.4-1.6-4.4-1.6s-3.5.6-4.7 1.7c-1.2 1.2-1.8 2.6-2 4.3h12.5Z" fill="#ffffff"/>
        <path d="M501.6 1677.6h-3.7v-30.4h3.7z" fill="#ffffff"/>
        <path d="M732.4 1558.2H719v5.4h12.4v5.6H719v12.4h-7.5v-29.1h20.8v5.6Z" fill="#ffffff"/>
        <path d="M765.8 1567.1c0 4.6-1.3 8.3-4 11s-6.3 4.1-11 4.1-8.3-1.4-11-4.1-4-6.4-4-11 1.3-8.4 4-11.1 6.3-4.1 11-4.1 8.3 1.4 11 4.1 4 6.4 4 11.1m-9.9 7.3c.7-.9 1.3-1.9 1.6-3.1.4-1.2.5-2.6.5-4.2s-.2-3.2-.6-4.5c-.4-1.2-.9-2.2-1.6-3s-1.4-1.3-2.3-1.7-1.8-.5-2.7-.5-1.8.2-2.7.5c-.8.3-1.6.9-2.3 1.7-.7.7-1.2 1.7-1.6 3q-.6 1.95-.6 4.5c0 2.55.2 3.2.6 4.4s.9 2.2 1.6 3 1.4 1.3 2.3 1.7 1.8.5 2.8.5 1.9-.2 2.8-.6 1.6-.9 2.3-1.7Z" fill="#ffffff"/>
        <path d="M784.7 1582.2c-2.2 0-4.2-.3-6-1-1.8-.6-3.4-1.6-4.7-2.9s-2.3-2.8-3.1-4.7c-.7-1.9-1.1-4.1-1.1-6.5s.3-4.4 1-6.3q1.05-2.85 3-4.8c1.3-1.3 2.8-2.3 4.7-3s3.9-1.1 6.1-1.1 2.3 0 3.3.2c1 .1 1.9.3 2.7.5.9.2 1.7.5 2.4.8s1.3.6 1.9.8v7.1h-.9c-.4-.3-.8-.7-1.4-1.1s-1.2-.8-1.9-1.3c-.7-.4-1.5-.8-2.3-1-.8-.3-1.7-.4-2.7-.4s-2.1.2-3 .5c-1 .3-1.8.9-2.6 1.6s-1.4 1.7-1.9 2.9-.7 2.7-.7 4.4.3 3.3.8 4.6c.5 1.2 1.2 2.2 1.9 2.9q1.2 1.05 2.7 1.5c1 .3 1.9.5 2.9.5s1.8-.1 2.7-.4 1.7-.6 2.5-1.1l1.8-1.2c.5-.4 1-.8 1.3-1.1h.8v7l-2.1.9c-.7.3-1.4.5-2.1.7-1 .3-1.8.5-2.7.6-.8.1-2 .2-3.4.2Z" fill="#ffffff"/>
        <path d="M826 1571.1c0 3.6-1.1 6.3-3.3 8.3s-5.4 2.9-9.7 2.9-7.5-1-9.7-2.9-3.3-4.7-3.3-8.2v-18.6h7.5v18.1c0 2 .4 3.5 1.3 4.5.8 1 2.2 1.5 4.1 1.5s3.2-.5 4.1-1.4c.9-1 1.3-2.5 1.3-4.6v-18.1h7.5v18.6Z" fill="#ffffff"/>
        <path d="M856.3 1572.5c0 2.9-1.2 5.2-3.6 7q-3.6 2.7-9.9 2.7c-6.3 0-4.5-.2-6.3-.6s-3.5-1-5-1.6v-7h.8c1.5 1.2 3.3 2.2 5.2 2.9s3.8 1 5.5 1 1.1 0 1.8-.1 1.3-.2 1.8-.4c.6-.2 1-.5 1.4-.9s.6-.9.6-1.6-.3-1.2-.8-1.7-1.3-.8-2.4-1.1-2.2-.5-3.5-.7c-1.2-.2-2.4-.5-3.4-.9-2.4-.8-4.2-1.9-5.3-3.2-1.1-1.4-1.6-3-1.6-5.1s1.2-4.9 3.6-6.6 5.5-2.6 9.4-2.6 3.8.2 5.7.6 3.5.8 4.9 1.4v6.7h-.8c-1.2-.9-2.6-1.7-4.3-2.4-1.7-.6-3.4-.9-5.2-.9s-1.2 0-1.9.1c-.6 0-1.2.2-1.8.5-.5.2-.9.5-1.3.9s-.5.8-.5 1.4q0 1.2.9 1.8c.9.6 1.7.8 3.3 1.1 1.1.2 2.1.4 3.1.6s2 .5 3.2.9c2.2.7 3.9 1.7 4.9 3 1.1 1.3 1.6 2.9 1.6 4.9Z" fill="#ffffff"/>
        <path d="M737.7 1618.7q0 5.4-2.7 8.4c-1.8 2.1-4.3 3.1-7.3 3.1s-5.5-1-7.4-3.1q-2.7-3.15-2.7-8.4c0-5.25.9-6.4 2.7-8.4 1.8-2.1 4.3-3.1 7.4-3.1s5.5 1 7.3 3.1q2.7 3.15 2.7 8.4m-3.7 0c0-2.8-.6-4.9-1.7-6.3s-2.6-2.1-4.6-2.1-3.5.7-4.6 2.1-1.7 3.5-1.7 6.3.6 4.8 1.7 6.2 2.6 2.1 4.6 2.1 3.5-.7 4.6-2.1 1.7-3.5 1.7-6.2" fill="#ffffff"/>
        <path d="M761.7 1629.6H758v-12.4c0-1 0-1.9-.2-2.8s-.3-1.6-.6-2.1-.8-1-1.4-1.2c-.6-.3-1.4-.4-2.4-.4s-2.1.2-3.1.7c-1.1.5-2.1 1.1-3.1 1.9v16.3h-3.7v-21.8h3.7v2.4c1.1-1 2.3-1.7 3.6-2.2 1.2-.5 2.5-.8 3.8-.8q3.6 0 5.4 2.1c1.2 1.4 1.9 3.5 1.9 6.1v14.2Z" fill="#ffffff"/>
        <path d="M802.6 1629.6h-4.8l-8.8-9.6-2.4 2.3v7.3h-3.7v-30.4h3.7v19.5l10.6-10.9h4.6l-10.1 10.1z" fill="#ffffff"/>
        <path d="M824.3 1619.1h-16.1c0 1.3.2 2.5.6 3.5s1 1.8 1.7 2.5c.7.6 1.5 1.1 2.4 1.4s2 .5 3.1.5 3-.3 4.5-.9 2.6-1.2 3.2-1.7h.2v4c-1.2.5-2.5 1-3.8 1.3s-2.6.5-4.1.5c-3.6 0-6.4-1-8.5-2.9-2-2-3-4.7-3-8.3s1-6.4 2.9-8.5 4.5-3.1 7.7-3.1 5.2.9 6.8 2.6 2.4 4.2 2.4 7.3v2Zm-3.5-2.8q0-2.85-1.5-4.5c-1.5-1.65-2.4-1.6-4.4-1.6s-3.5.6-4.7 1.7c-1.2 1.2-1.8 2.6-2 4.3h12.5Z" fill="#ffffff"/>
        <path d="m848.8 1607.8-12.7 29.9h-3.9l4.1-9.1-8.7-20.8h4l6.7 16.2 6.8-16.2h3.8Z" fill="#ffffff"/>
        <path d="M729.1 1677.6h-3.7v-12.4c0-.9 0-1.8-.1-2.7 0-.9-.3-1.6-.5-2.1-.3-.6-.7-1-1.3-1.3s-1.4-.4-2.4-.4-2.1.3-3.1.8-2.1 1.2-3.1 2v16.2h-3.7v-12.4c0-1 0-1.9-.1-2.7 0-.9-.3-1.6-.5-2.1-.3-.6-.7-1-1.3-1.3s-1.4-.4-2.4-.4-2 .2-3 .7-2 1.1-3 1.9v16.3h-3.7v-21.8h3.7v2.4c1.1-1 2.3-1.7 3.4-2.2s2.4-.8 3.6-.8 2.7.3 3.8.9 1.8 1.5 2.3 2.6c1.5-1.2 2.8-2.2 4.1-2.7 1.2-.6 2.5-.8 3.9-.8 2.4 0 4.2.7 5.3 2.2s1.7 3.5 1.7 6.1v14.2Z" fill="#ffffff"/>
        <path d="M753.1 1677.6h-3.7v-2.3c-.3.2-.8.5-1.3.9-.6.4-1.1.7-1.6.9-.6.3-1.3.5-2.1.8-.8.2-1.7.3-2.8.3-2 0-3.6-.7-5-2s-2.1-3-2.1-5 .4-3 1.1-4q1.05-1.5 3-2.4t4.8-1.2c1.9-.2 3.9-.4 6-.5v-.6c0-.8-.1-1.5-.4-2.1s-.7-1-1.3-1.3c-.5-.3-1.1-.5-1.9-.6-.7-.1-1.5-.2-2.3-.2s-2 .1-3.2.4-2.4.6-3.7 1.1h-.2v-3.7c.7-.2 1.8-.4 3.1-.6 1.4-.2 2.7-.4 4-.4s2.9.1 4 .4 2.1.7 3 1.3c.8.6 1.4 1.4 1.9 2.3.4 1 .6 2.1.6 3.5v14.8Zm-3.7-5.4v-6.1c-1.1 0-2.4.2-4 .3q-2.25.15-3.6.6c-1.1.3-1.9.8-2.6 1.4s-1 1.5-1 2.6.4 2.2 1.1 2.8c.8.6 1.9.9 3.5.9s2.5-.2 3.5-.8q1.65-.75 3-1.8Z" fill="#ffffff"/>
        <path d="M773.8 1659.8h-.2c-.5-.1-1.1-.2-1.6-.3h-1.8c-1.1 0-2.2.3-3.3.8s-2.1 1.1-3 1.9v15.5h-3.7v-21.8h3.7v3.2c1.5-1.2 2.7-2 3.9-2.5s2.2-.7 3.4-.7h1.4c.3 0 .7 0 1.3.2v3.8Z" fill="#ffffff"/>
        <path d="M797 1677.6h-4.8l-8.8-9.6-2.4 2.3v7.3h-3.7v-30.4h3.7v19.5l10.6-10.9h4.6l-10.1 10.1z" fill="#ffffff"/>
        <path d="M818.8 1667.1h-16.1c0 1.3.2 2.5.6 3.5s1 1.8 1.7 2.5c.7.6 1.5 1.1 2.4 1.4s2 .5 3.1.5 3-.3 4.5-.9 2.6-1.2 3.2-1.7h.2v4c-1.2.5-2.5 1-3.8 1.3s-2.6.5-4.1.5c-3.6 0-6.4-1-8.5-2.9-2-2-3-4.7-3-8.3s1-6.4 2.9-8.5 4.5-3.1 7.7-3.1 5.2.9 6.8 2.6 2.4 4.2 2.4 7.3v2Zm-3.6-2.8q0-2.85-1.5-4.5c-1.5-1.65-2.4-1.6-4.4-1.6s-3.5.6-4.7 1.7c-1.2 1.2-1.8 2.6-2 4.3h12.5Z" fill="#ffffff"/>
        <path d="M835.7 1677.4c-.7.2-1.4.3-2.3.4-.8.1-1.5.2-2.2.2q-3.3 0-5.1-1.8c-1.2-1.2-1.7-3.1-1.7-5.8v-11.6h-2.5v-3.1h2.5v-6.3h3.7v6.3h7.6v3.1h-7.6v12.6c0 .6.2 1.2.5 1.8.3.5.7.9 1.2 1.1s1.3.4 2.3.4 1.2 0 1.9-.3c.7-.2 1.1-.3 1.4-.4h.2v3.3Z" fill="#ffffff"/>
        <path d="M855.7 1671.3c0 2-.8 3.6-2.5 4.9-1.6 1.3-3.9 1.9-6.7 1.9s-3.1-.2-4.4-.6-2.5-.8-3.4-1.3v-4.1h.2c1.2.9 2.4 1.6 3.9 2.1 1.4.5 2.8.8 4.1.8s2.9-.3 3.8-.8 1.4-1.3 1.4-2.5-.2-1.5-.7-2c-.5-.4-1.4-.8-2.9-1.1-.5-.1-1.2-.3-2-.4s-1.6-.3-2.3-.5c-1.9-.5-3.3-1.3-4.1-2.2q-1.2-1.5-1.2-3.6c0-2.1.2-1.7.6-2.5s.9-1.5 1.7-2.1c.7-.6 1.7-1.1 2.8-1.5s2.4-.5 3.8-.5 2.6.2 4 .5q1.95.45 3.3 1.2v3.9h-.2c-.9-.7-2.1-1.3-3.4-1.7-1.3-.5-2.7-.7-3.9-.7s-2.5.3-3.4.8-1.4 1.3-1.4 2.3.3 1.6.8 2c.5.5 1.4.8 2.7 1.1.7.2 1.4.3 2.3.5s1.5.3 2.1.4c1.7.4 3 1.1 3.9 2 .9 1 1.4 2.2 1.4 3.8Z" fill="#ffffff"/>
        <path d="m868.6 1672.1-5.5 12.8h-2.9l3.4-12.8z" fill="#ffffff"/>
        <path d="M684.2 1725.4c-.7.2-1.4.3-2.3.4-.8.1-1.5.2-2.2.2q-3.3 0-5.1-1.8c-1.2-1.2-1.7-3.1-1.7-5.8v-11.6h-2.5v-3.1h2.5v-6.3h3.7v6.3h7.6v3.1h-7.6v12.6c0 .6.2 1.2.5 1.8.3.5.7.9 1.2 1.1s1.3.4 2.3.4 1.2 0 1.9-.3c.7-.2 1.1-.3 1.4-.4h.2v3.3Z" fill="#ffffff"/>
        <path d="M706.9 1725.6h-3.7v-12.4c0-1 0-1.9-.2-2.8s-.3-1.6-.6-2.1-.8-1-1.4-1.2c-.6-.3-1.4-.4-2.4-.4s-2.1.2-3.1.7c-1.1.5-2.1 1.1-3.1 1.9v16.3h-3.7v-30.4h3.7v11c1.1-1 2.3-1.7 3.6-2.2 1.2-.5 2.5-.8 3.8-.8q3.6 0 5.4 2.1c1.2 1.4 1.9 3.5 1.9 6.1v14.2Z" fill="#ffffff"/>
        <path d="M732.2 1715.1h-16.1c0 1.3.2 2.5.6 3.5s1 1.8 1.7 2.5c.7.6 1.5 1.1 2.4 1.4s2 .5 3.1.5 3-.3 4.5-.9 2.6-1.2 3.2-1.7h.2v4c-1.2.5-2.5 1-3.8 1.3s-2.6.5-4.1.5c-3.6 0-6.4-1-8.5-2.9-2-2-3-4.7-3-8.3s1-6.4 2.9-8.5 4.5-3.1 7.7-3.1 5.2.9 6.8 2.6 2.4 4.2 2.4 7.3v2Zm-3.5-2.8q0-2.85-1.5-4.5c-1.5-1.65-2.4-1.6-4.4-1.6s-3.5.6-4.7 1.7c-1.2 1.2-1.8 2.6-2 4.3h12.5Z" fill="#ffffff"/>
        <path d="M751.4 1707.8h-.2c-.5-.1-1.1-.2-1.6-.3h-1.8c-1.1 0-2.2.3-3.3.8s-2.1 1.1-3 1.9v15.5h-3.7v-21.8h3.7v3.2c1.5-1.2 2.7-2 3.9-2.5s2.2-.7 3.4-.7h1.4c.3 0 .7 0 1.3.2v3.8Z" fill="#ffffff"/>
        <path d="M771.1 1725.6h-3.7v-2.3c-.3.2-.8.5-1.3.9-.6.4-1.1.7-1.6.9-.6.3-1.3.5-2.1.8-.8.2-1.7.3-2.8.3-2 0-3.6-.7-5-2s-2.1-3-2.1-5 .4-3 1.1-4q1.05-1.5 3-2.4t4.8-1.2c1.9-.2 3.9-.4 6-.5v-.6c0-.8-.1-1.5-.4-2.1s-.7-1-1.3-1.3c-.5-.3-1.1-.5-1.9-.6-.7-.1-1.5-.2-2.3-.2s-2 .1-3.2.4-2.4.6-3.7 1.1h-.2v-3.7c.7-.2 1.8-.4 3.1-.6 1.4-.2 2.7-.4 4-.4s2.9.1 4 .4 2.1.7 3 1.3c.8.6 1.4 1.4 1.9 2.3.4 1 .6 2.1.6 3.5v14.8Zm-3.6-5.4v-6.1c-1.1 0-2.4.2-4 .3q-2.25.15-3.6.6c-1.1.3-1.9.8-2.6 1.4s-1 1.5-1 2.6.4 2.2 1.1 2.8c.8.6 1.9.9 3.5.9s2.5-.2 3.5-.8q1.65-.75 3-1.8Z" fill="#ffffff"/>
        <path d="M797.4 1714.4c0 1.8-.3 3.4-.8 4.9s-1.2 2.7-2.1 3.7-1.9 1.7-3 2.2c-1.2.5-2.4.8-3.7.8s-2.2-.1-3.1-.4-1.9-.6-2.8-1.2v9.1h-3.7v-29.9h3.7v2.3q1.5-1.2 3.3-2.1c1.2-.6 2.5-.8 3.9-.8 2.6 0 4.7 1 6.1 3 1.5 2 2.2 4.7 2.2 8.3Zm-3.8.1c0-2.6-.4-4.6-1.3-5.9s-2.3-2-4.1-2-2.1.2-3.2.7-2.1 1.1-3.1 1.8v12.4c1 .5 1.9.8 2.7 1 .7.2 1.6.3 2.5.3q3 0 4.8-2.1c1.1-1.4 1.7-3.4 1.7-6.1Z" fill="#ffffff"/>
        <path d="M821.4 1715.1h-16.1c0 1.3.2 2.5.6 3.5s1 1.8 1.7 2.5c.7.6 1.5 1.1 2.4 1.4s2 .5 3.1.5 3-.3 4.5-.9 2.6-1.2 3.2-1.7h.2v4c-1.2.5-2.5 1-3.8 1.3s-2.6.5-4.1.5c-3.6 0-6.4-1-8.5-2.9-2-2-3-4.7-3-8.3s1-6.4 2.9-8.5 4.5-3.1 7.7-3.1 5.2.9 6.8 2.6 2.4 4.2 2.4 7.3v2Zm-3.6-2.8q0-2.85-1.5-4.5c-1.5-1.65-2.4-1.6-4.4-1.6s-3.5.6-4.7 1.7c-1.2 1.2-1.8 2.6-2 4.3h12.5Z" fill="#ffffff"/>
        <path d="M845 1725.6h-3.7v-2.4c-1.2 1-2.4 1.7-3.6 2.2s-2.4.8-3.8.8q-3.45 0-5.4-2.1c-1.3-1.4-1.9-3.5-1.9-6.2v-14.2h3.7v12.4c0 1.1 0 2.1.2 2.8.1.8.3 1.5.7 2 .4.6.8 1 1.4 1.2.6.3 1.4.4 2.4.4s2-.2 3.1-.7 2.2-1.1 3.2-1.9v-16.3h3.7v21.8Z" fill="#ffffff"/>
        <path d="M863.6 1725.4c-.7.2-1.4.3-2.3.4-.8.1-1.5.2-2.2.2q-3.3 0-5.1-1.8c-1.2-1.2-1.7-3.1-1.7-5.8v-11.6h-2.5v-3.1h2.5v-6.3h3.7v6.3h7.6v3.1H856v12.6c0 .6.2 1.2.5 1.8.3.5.7.9 1.2 1.1s1.3.4 2.3.4 1.2 0 1.9-.3c.7-.2 1.1-.3 1.4-.4h.2v3.3Z" fill="#ffffff"/>
        <path d="M872 1700.1h-4.1v-3.8h4.1zm-.3 25.5H868v-21.8h3.7z" fill="#ffffff"/>
        <path d="M895.1 1724.2c-1.2.6-2.4 1-3.5 1.4-1.1.3-2.3.5-3.5.5s-3-.2-4.3-.7-2.4-1.2-3.4-2.1-1.7-2.1-2.2-3.6c-.5-1.4-.8-3.1-.8-5 0-3.6 1-6.4 2.9-8.4 2-2 4.5-3 7.8-3s2.5.2 3.7.5c1.2.4 2.3.8 3.3 1.3v4.1h-.2c-1.1-.9-2.3-1.5-3.5-2s-2.4-.7-3.5-.7c-2.1 0-3.7.7-4.9 2.1s-1.8 3.5-1.8 6.2.6 4.7 1.8 6.1 2.8 2.1 5 2.1 1.5 0 2.3-.3c.8-.2 1.5-.4 2.1-.8l1.5-.9c.5-.3.8-.6 1.1-.8h.2v4Z" fill="#ffffff"/>
        <path d="M726.9 1773.6h-3.7v-2.3c-.3.2-.8.5-1.3.9-.6.4-1.1.7-1.6.9-.6.3-1.3.5-2.1.8-.8.2-1.7.3-2.8.3-2 0-3.6-.7-5-2s-2.1-3-2.1-5 .4-3 1.1-4q1.05-1.5 3-2.4t4.8-1.2c1.9-.2 3.9-.4 6-.5v-.6c0-.8-.1-1.5-.4-2.1s-.7-1-1.3-1.3c-.5-.3-1.1-.5-1.9-.6-.7-.1-1.5-.2-2.3-.2s-2 .1-3.2.4-2.4.6-3.7 1.1h-.2v-3.7c.7-.2 1.8-.4 3.1-.6 1.4-.2 2.7-.4 4-.4s2.9.1 4 .4 2.1.7 3 1.3c.8.6 1.4 1.4 1.9 2.3.4 1 .6 2.1.6 3.5v14.8Zm-3.7-5.4v-6.1c-1.1 0-2.4.2-4 .3q-2.25.15-3.6.6c-1.1.3-1.9.8-2.6 1.4s-1 1.5-1 2.6.4 2.2 1.1 2.8c.8.6 1.9.9 3.5.9s2.5-.2 3.5-.8q1.65-.75 3-1.8Z" fill="#ffffff"/>
        <path d="M747.5 1755.8h-.2c-.5-.1-1.1-.2-1.6-.3h-1.8c-1.1 0-2.2.3-3.3.8s-2.1 1.1-3 1.9v15.5h-3.7v-21.8h3.7v3.2c1.5-1.2 2.7-2 3.9-2.5s2.2-.7 3.4-.7h1.4c.3 0 .7 0 1.3.2v3.8Z" fill="#ffffff"/>
        <path d="M769.3 1763.1h-16.1c0 1.3.2 2.5.6 3.5s1 1.8 1.7 2.5c.7.6 1.5 1.1 2.4 1.4s2 .5 3.1.5 3-.3 4.5-.9 2.6-1.2 3.2-1.7h.2v4c-1.2.5-2.5 1-3.8 1.3s-2.6.5-4.1.5c-3.6 0-6.4-1-8.5-2.9-2-2-3-4.7-3-8.3s1-6.4 2.9-8.5 4.5-3.1 7.7-3.1 5.2.9 6.8 2.6 2.4 4.2 2.4 7.3v2Zm-3.6-2.8q0-2.85-1.5-4.5c-1.5-1.65-2.4-1.6-4.4-1.6s-3.5.6-4.7 1.7c-1.2 1.2-1.8 2.6-2 4.3h12.5Z" fill="#ffffff"/>
        <path d="M791.8 1773.6h-3.7v-2.3c-.3.2-.8.5-1.3.9-.6.4-1.1.7-1.6.9-.6.3-1.3.5-2.1.8-.8.2-1.7.3-2.8.3-2 0-3.6-.7-5-2s-2.1-3-2.1-5 .4-3 1.1-4q1.05-1.5 3-2.4t4.8-1.2c1.9-.2 3.9-.4 6-.5v-.6c0-.8-.1-1.5-.4-2.1s-.7-1-1.3-1.3c-.5-.3-1.1-.5-1.9-.6-.7-.1-1.5-.2-2.3-.2s-2 .1-3.2.4-2.4.6-3.7 1.1h-.2v-3.7c.7-.2 1.8-.4 3.1-.6 1.4-.2 2.7-.4 4-.4s2.9.1 4 .4 2.1.7 3 1.3c.8.6 1.4 1.4 1.9 2.3.4 1 .6 2.1.6 3.5v14.8Zm-3.7-5.4v-6.1c-1.1 0-2.4.2-4 .3q-2.25.15-3.6.6c-1.1.3-1.9.8-2.6 1.4s-1 1.5-1 2.6.4 2.2 1.1 2.8c.8.6 1.9.9 3.5.9s2.5-.2 3.5-.8q1.65-.75 3-1.8Z" fill="#ffffff"/>
        <path d="M814.4 1767.3c0 2-.8 3.6-2.5 4.9-1.6 1.3-3.9 1.9-6.7 1.9s-3.1-.2-4.4-.6-2.5-.8-3.4-1.3v-4.1h.2c1.2.9 2.4 1.6 3.9 2.1 1.4.5 2.8.8 4.1.8s2.9-.3 3.8-.8 1.4-1.3 1.4-2.5-.2-1.5-.7-2c-.5-.4-1.4-.8-2.9-1.1-.5-.1-1.2-.3-2-.4s-1.6-.3-2.3-.5c-1.9-.5-3.3-1.3-4.1-2.2q-1.2-1.5-1.2-3.6c0-2.1.2-1.7.6-2.5s.9-1.5 1.7-2.1c.7-.6 1.7-1.1 2.8-1.5s2.4-.5 3.8-.5 2.6.2 4 .5q1.95.45 3.3 1.2v3.9h-.2c-.9-.7-2.1-1.3-3.4-1.7-1.3-.5-2.7-.7-3.9-.7s-2.5.3-3.4.8-1.4 1.3-1.4 2.3.3 1.6.8 2c.5.5 1.4.8 2.7 1.1.7.2 1.4.3 2.3.5s1.5.3 2.1.4c1.7.4 3 1.1 3.9 2 .9 1 1.4 2.2 1.4 3.8Z" fill="#ffffff"/>
        <path d="M855.3 1755.9v1.9c0 1.2-.2 2.7-.5 4.2-.3 1.6-.9 3.1-1.7 4.5l7.4 7.2h-4.8l-4.5-4.4c-1.5 1.8-3 3.1-4.6 3.9s-3.2 1.1-4.8 1.1c-2.7 0-5-.8-6.7-2.4-1.8-1.6-2.7-3.7-2.7-6.2s.2-2.2.5-3.1.7-1.6 1.2-2.3c.5-.6 1-1.2 1.7-1.7s1.4-1 2.1-1.4c-1.4-.9-2.5-1.9-3.1-2.8-.6-1-.9-2.1-.9-3.6s.2-1.7.5-2.5.9-1.5 1.6-2.2c.7-.6 1.5-1.1 2.5-1.5s2.2-.6 3.5-.6c2.3 0 4.1.6 5.5 1.7s2.1 2.6 2.1 4.3 0 1.2-.2 1.9-.4 1.4-.8 1.9q-.6.9-1.8 1.8t-3 1.5l7.2 7.1c.2-.5.3-1.1.4-1.7 0-.6.1-1.3.2-2v-4.7h3.8Zm-5.9 11.6-9.3-9.1c-.4.2-.8.5-1.2.8s-.8.8-1.2 1.3q-.6.75-.9 1.8c-.2.7-.4 1.5-.4 2.4 0 1.9.6 3.4 1.7 4.6s2.7 1.7 4.7 1.7 2.4-.3 3.6-.9q1.8-.9 3-2.7Zm-3.8-17.1c0-1.2-.4-2.2-1.1-2.9s-1.7-1.1-2.8-1.1-2.2.4-2.9 1.2c-.8.8-1.1 1.8-1.1 2.9s.3 1.8.8 2.6 1.6 1.6 3.3 2.7c1.3-.5 2.2-1.1 2.9-2s1-2 1-3.4Z" fill="#ffffff"/>
        <path d="M701.9 1821.6h-3.7v-30.4h3.7z" fill="#ffffff"/>
        <path d="M726.1 1821.6h-3.7v-2.3c-.3.2-.8.5-1.3.9-.6.4-1.1.7-1.6.9-.6.3-1.3.5-2.1.8-.8.2-1.7.3-2.8.3-2 0-3.6-.7-5-2s-2.1-3-2.1-5 .4-3 1.1-4q1.05-1.5 3-2.4t4.8-1.2c1.9-.2 3.9-.4 6-.5v-.6c0-.8-.1-1.5-.4-2.1s-.7-1-1.3-1.3c-.5-.3-1.1-.5-1.9-.6-.7-.1-1.5-.2-2.3-.2s-2 .1-3.2.4-2.4.6-3.7 1.1h-.2v-3.7c.7-.2 1.8-.4 3.1-.6 1.4-.2 2.7-.4 4-.4s2.9.1 4 .4 2.1.7 3 1.3c.8.6 1.4 1.4 1.9 2.3.4 1 .6 2.1.6 3.5v14.8Zm-3.7-5.4v-6.1c-1.1 0-2.4.2-4 .3q-2.25.15-3.6.6c-1.1.3-1.9.8-2.6 1.4s-1 1.5-1 2.6.4 2.2 1.1 2.8c.8.6 1.9.9 3.5.9s2.5-.2 3.5-.8q1.65-.75 3-1.8Z" fill="#ffffff"/>
        <path d="M751.2 1821.6h-3.7v-2.4c-1.2 1-2.4 1.7-3.6 2.2s-2.4.8-3.8.8q-3.45 0-5.4-2.1c-1.3-1.4-1.9-3.5-1.9-6.2v-14.2h3.7v12.4c0 1.1 0 2.1.2 2.8.1.8.3 1.5.7 2 .4.6.8 1 1.4 1.2.6.3 1.4.4 2.4.4s2-.2 3.1-.7 2.2-1.1 3.2-1.9v-16.3h3.7v21.8Z" fill="#ffffff"/>
        <path d="M776.7 1821.6H773v-12.4c0-1 0-1.9-.2-2.8s-.3-1.6-.6-2.1-.8-1-1.4-1.2c-.6-.3-1.4-.4-2.4-.4s-2.1.2-3.1.7c-1.1.5-2.1 1.1-3.1 1.9v16.3h-3.7v-21.8h3.7v2.4c1.1-1 2.3-1.7 3.6-2.2 1.2-.5 2.5-.8 3.8-.8q3.6 0 5.4 2.1c1.2 1.4 1.9 3.5 1.9 6.1v14.2Z" fill="#ffffff"/>
        <path d="M799.9 1820.2c-1.2.6-2.4 1-3.5 1.4-1.1.3-2.3.5-3.5.5s-3-.2-4.3-.7-2.4-1.2-3.4-2.1-1.7-2.1-2.2-3.6c-.5-1.4-.8-3.1-.8-5 0-3.6 1-6.4 2.9-8.4 2-2 4.5-3 7.8-3s2.5.2 3.7.5c1.2.4 2.3.8 3.3 1.3v4.1h-.2c-1.1-.9-2.3-1.5-3.5-2s-2.4-.7-3.5-.7c-2.1 0-3.7.7-4.9 2.1s-1.8 3.5-1.8 6.2.6 4.7 1.8 6.1 2.8 2.1 5 2.1 1.5 0 2.3-.3c.8-.2 1.5-.4 2.1-.8l1.5-.9c.5-.3.8-.6 1.1-.8h.2v4Z" fill="#ffffff"/>
        <path d="M822.9 1821.6h-3.7v-12.4c0-1 0-1.9-.2-2.8s-.3-1.6-.6-2.1-.8-1-1.4-1.2c-.6-.3-1.4-.4-2.4-.4s-2.1.2-3.1.7c-1.1.5-2.1 1.1-3.1 1.9v16.3h-3.7v-30.4h3.7v11c1.1-1 2.3-1.7 3.6-2.2 1.2-.5 2.5-.8 3.8-.8q3.6 0 5.4 2.1c1.2 1.4 1.9 3.5 1.9 6.1v14.2Z" fill="#ffffff"/>
        <path d="M848.2 1811.1h-16.1c0 1.3.2 2.5.6 3.5s1 1.8 1.7 2.5c.7.6 1.5 1.1 2.4 1.4s2 .5 3.1.5 3-.3 4.5-.9 2.6-1.2 3.2-1.7h.2v4c-1.2.5-2.5 1-3.8 1.3s-2.6.5-4.1.5c-3.6 0-6.4-1-8.5-2.9-2-2-3-4.7-3-8.3s1-6.4 2.9-8.5 4.5-3.1 7.7-3.1 5.2.9 6.8 2.6 2.4 4.2 2.4 7.3v2Zm-3.6-2.8q0-2.85-1.5-4.5c-1.5-1.65-2.4-1.6-4.4-1.6s-3.5.6-4.7 1.7c-1.2 1.2-1.8 2.6-2 4.3h12.5Z" fill="#ffffff"/>
        <path d="M869.3 1815.3c0 2-.8 3.6-2.5 4.9-1.6 1.3-3.9 1.9-6.7 1.9s-3.1-.2-4.4-.6-2.5-.8-3.4-1.3v-4.1h.2c1.2.9 2.4 1.6 3.9 2.1 1.4.5 2.8.8 4.1.8s2.9-.3 3.8-.8 1.4-1.3 1.4-2.5-.2-1.5-.7-2c-.5-.4-1.4-.8-2.9-1.1-.5-.1-1.2-.3-2-.4s-1.6-.3-2.3-.5c-1.9-.5-3.3-1.3-4.1-2.2q-1.2-1.5-1.2-3.6c0-2.1.2-1.7.6-2.5s.9-1.5 1.7-2.1c.7-.6 1.7-1.1 2.8-1.5s2.4-.5 3.8-.5 2.6.2 4 .5q1.95.45 3.3 1.2v3.9h-.2c-.9-.7-2.1-1.3-3.4-1.7-1.3-.5-2.7-.7-3.9-.7s-2.5.3-3.4.8-1.4 1.3-1.4 2.3.3 1.6.8 2c.5.5 1.4.8 2.7 1.1.7.2 1.4.3 2.3.5s1.5.3 2.1.4c1.7.4 3 1.1 3.9 2 .9 1 1.4 2.2 1.4 3.8Z" fill="#ffffff"/>
        <path d="M1011.3 1567.1c0 2.7-.6 5.1-1.9 7.3-1.2 2.1-2.8 3.8-4.7 4.9-1.4.9-3 1.5-4.7 1.8s-3.7.5-6 .5h-10.3v-29.1h10.5c2.4 0 4.4.2 6.1.6s3.2 1 4.3 1.7c2 1.2 3.6 2.9 4.7 5 1.2 2.1 1.7 4.5 1.7 7.3Zm-7.7-.1c0-1.9-.3-3.6-1-4.9-.7-1.4-1.8-2.4-3.3-3.2-.8-.4-1.6-.6-2.4-.8s-2-.2-3.6-.2h-1.9v18.2h1.9c1.8 0 3.1 0 3.9-.2q1.2-.3 2.4-.9c1.4-.8 2.4-1.8 3-3.1s1-2.9 1-4.9" fill="#ffffff"/>
        <path d="M1038.1 1581.6h-21v-29.1h21v5.6h-13.6v5h12.6v5.6h-12.6v7.2h13.6v5.6Z" fill="#ffffff"/>
        <path d="m1070.8 1552.5-10.6 29.1h-8.4l-10.6-29.1h7.9l7 20.4 7-20.4z" fill="#ffffff"/>
        <path d="M1096 1581.6h-21v-29.1h21v5.6h-13.6v5h12.6v5.6h-12.6v7.2h13.6v5.6Z" fill="#ffffff"/>
        <path d="M1123.2 1581.6h-21v-29.1h7.5v23.5h13.5z" fill="#ffffff"/>
        <path d="M1156 1567.1c0 4.6-1.3 8.3-4 11s-6.3 4.1-11 4.1-8.3-1.4-11-4.1-4-6.4-4-11 1.3-8.4 4-11.1 6.3-4.1 11-4.1 8.3 1.4 11 4.1 4 6.4 4 11.1m-9.9 7.3c.7-.9 1.3-1.9 1.6-3.1.4-1.2.5-2.6.5-4.2s-.2-3.2-.6-4.5c-.4-1.2-.9-2.2-1.6-3s-1.4-1.3-2.3-1.7-1.8-.5-2.7-.5-1.8.2-2.7.5c-.8.3-1.6.9-2.3 1.7-.7.7-1.2 1.7-1.6 3q-.6 1.95-.6 4.5c0 2.55.2 3.2.6 4.4s.9 2.2 1.6 3 1.4 1.3 2.3 1.7 1.8.5 2.8.5 1.9-.2 2.8-.6 1.6-.9 2.3-1.7Z" fill="#ffffff"/>
        <path d="M1185.8 1561.7c0 1.3-.2 2.6-.7 3.8s-1.1 2.3-2 3.1c-1.2 1.1-2.5 2-3.9 2.6s-3.2.9-5.3.9h-4.7v9.5h-7.5v-29.1h12.3c1.8 0 3.4.2 4.7.5s2.4.8 3.4 1.4c1.2.8 2.1 1.8 2.7 2.9.6 1.2.9 2.6.9 4.3Zm-7.8.2c0-.8-.2-1.5-.7-2.1-.4-.6-1-1-1.5-1.2-.8-.3-1.5-.5-2.3-.5h-4.3v8.7h2.1c1.3 0 2.3 0 3.2-.2q1.2-.3 2.1-.9c.5-.4.8-.9 1-1.5s.3-1.3.3-2.1Z" fill="#ffffff"/>
        <path d="M1066.3 1629.4c-.7.2-1.4.3-2.3.4s-1.5.2-2.2.2q-3.3 0-5.1-1.8c-1.2-1.2-1.7-3.1-1.7-5.8v-11.6h-2.5v-3.1h2.5v-6.3h3.7v6.3h7.6v3.1h-7.6v12.6c0 .7.2 1.2.5 1.8.3.5.7.9 1.2 1.1s1.3.4 2.3.4 1.2 0 1.9-.3 1.1-.3 1.4-.4h.2v3.3Z" fill="#ffffff"/>
        <path d="M1088.9 1629.6h-3.7v-12.4c0-1 0-1.9-.2-2.8s-.3-1.6-.6-2.1-.8-1-1.4-1.2c-.6-.3-1.4-.4-2.4-.4s-2.1.2-3.1.7c-1.1.5-2.1 1.1-3.1 1.9v16.3h-3.7v-30.4h3.7v11c1.1-1 2.3-1.7 3.6-2.2 1.2-.5 2.5-.8 3.8-.8q3.6 0 5.4 2.1c1.2 1.4 1.9 3.5 1.9 6.1v14.2Z" fill="#ffffff"/>
        <path d="M1114.3 1619.1h-16.1c0 1.3.2 2.5.6 3.5s1 1.8 1.7 2.5c.7.6 1.5 1.1 2.4 1.4s2 .5 3.1.5 3-.3 4.5-.9 2.6-1.2 3.2-1.7h.2v4c-1.2.5-2.5 1-3.8 1.3s-2.6.5-4.1.5c-3.6 0-6.4-1-8.5-2.9-2-2-3-4.7-3-8.3s1-6.4 2.9-8.5 4.5-3.1 7.7-3.1 5.2.9 6.8 2.6 2.4 4.2 2.4 7.3v2Zm-3.6-2.8q0-2.85-1.5-4.5c-1.5-1.65-2.4-1.6-4.4-1.6s-3.5.6-4.7 1.7c-1.2 1.2-1.8 2.6-2 4.3h12.5Z" fill="#ffffff"/>
        <path d="M1002.7 1654.2h-9.1v23.5h-7.5v-23.5H977v-5.6h25.7z" fill="#ffffff"/>
        <path d="M1034.1 1677.6h-7.7l-2-5.9h-10.8l-2 5.9h-7.6l10.7-29.1h8.6l10.7 29.1Zm-11.6-11.2-3.6-10.4-3.6 10.4z" fill="#ffffff"/>
        <path d="M1059.3 1677.6h-21v-29.1h7.5v23.5h13.5z" fill="#ffffff"/>
        <path d="M1084.8 1677.6h-21v-29.1h21v5.6h-13.6v5h12.6v5.6h-12.6v7.2h13.6v5.6Z" fill="#ffffff"/>
        <path d="M1117.6 1677.6h-7.2l-12.3-20v20h-6.9v-29.1h9l10.6 16.7v-16.7h6.9v29.1Z" fill="#ffffff"/>
        <path d="M1147.7 1654.2h-9.1v23.5h-7.5v-23.5h-9.1v-5.6h25.7z" fill="#ffffff"/>
        <path d="M1187.3 1659.9v1.9c0 1.2-.2 2.7-.5 4.2s-.9 3.1-1.7 4.5l7.4 7.2h-4.8l-4.5-4.4c-1.5 1.8-3 3.1-4.6 3.9s-3.2 1.1-4.8 1.1c-2.7 0-5-.8-6.7-2.4s-2.7-3.7-2.7-6.2.2-2.2.5-3.1.7-1.6 1.2-2.3c.5-.6 1-1.2 1.7-1.7s1.4-1 2.1-1.4c-1.4-.9-2.5-1.9-3.1-2.8-.6-1-.9-2.1-.9-3.6s.2-1.7.5-2.5.9-1.5 1.6-2.2c.7-.6 1.5-1.1 2.5-1.5s2.2-.6 3.5-.6c2.3 0 4.1.6 5.5 1.7s2.1 2.6 2.1 4.3 0 1.2-.2 1.9-.4 1.4-.8 1.9q-.6.9-1.8 1.8c-1.2.9-1.8 1.1-3 1.5l7.2 7.1c.2-.5.3-1.1.4-1.7s.1-1.3.2-2v-4.7h3.8Zm-5.8 11.6-9.3-9.1c-.4.2-.8.5-1.2.8s-.8.8-1.2 1.3q-.6.75-.9 1.8c-.2.7-.4 1.5-.4 2.4 0 1.9.6 3.4 1.7 4.6s2.7 1.7 4.7 1.7 2.4-.3 3.6-.9q1.8-.9 3-2.7Zm-3.8-17.1c0-1.2-.4-2.2-1.1-2.9s-1.7-1.1-2.8-1.1-2.2.4-2.9 1.2-1.1 1.8-1.1 2.9.3 1.8.8 2.6 1.6 1.6 3.3 2.7c1.3-.5 2.2-1.1 2.9-2s1-2 1-3.4Z" fill="#ffffff"/>
        <path d="M998.6 1724.2c-1.2.6-2.4 1-3.5 1.4-1.1.3-2.3.5-3.5.5s-3-.2-4.3-.7-2.4-1.2-3.4-2.1-1.7-2.1-2.2-3.6c-.5-1.4-.8-3.1-.8-5 0-3.6 1-6.4 2.9-8.4 2-2 4.5-3 7.8-3s2.5.2 3.7.5c1.2.4 2.3.8 3.3 1.3v4.1h-.2c-1.1-.9-2.3-1.5-3.5-2s-2.4-.7-3.5-.7c-2.1 0-3.7.7-4.9 2.1s-1.8 3.5-1.8 6.2.6 4.7 1.8 6.1 2.8 2.1 5 2.1 1.5 0 2.3-.3c.8-.2 1.5-.4 2.1-.8l1.5-.9c.5-.3.8-.6 1.1-.8h.2v4Z" fill="#ffffff"/>
        <path d="M1021.4 1725.6h-3.7v-2.4c-1.2 1-2.4 1.7-3.6 2.2s-2.4.8-3.8.8q-3.45 0-5.4-2.1c-1.3-1.4-1.9-3.5-1.9-6.2v-14.2h3.7v12.4c0 1.1 0 2.1.2 2.8.1.8.3 1.5.7 2 .4.6.8 1 1.4 1.2.6.3 1.4.4 2.4.4s2-.2 3.1-.7 2.2-1.1 3.2-1.9v-16.3h3.7v21.8Z" fill="#ffffff"/>
        <path d="M1032.4 1725.6h-3.7v-30.4h3.7z" fill="#ffffff"/>
        <path d="M1051 1725.4c-.7.2-1.4.3-2.3.4s-1.5.2-2.2.2q-3.3 0-5.1-1.8c-1.2-1.2-1.7-3.1-1.7-5.8v-11.6h-2.5v-3.1h2.5v-6.3h3.7v6.3h7.6v3.1h-7.6v12.6c0 .7.2 1.2.5 1.8.3.5.7.9 1.2 1.1s1.3.4 2.3.4 1.2 0 1.9-.3 1.1-.3 1.4-.4h.2v3.3Z" fill="#ffffff"/>
        <path d="M1073.5 1725.6h-3.7v-2.4c-1.2 1-2.4 1.7-3.6 2.2s-2.4.8-3.8.8q-3.45 0-5.4-2.1c-1.3-1.4-1.9-3.5-1.9-6.2v-14.2h3.7v12.4c0 1.1 0 2.1.2 2.8.1.8.3 1.5.7 2 .4.6.8 1 1.4 1.2.6.3 1.4.4 2.4.4s2-.2 3.1-.7 2.2-1.1 3.2-1.9v-16.3h3.7v21.8Z" fill="#ffffff"/>
        <path d="M1094.3 1707.8h-.2c-.5-.1-1.1-.2-1.6-.3s-1.1 0-1.8 0c-1.1 0-2.2.3-3.3.8s-2.1 1.1-3 1.9v15.5h-3.7v-21.8h3.7v3.2c1.5-1.2 2.7-2 3.9-2.5s2.2-.7 3.4-.7h1.4c.3 0 .7 0 1.3.2v3.8Z" fill="#ffffff"/>
        <path d="M1116 1715.1h-16.1c0 1.3.2 2.5.6 3.5s1 1.8 1.7 2.5c.7.6 1.5 1.1 2.4 1.4s2 .5 3.1.5 3-.3 4.5-.9 2.6-1.2 3.2-1.7h.2v4c-1.2.5-2.5 1-3.8 1.3s-2.6.5-4.1.5c-3.6 0-6.4-1-8.5-2.9-2-2-3-4.7-3-8.3s1-6.4 2.9-8.5 4.5-3.1 7.7-3.1 5.2.9 6.8 2.6 2.4 4.2 2.4 7.3v2Zm-3.5-2.8q0-2.85-1.5-4.5c-1.5-1.65-2.4-1.6-4.4-1.6s-3.5.6-4.7 1.7c-1.2 1.2-1.8 2.6-2 4.3h12.5Z" fill="#ffffff"/>
        <path d="m1163.1 1703.8-5.7 21.8h-3.4l-5.6-16.8-5.6 16.8h-3.4l-5.7-21.8h3.8l4 16.9 5.4-16.9h3l5.6 16.9 3.8-16.9h3.7Z" fill="#ffffff"/>
        <path d="M1186.7 1715.1h-16.1c0 1.3.2 2.5.6 3.5s1 1.8 1.7 2.5c.7.6 1.5 1.1 2.4 1.4s2 .5 3.1.5 3-.3 4.5-.9 2.6-1.2 3.2-1.7h.2v4c-1.2.5-2.5 1-3.8 1.3s-2.6.5-4.1.5c-3.6 0-6.4-1-8.5-2.9-2-2-3-4.7-3-8.3s1-6.4 2.9-8.5 4.5-3.1 7.7-3.1 5.2.9 6.8 2.6 2.4 4.2 2.4 7.3v2Zm-3.6-2.8q0-2.85-1.5-4.5c-1.5-1.65-2.4-1.6-4.4-1.6s-3.5.6-4.7 1.7c-1.2 1.2-1.8 2.6-2 4.3h12.5Z" fill="#ffffff"/>
        <path d="M1056.7 1773.6h-3.7v-12.4c0-1 0-1.9-.2-2.8s-.3-1.6-.6-2.1-.8-1-1.4-1.2c-.6-.3-1.4-.4-2.4-.4s-2.1.2-3.1.7c-1.1.5-2.1 1.1-3.1 1.9v16.3h-3.7v-21.8h3.7v2.4c1.1-1 2.3-1.7 3.6-2.2 1.2-.5 2.5-.8 3.8-.8q3.6 0 5.4 2.1c1.2 1.4 1.9 3.5 1.9 6.1v14.2Z" fill="#ffffff"/>
        <path d="M1082 1763.1h-16.1c0 1.3.2 2.5.6 3.5s1 1.8 1.7 2.5c.7.6 1.5 1.1 2.4 1.4s2 .5 3.1.5 3-.3 4.5-.9 2.6-1.2 3.2-1.7h.2v4c-1.2.5-2.5 1-3.8 1.3s-2.6.5-4.1.5c-3.6 0-6.4-1-8.5-2.9-2-2-3-4.7-3-8.3s1-6.4 2.9-8.5 4.5-3.1 7.7-3.1 5.2.9 6.8 2.6 2.4 4.2 2.4 7.3v2Zm-3.6-2.8q0-2.85-1.5-4.5c-1.5-1.65-2.4-1.6-4.4-1.6s-3.5.6-4.7 1.7c-1.2 1.2-1.8 2.6-2 4.3h12.5Z" fill="#ffffff"/>
        <path d="M1105.8 1763.1h-16.1c0 1.3.2 2.5.6 3.5s1 1.8 1.7 2.5c.7.6 1.5 1.1 2.4 1.4s2 .5 3.1.5 3-.3 4.5-.9 2.6-1.2 3.2-1.7h.2v4c-1.2.5-2.5 1-3.8 1.3s-2.6.5-4.1.5c-3.6 0-6.4-1-8.5-2.9-2-2-3-4.7-3-8.3s1-6.4 2.9-8.5 4.5-3.1 7.7-3.1 5.2.9 6.8 2.6 2.4 4.2 2.4 7.3v2Zm-3.5-2.8q0-2.85-1.5-4.5c-1.5-1.65-2.4-1.6-4.4-1.6s-3.5.6-4.7 1.7c-1.2 1.2-1.8 2.6-2 4.3h12.5Z" fill="#ffffff"/>
        <path d="M1129.1 1773.6h-3.7v-2.3q-1.65 1.35-3.3 2.1c-1.65.75-2.4.8-3.7.8-2.6 0-4.7-1-6.2-3s-2.3-4.8-2.3-8.3.3-3.5.8-4.9 1.2-2.7 2.1-3.7 1.9-1.7 3.1-2.3c1.2-.5 2.4-.8 3.7-.8s2.2.1 3 .4c.9.2 1.8.6 2.8 1.1v-9.5h3.7zm-3.7-5.4v-12.5q-1.5-.6-2.7-.9c-.8-.2-1.6-.3-2.6-.3q-3.15 0-4.8 2.1c-1.1 1.4-1.7 3.5-1.7 6.1s.4 4.6 1.3 5.9 2.3 2 4.3 2 2.1-.2 3.2-.7q1.65-.75 3-1.8Z" fill="#ffffff"/>
        <path d="M1308.8 1558.2h-13.4v5.4h12.4v5.6h-12.4v12.4h-7.5v-29.1h20.8v5.6Z" fill="#ffffff"/>
        <path d="M1342.2 1567.1c0 4.6-1.3 8.3-4 11s-6.3 4.1-11 4.1-8.3-1.4-11-4.1-4-6.4-4-11 1.3-8.4 4-11.1 6.3-4.1 11-4.1 8.3 1.4 11 4.1 4 6.4 4 11.1m-9.9 7.3c.7-.9 1.3-1.9 1.6-3.1s.5-2.6.5-4.2-.2-3.2-.6-4.5-.9-2.2-1.6-3-1.4-1.3-2.3-1.7-1.8-.5-2.7-.5-1.8.2-2.7.5-1.6.9-2.3 1.7c-.7.7-1.2 1.7-1.6 3s-.6 2.8-.6 4.5.2 3.2.6 4.4.9 2.2 1.6 3 1.4 1.3 2.3 1.7 1.8.5 2.8.5 1.9-.2 2.8-.6 1.6-.9 2.3-1.7Z" fill="#ffffff"/>
        <path d="M1361.1 1582.2c-2.2 0-4.2-.3-6-1s-3.4-1.6-4.7-2.9-2.3-2.8-3.1-4.7-1.1-4.1-1.1-6.5.3-4.4 1-6.3 1.7-3.5 3-4.8 2.8-2.3 4.7-3 3.9-1.1 6.1-1.1 2.3 0 3.3.2 1.9.3 2.7.5c.9.2 1.7.5 2.4.8s1.3.6 1.9.8v7.1h-.9c-.4-.3-.8-.7-1.4-1.1s-1.2-.8-1.9-1.3c-.7-.4-1.5-.8-2.3-1-.8-.3-1.7-.4-2.7-.4s-2.1.2-3 .5c-1 .3-1.8.9-2.6 1.6s-1.4 1.7-1.9 2.9-.7 2.7-.7 4.4.3 3.3.8 4.6 1.2 2.2 1.9 2.9q1.2 1.05 2.7 1.5c1.5.45 1.9.5 2.9.5s1.8-.1 2.7-.4 1.7-.6 2.5-1.1l1.8-1.2c.6-.4 1-.8 1.3-1.1h.8v7l-2.1.9c-.7.3-1.4.5-2.1.7-1 .3-1.8.5-2.7.6-.8.1-2 .2-3.4.2Z" fill="#ffffff"/>
        <path d="M1402.4 1571.1c0 3.6-1.1 6.3-3.3 8.3s-5.4 2.9-9.7 2.9-7.5-1-9.7-2.9-3.3-4.7-3.3-8.2v-18.6h7.5v18.1c0 2 .4 3.5 1.3 4.5s2.2 1.5 4.1 1.5 3.2-.5 4.1-1.4 1.3-2.5 1.3-4.6v-18.1h7.5v18.6Z" fill="#ffffff"/>
        <path d="M1432.6 1572.5c0 2.9-1.2 5.2-3.6 7s-5.7 2.7-9.9 2.7-4.5-.2-6.3-.6-3.5-1-5-1.6v-7h.8c1.5 1.2 3.3 2.2 5.2 2.9s3.8 1 5.5 1 1.1 0 1.8-.1 1.3-.2 1.8-.4c.6-.2 1-.5 1.4-.9s.6-.9.6-1.6-.3-1.2-.8-1.7-1.3-.8-2.4-1.1-2.2-.5-3.5-.7-2.4-.5-3.4-.9c-2.4-.8-4.2-1.9-5.3-3.2s-1.6-3-1.6-5.1 1.2-4.9 3.6-6.6 5.5-2.6 9.4-2.6 3.8.2 5.7.6 3.5.8 4.9 1.4v6.7h-.8c-1.2-.9-2.6-1.7-4.3-2.4s-3.4-.9-5.2-.9-1.2 0-1.9.1-1.2.2-1.8.5c-.5.2-.9.5-1.3.9s-.5.8-.5 1.4q0 1.2.9 1.8c.9.6 1.7.8 3.3 1.1 1.1.2 2.1.4 3.1.6s2 .5 3.2.9c2.2.7 3.9 1.7 4.9 3s1.6 2.9 1.6 4.9Z" fill="#ffffff"/>
        <path d="M1469.9 1570.7q0 5.4-2.7 8.4c-2.7 3-4.3 3.1-7.3 3.1s-5.5-1-7.4-3.1-2.7-4.9-2.7-8.4.9-6.4 2.7-8.4 4.3-3.1 7.4-3.1 5.5 1 7.3 3.1 2.7 4.9 2.7 8.4m-3.7 0c0-2.8-.6-4.9-1.7-6.3s-2.6-2.1-4.6-2.1-3.5.7-4.6 2.1-1.7 3.5-1.7 6.3.6 4.8 1.7 6.2 2.6 2.1 4.6 2.1 3.5-.7 4.6-2.1 1.7-3.5 1.7-6.2" fill="#ffffff"/>
        <path d="M1493.9 1581.6h-3.7v-12.4c0-1 0-1.9-.2-2.8s-.3-1.6-.6-2.1-.8-1-1.4-1.2-1.4-.4-2.4-.4-2.1.2-3.1.7-2.1 1.1-3.1 1.9v16.3h-3.7v-21.8h3.7v2.4c1.1-1 2.3-1.7 3.6-2.2s2.5-.8 3.8-.8q3.6 0 5.4 2.1c1.8 2.1 1.9 3.5 1.9 6.1v14.2Z" fill="#ffffff"/>
        <path d="M1295.5 1604.1h-4.1v-3.8h4.1zm-.3 25.5h-3.7v-21.8h3.7z" fill="#ffffff"/>
        <path d="M1320.7 1629.6h-3.7v-12.4c0-1 0-1.9-.2-2.8s-.3-1.6-.6-2.1-.8-1-1.4-1.2-1.4-.4-2.4-.4-2.1.2-3.1.7-2.1 1.1-3.1 1.9v16.3h-3.7v-21.8h3.7v2.4c1.1-1 2.3-1.7 3.6-2.2s2.5-.8 3.8-.8q3.6 0 5.4 2.1c1.8 2.1 1.9 3.5 1.9 6.1v14.2Z" fill="#ffffff"/>
        <path d="M1339.1 1629.4c-.7.2-1.4.3-2.3.4s-1.5.2-2.2.2q-3.3 0-5.1-1.8c-1.8-1.8-1.7-3.1-1.7-5.8v-11.6h-2.5v-3.1h2.5v-6.3h3.7v6.3h7.6v3.1h-7.6v12.6c0 .7.2 1.2.5 1.8.3.5.7.9 1.2 1.1s1.3.4 2.3.4 1.2 0 1.9-.3 1.1-.3 1.4-.4h.2v3.3Z" fill="#ffffff"/>
        <path d="M1361.8 1619.1h-16.1c0 1.3.2 2.5.6 3.5s1 1.8 1.7 2.5c.7.6 1.5 1.1 2.4 1.4s2 .5 3.1.5 3-.3 4.5-.9 2.6-1.2 3.2-1.7h.2v4c-1.2.5-2.5 1-3.8 1.3s-2.6.5-4.1.5c-3.6 0-6.4-1-8.5-2.9s-3-4.7-3-8.3 1-6.4 2.9-8.5 4.5-3.1 7.7-3.1 5.2.9 6.8 2.6 2.4 4.2 2.4 7.3v2Zm-3.5-2.8q0-2.85-1.5-4.5c-1.5-1.65-2.4-1.6-4.4-1.6s-3.5.6-4.7 1.7-1.8 2.6-2 4.3h12.5Z" fill="#ffffff"/>
        <path d="M1385.1 1627.1c0 3.7-.8 6.4-2.5 8.1s-4.3 2.6-7.8 2.6-2.3 0-3.4-.2-2.2-.4-3.3-.7v-3.8h.2c.6.2 1.5.5 2.9.9 1.3.3 2.6.5 3.9.5s2.3-.2 3.1-.4c.8-.3 1.5-.7 1.9-1.2.5-.5.8-1.1 1-1.8q.3-1.05.3-2.4v-2c-1.1.9-2.2 1.5-3.2 2s-2.3.7-3.9.7c-2.6 0-4.7-.9-6.2-2.8s-2.3-4.5-2.3-8 .3-3.5.8-4.9 1.2-2.5 2.2-3.5c.8-.9 1.9-1.6 3.1-2.2s2.4-.8 3.6-.8 2.3.1 3.2.4 1.8.6 2.7 1.2l.2-.9h3.4v19.3Zm-3.7-3.5v-11.9c-1-.4-1.9-.8-2.7-.9s-1.7-.3-2.5-.3c-2 0-3.6.7-4.8 2s-1.7 3.3-1.7 5.9.4 4.3 1.3 5.6 2.3 1.9 4.3 1.9 2.1-.2 3.2-.6 2.1-1 3-1.7Z" fill="#ffffff"/>
        <path d="M1405.9 1611.8h-.2c-.5-.1-1.1-.2-1.6-.3s-1.1 0-1.8 0c-1.1 0-2.2.3-3.3.8s-2.1 1.1-3 1.9v15.5h-3.7v-21.8h3.7v3.2c1.5-1.2 2.7-2 3.9-2.5s2.2-.7 3.4-.7h1.4c.3 0 .7 0 1.3.2v3.8Z" fill="#ffffff"/>
        <path d="M1425.7 1629.6h-3.7v-2.3c-.3.2-.8.5-1.3.9s-1.1.7-1.6.9c-.6.3-1.3.5-2.1.8-.8.2-1.7.3-2.8.3-2 0-3.6-.7-5-2s-2.1-3-2.1-5 .4-3 1.1-4 1.7-1.8 3-2.4q1.95-.9 4.8-1.2c2.85-.3 3.9-.4 6-.5v-.6c0-.8-.1-1.5-.4-2.1s-.7-1-1.3-1.3c-.5-.3-1.1-.5-1.9-.6s-1.5-.2-2.3-.2-2 .1-3.2.4-2.4.6-3.7 1.1h-.2v-3.7c.7-.2 1.8-.4 3.1-.6s2.7-.4 4-.4 2.9.1 4 .4 2.1.7 3 1.3c.8.6 1.4 1.4 1.9 2.3s.6 2.1.6 3.5v14.8Zm-3.7-5.4v-6.1c-1.1 0-2.4.2-4 .3s-2.7.3-3.6.6c-1.1.3-1.9.8-2.6 1.4s-1 1.5-1 2.6.4 2.2 1.1 2.8 1.9.9 3.5.9 2.5-.3 3.5-.8 2.1-1.1 3-1.8Z" fill="#ffffff"/>
        <path d="M1444 1629.4c-.7.2-1.4.3-2.3.4s-1.5.2-2.2.2q-3.3 0-5.1-1.8c-1.8-1.8-1.7-3.1-1.7-5.8v-11.6h-2.5v-3.1h2.5v-6.3h3.7v6.3h7.6v3.1h-7.6v12.6c0 .7.2 1.2.5 1.8.3.5.7.9 1.2 1.1s1.3.4 2.3.4 1.2 0 1.9-.3 1.1-.3 1.4-.4h.2v3.3Z" fill="#ffffff"/>
        <path d="M1466.7 1619.1h-16.1c0 1.3.2 2.5.6 3.5s1 1.8 1.7 2.5c.7.6 1.5 1.1 2.4 1.4s2 .5 3.1.5 3-.3 4.5-.9 2.6-1.2 3.2-1.7h.2v4c-1.2.5-2.5 1-3.8 1.3s-2.6.5-4.1.5c-3.6 0-6.4-1-8.5-2.9s-3-4.7-3-8.3 1-6.4 2.9-8.5 4.5-3.1 7.7-3.1 5.2.9 6.8 2.6 2.4 4.2 2.4 7.3v2Zm-3.5-2.8q0-2.85-1.5-4.5c-1.5-1.65-2.4-1.6-4.4-1.6s-3.5.6-4.7 1.7-1.8 2.6-2 4.3h12.5Z" fill="#ffffff"/>
        <path d="M1490 1629.6h-3.7v-2.3q-1.65 1.35-3.3 2.1c-1.65.75-2.4.8-3.7.8-2.6 0-4.7-1-6.2-3s-2.3-4.8-2.3-8.3.3-3.5.8-4.9 1.2-2.7 2.1-3.7 1.9-1.7 3.1-2.3 2.4-.8 3.7-.8 2.2.1 3 .4 1.8.6 2.8 1.1v-9.5h3.7zm-3.7-5.4v-12.5q-1.5-.6-2.7-.9c-1.2-.3-1.6-.3-2.6-.3q-3.15 0-4.8 2.1c-1.65 2.1-1.7 3.5-1.7 6.1s.4 4.6 1.3 5.9 2.3 2 4.3 2 2.1-.2 3.2-.7 2.1-1.1 3-1.8Z" fill="#ffffff"/>
        <path d="M1327.1 1666.5c0 1.8-.3 3.5-.8 4.9s-1.2 2.7-2.1 3.7-1.9 1.8-3 2.3-2.3.8-3.7.8-2.3-.1-3.2-.4-1.8-.7-2.7-1.2l-.2 1h-3.4v-30.4h3.7v10.9q1.5-1.2 3.3-2.1c1.8-.9 2.5-.8 3.9-.8 2.6 0 4.6 1 6.1 3s2.2 4.8 2.2 8.4Zm-3.7.1c0-2.6-.4-4.6-1.3-5.9s-2.2-2-4.2-2-2.1.2-3.2.7-2.1 1.1-3 1.8v12.5c1 .5 1.9.8 2.7 1s1.6.3 2.5.3c2 0 3.6-.7 4.8-2s1.7-3.4 1.7-6.3Z" fill="#ffffff"/>
        <path d="M1351 1677.6h-3.7v-2.4c-1.2 1-2.4 1.7-3.6 2.2s-2.4.8-3.8.8q-3.45 0-5.4-2.1c-1.95-2.1-1.9-3.5-1.9-6.2v-14.2h3.7v12.4c0 1.1 0 2.1.2 2.8s.3 1.5.7 2c.4.6.8 1 1.4 1.2s1.4.4 2.4.4 2-.2 3.1-.7 2.2-1.1 3.2-1.9v-16.3h3.7v21.8Z" fill="#ffffff"/>
        <path d="M1373.8 1671.3c0 2-.8 3.6-2.5 4.9s-3.9 1.9-6.7 1.9-3.1-.2-4.4-.6-2.5-.8-3.4-1.3v-4.1h.2c1.2.9 2.4 1.6 3.9 2.1s2.8.8 4.1.8 2.9-.3 3.8-.8 1.4-1.3 1.4-2.5-.2-1.5-.7-2-1.4-.8-2.9-1.1c-.5-.1-1.2-.3-2-.4s-1.6-.3-2.3-.5c-1.9-.5-3.3-1.3-4.1-2.2s-1.2-2.2-1.2-3.6.2-1.7.6-2.5.9-1.5 1.7-2.1c.7-.6 1.7-1.1 2.8-1.5s2.4-.5 3.8-.5 2.6.2 4 .5 2.4.7 3.3 1.2v3.9h-.2c-.9-.7-2.1-1.3-3.4-1.7s-2.7-.7-3.9-.7-2.5.3-3.4.8-1.4 1.3-1.4 2.3.3 1.6.8 2c.5.5 1.4.8 2.7 1.1.7.2 1.4.3 2.3.5s1.5.3 2.1.4c1.7.4 3 1.1 3.9 2 .9 1 1.4 2.2 1.4 3.8Z" fill="#ffffff"/>
        <path d="M1383 1652.1h-4.1v-3.8h4.1zm-.3 25.5h-3.7v-21.8h3.7z" fill="#ffffff"/>
        <path d="M1408.2 1677.6h-3.7v-12.4c0-1 0-1.9-.2-2.8s-.3-1.6-.6-2.1-.8-1-1.4-1.2-1.4-.4-2.4-.4-2.1.2-3.1.7-2.1 1.1-3.1 1.9v16.3h-3.7v-21.8h3.7v2.4c1.1-1 2.3-1.7 3.6-2.2s2.5-.8 3.8-.8q3.6 0 5.4 2.1c1.8 2.1 1.9 3.5 1.9 6.1v14.2Z" fill="#ffffff"/>
        <path d="M1433.6 1667.1h-16.1c0 1.3.2 2.5.6 3.5s1 1.8 1.7 2.5c.7.6 1.5 1.1 2.4 1.4s2 .5 3.1.5 3-.3 4.5-.9 2.6-1.2 3.2-1.7h.2v4c-1.2.5-2.5 1-3.8 1.3s-2.6.5-4.1.5c-3.6 0-6.4-1-8.5-2.9s-3-4.7-3-8.3 1-6.4 2.9-8.5 4.5-3.1 7.7-3.1 5.2.9 6.8 2.6 2.4 4.2 2.4 7.3v2Zm-3.6-2.8q0-2.85-1.5-4.5c-1.5-1.65-2.4-1.6-4.4-1.6s-3.5.6-4.7 1.7-1.8 2.6-2 4.3h12.5Z" fill="#ffffff"/>
        <path d="M1454.7 1671.3c0 2-.8 3.6-2.5 4.9s-3.9 1.9-6.7 1.9-3.1-.2-4.4-.6-2.5-.8-3.4-1.3v-4.1h.2c1.2.9 2.4 1.6 3.9 2.1s2.8.8 4.1.8 2.9-.3 3.8-.8 1.4-1.3 1.4-2.5-.2-1.5-.7-2-1.4-.8-2.9-1.1c-.5-.1-1.2-.3-2-.4s-1.6-.3-2.3-.5c-1.9-.5-3.3-1.3-4.1-2.2s-1.2-2.2-1.2-3.6.2-1.7.6-2.5.9-1.5 1.7-2.1c.7-.6 1.7-1.1 2.8-1.5s2.4-.5 3.8-.5 2.6.2 4 .5 2.4.7 3.3 1.2v3.9h-.2c-.9-.7-2.1-1.3-3.4-1.7s-2.7-.7-3.9-.7-2.5.3-3.4.8-1.4 1.3-1.4 2.3.3 1.6.8 2c.5.5 1.4.8 2.7 1.1.7.2 1.4.3 2.3.5s1.5.3 2.1.4c1.7.4 3 1.1 3.9 2 .9 1 1.4 2.2 1.4 3.8Z" fill="#ffffff"/>
        <path d="M1475.6 1671.3c0 2-.8 3.6-2.5 4.9s-3.9 1.9-6.7 1.9-3.1-.2-4.4-.6-2.5-.8-3.4-1.3v-4.1h.2c1.2.9 2.4 1.6 3.9 2.1s2.8.8 4.1.8 2.9-.3 3.8-.8 1.4-1.3 1.4-2.5-.2-1.5-.7-2-1.4-.8-2.9-1.1c-.5-.1-1.2-.3-2-.4s-1.6-.3-2.3-.5c-1.9-.5-3.3-1.3-4.1-2.2s-1.2-2.2-1.2-3.6.2-1.7.6-2.5.9-1.5 1.7-2.1c.7-.6 1.7-1.1 2.8-1.5s2.4-.5 3.8-.5 2.6.2 4 .5 2.4.7 3.3 1.2v3.9h-.2c-.9-.7-2.1-1.3-3.4-1.7s-2.7-.7-3.9-.7-2.5.3-3.4.8-1.4 1.3-1.4 2.3.3 1.6.8 2c.5.5 1.4.8 2.7 1.1.7.2 1.4.3 2.3.5s1.5.3 2.1.4c1.7.4 3 1.1 3.9 2 .9 1 1.4 2.2 1.4 3.8Z" fill="#ffffff"/>
        <path d="M1311.4 1719.3c0 2-.8 3.6-2.5 4.9s-3.9 1.9-6.7 1.9-3.1-.2-4.4-.6-2.5-.8-3.4-1.3v-4.1h.2c1.2.9 2.4 1.6 3.9 2.1s2.8.8 4.1.8 2.9-.3 3.8-.8 1.4-1.3 1.4-2.5-.2-1.5-.7-2-1.4-.8-2.9-1.1c-.5-.1-1.2-.3-2-.4s-1.6-.3-2.3-.5c-1.9-.5-3.3-1.3-4.1-2.2s-1.2-2.2-1.2-3.6.2-1.7.6-2.5.9-1.5 1.7-2.1c.7-.6 1.7-1.1 2.8-1.5s2.4-.5 3.8-.5 2.6.2 4 .5 2.4.7 3.3 1.2v3.9h-.2c-.9-.7-2.1-1.3-3.4-1.7s-2.7-.7-3.9-.7-2.5.3-3.4.8-1.4 1.3-1.4 2.3.3 1.6.8 2c.5.5 1.4.8 2.7 1.1.7.2 1.4.3 2.3.5s1.5.3 2.1.4c1.7.4 3 1.1 3.9 2 .9 1 1.4 2.2 1.4 3.8Z" fill="#ffffff"/>
        <path d="M1328 1725.4c-.7.2-1.4.3-2.3.4s-1.5.2-2.2.2q-3.3 0-5.1-1.8c-1.8-1.8-1.7-3.1-1.7-5.8v-11.6h-2.5v-3.1h2.5v-6.3h3.7v6.3h7.6v3.1h-7.6v12.6c0 .7.2 1.2.5 1.8.3.5.7.9 1.2 1.1s1.3.4 2.3.4 1.2 0 1.9-.3 1.1-.3 1.4-.4h.2v3.3Z" fill="#ffffff"/>
        <path d="M1346 1707.8h-.2c-.5-.1-1.1-.2-1.6-.3s-1.1 0-1.8 0c-1.1 0-2.2.3-3.3.8s-2.1 1.1-3 1.9v15.5h-3.7v-21.8h3.7v3.2c1.5-1.2 2.7-2 3.9-2.5s2.2-.7 3.4-.7h1.4c.3 0 .7 0 1.3.2v3.8Z" fill="#ffffff"/>
        <path d="M1365.7 1725.6h-3.7v-2.3c-.3.2-.8.5-1.3.9s-1.1.7-1.6.9c-.6.3-1.3.5-2.1.8-.8.2-1.7.3-2.8.3-2 0-3.6-.7-5-2s-2.1-3-2.1-5 .4-3 1.1-4 1.7-1.8 3-2.4q1.95-.9 4.8-1.2c2.85-.3 3.9-.4 6-.5v-.6c0-.8-.1-1.5-.4-2.1s-.7-1-1.3-1.3c-.5-.3-1.1-.5-1.9-.6s-1.5-.2-2.3-.2-2 .1-3.2.4-2.4.6-3.7 1.1h-.2v-3.7c.7-.2 1.8-.4 3.1-.6s2.7-.4 4-.4 2.9.1 4 .4 2.1.7 3 1.3c.8.6 1.4 1.4 1.9 2.3s.6 2.1.6 3.5v14.8Zm-3.6-5.4v-6.1c-1.1 0-2.4.2-4 .3s-2.7.3-3.6.6c-1.1.3-1.9.8-2.6 1.4s-1 1.5-1 2.6.4 2.2 1.1 2.8 1.9.9 3.5.9 2.5-.3 3.5-.8 2.1-1.1 3-1.8Z" fill="#ffffff"/>
        <path d="M1384.1 1725.4c-.7.2-1.4.3-2.3.4s-1.5.2-2.2.2q-3.3 0-5.1-1.8c-1.8-1.8-1.7-3.1-1.7-5.8v-11.6h-2.5v-3.1h2.5v-6.3h3.7v6.3h7.6v3.1h-7.6v12.6c0 .7.2 1.2.5 1.8.3.5.7.9 1.2 1.1s1.3.4 2.3.4 1.2 0 1.9-.3 1.1-.3 1.4-.4h.2v3.3Z" fill="#ffffff"/>
        <path d="M1406.8 1715.1h-16.1c0 1.3.2 2.5.6 3.5s1 1.8 1.7 2.5c.7.6 1.5 1.1 2.4 1.4s2 .5 3.1.5 3-.3 4.5-.9 2.6-1.2 3.2-1.7h.2v4c-1.2.5-2.5 1-3.8 1.3s-2.6.5-4.1.5c-3.6 0-6.4-1-8.5-2.9s-3-4.7-3-8.3 1-6.4 2.9-8.5 4.5-3.1 7.7-3.1 5.2.9 6.8 2.6 2.4 4.2 2.4 7.3v2Zm-3.6-2.8q0-2.85-1.5-4.5c-1.5-1.65-2.4-1.6-4.4-1.6s-3.5.6-4.7 1.7-1.8 2.6-2 4.3h12.5Z" fill="#ffffff"/>
        <path d="M1430.1 1723.1c0 3.7-.8 6.4-2.5 8.1s-4.3 2.6-7.8 2.6-2.3 0-3.4-.2-2.2-.4-3.3-.7v-3.8h.2c.6.2 1.5.5 2.9.9 1.3.3 2.6.5 3.9.5s2.3-.2 3.1-.4c.8-.3 1.5-.7 1.9-1.2.5-.5.8-1.1 1-1.8q.3-1.05.3-2.4v-2c-1.1.9-2.2 1.5-3.2 2s-2.3.7-3.9.7c-2.6 0-4.7-.9-6.2-2.8s-2.3-4.5-2.3-8 .3-3.5.8-4.9 1.2-2.5 2.2-3.5c.8-.9 1.9-1.6 3.1-2.2s2.4-.8 3.6-.8 2.3.1 3.2.4 1.8.6 2.7 1.2l.2-.9h3.4v19.3Zm-3.7-3.5v-11.9c-1-.4-1.9-.8-2.7-.9s-1.7-.3-2.5-.3c-2 0-3.6.7-4.8 2s-1.7 3.3-1.7 5.9.4 4.3 1.3 5.6 2.3 1.9 4.3 1.9 2.1-.2 3.2-.6 2.1-1 3-1.7Z" fill="#ffffff"/>
        <path d="M1441.3 1700.1h-4.1v-3.8h4.1zm-.3 25.5h-3.7v-21.8h3.7z" fill="#ffffff"/>
        <path d="M1466.5 1715.1h-16.1c0 1.3.2 2.5.6 3.5s1 1.8 1.7 2.5c.7.6 1.5 1.1 2.4 1.4s2 .5 3.1.5 3-.3 4.5-.9 2.6-1.2 3.2-1.7h.2v4c-1.2.5-2.5 1-3.8 1.3s-2.6.5-4.1.5c-3.6 0-6.4-1-8.5-2.9s-3-4.7-3-8.3 1-6.4 2.9-8.5 4.5-3.1 7.7-3.1 5.2.9 6.8 2.6 2.4 4.2 2.4 7.3v2Zm-3.5-2.8q0-2.85-1.5-4.5c-1.5-1.65-2.4-1.6-4.4-1.6s-3.5.6-4.7 1.7-1.8 2.6-2 4.3h12.5Z" fill="#ffffff"/>
        <path d="M1487.7 1719.3c0 2-.8 3.6-2.5 4.9s-3.9 1.9-6.7 1.9-3.1-.2-4.4-.6-2.5-.8-3.4-1.3v-4.1h.2c1.2.9 2.4 1.6 3.9 2.1s2.8.8 4.1.8 2.9-.3 3.8-.8 1.4-1.3 1.4-2.5-.2-1.5-.7-2-1.4-.8-2.9-1.1c-.5-.1-1.2-.3-2-.4s-1.6-.3-2.3-.5c-1.9-.5-3.3-1.3-4.1-2.2s-1.2-2.2-1.2-3.6.2-1.7.6-2.5.9-1.5 1.7-2.1c.7-.6 1.7-1.1 2.8-1.5s2.4-.5 3.8-.5 2.6.2 4 .5 2.4.7 3.3 1.2v3.9h-.2c-.9-.7-2.1-1.3-3.4-1.7s-2.7-.7-3.9-.7-2.5.3-3.4.8-1.4 1.3-1.4 2.3.3 1.6.8 2c.5.5 1.4.8 2.7 1.1.7.2 1.4.3 2.3.5s1.5.3 2.1.4c1.7.4 3 1.1 3.9 2 .9 1 1.4 2.2 1.4 3.8Z" fill="#ffffff"/>
        <path fill="none" stroke-miterlimit="10" stroke="#ffffff" stroke-width="2" d="M937.3 1551v194.8"/>
        <path d="M1601.9 1581.6h-21v-29.1h7.5v23.5h13.5z" fill="#ffffff"/>
        <path d="M1627.5 1581.6h-21v-29.1h21v5.6h-13.6v5h12.6v5.6h-12.6v7.2h13.6v5.6Z" fill="#ffffff"/>
        <path d="M1660.6 1581.6h-7.7l-2-5.9h-10.8l-2 5.9h-7.6l10.7-29.1h8.6l10.7 29.1Zm-11.5-11.2-3.6-10.4-3.6 10.4z" fill="#ffffff"/>
        <path d="M1692.3 1567.1c0 2.7-.6 5.1-1.9 7.3s-2.8 3.8-4.7 4.9c-1.4.9-3 1.5-4.7 1.8s-3.7.5-6 .5h-10.3v-29.1h10.5c2.4 0 4.4.2 6.1.6s3.2 1 4.3 1.7c2 1.2 3.6 2.9 4.7 5s1.7 4.5 1.7 7.3Zm-7.8-.1c0-1.9-.3-3.6-1-4.9s-1.8-2.4-3.3-3.2c-.8-.4-1.6-.6-2.4-.8s-2-.2-3.6-.2h-1.9v18.2h1.9c1.8 0 3.1 0 3.9-.2s1.6-.5 2.4-.9c1.4-.8 2.4-1.8 3-3.1s1-2.9 1-4.9" fill="#ffffff"/>
        <path d="M1600.8 1618.4c0 1.8-.3 3.4-.8 4.9s-1.2 2.7-2.1 3.7-1.9 1.7-3 2.2-2.4.8-3.7.8-2.2-.1-3.1-.4-1.9-.6-2.8-1.2v9.1h-3.7v-29.9h3.7v2.3q1.5-1.2 3.3-2.1c1.8-.9 2.5-.8 3.9-.8 2.6 0 4.7 1 6.1 3s2.2 4.7 2.2 8.3Zm-3.8.1c0-2.6-.4-4.6-1.3-5.9s-2.3-2-4.1-2-2.1.2-3.2.7-2.1 1.1-3.1 1.8v12.4c1 .5 1.9.8 2.7 1s1.6.3 2.5.3q3 0 4.8-2.1c1.8-2.1 1.7-3.4 1.7-6.1Z" fill="#ffffff"/>
        <path d="M1625.1 1618.7q0 5.4-2.7 8.4c-2.7 3-4.3 3.1-7.3 3.1s-5.5-1-7.4-3.1-2.7-4.9-2.7-8.4.9-6.4 2.7-8.4 4.3-3.1 7.4-3.1 5.5 1 7.3 3.1 2.7 4.9 2.7 8.4m-3.8 0c0-2.8-.6-4.9-1.7-6.3s-2.6-2.1-4.6-2.1-3.5.7-4.6 2.1-1.7 3.5-1.7 6.3.6 4.8 1.7 6.2 2.6 2.1 4.6 2.1 3.5-.7 4.6-2.1 1.7-3.5 1.7-6.2" fill="#ffffff"/>
        <path d="M1634.5 1629.6h-3.7v-30.4h3.7z" fill="#ffffff"/>
        <path d="M1645.7 1604.1h-4.1v-3.8h4.1zm-.3 25.5h-3.7v-21.8h3.7z" fill="#ffffff"/>
        <path d="M1668.8 1628.2c-1.2.6-2.4 1-3.5 1.4s-2.3.5-3.5.5-3-.2-4.3-.7-2.4-1.2-3.4-2.1-1.7-2.1-2.2-3.6-.8-3.1-.8-5c0-3.6 1-6.4 2.9-8.4s4.5-3 7.8-3 2.5.2 3.7.5 2.3.8 3.3 1.3v4.1h-.2c-1.1-.9-2.3-1.5-3.5-2s-2.4-.7-3.5-.7c-2.1 0-3.7.7-4.9 2.1s-1.8 3.5-1.8 6.2.6 4.7 1.8 6.1 2.8 2.1 5 2.1 1.5 0 2.3-.3 1.5-.4 2.1-.8l1.5-.9c.5-.3.8-.6 1.1-.8h.2v4Z" fill="#ffffff"/>
        <path d="m1692.4 1607.8-12.7 29.9h-3.9l4.1-9.1-8.7-20.8h4l6.7 16.2 6.8-16.2h3.8Z" fill="#ffffff"/>
        <path d="M1592.7 1667.1h-16.1c0 1.3.2 2.5.6 3.5s1 1.8 1.7 2.5c.7.6 1.5 1.1 2.4 1.4s2 .5 3.1.5 3-.3 4.5-.9 2.6-1.2 3.2-1.7h.2v4c-1.2.5-2.5 1-3.8 1.3s-2.6.5-4.1.5c-3.6 0-6.4-1-8.5-2.9s-3-4.7-3-8.3 1-6.4 2.9-8.5 4.5-3.1 7.7-3.1 5.2.9 6.8 2.6 2.4 4.2 2.4 7.3v2Zm-3.6-2.8q0-2.85-1.5-4.5c-1.5-1.65-2.4-1.6-4.4-1.6s-3.5.6-4.7 1.7-1.8 2.6-2 4.3h12.5Z" fill="#ffffff"/>
        <path d="M1610 1650.8h-.2c-.4-.1-.9-.2-1.6-.4s-1.2-.2-1.7-.2c-1.6 0-2.7.3-3.4 1s-1.1 2-1.1 3.8v.7h6.6v3.1h-6.5v18.7h-3.7v-18.7h-2.5v-3.1h2.5v-.7c0-2.6.6-4.6 1.9-6s3.2-2.1 5.6-2.1 1.6 0 2.2.1 1.3.2 1.8.3v3.4Z" fill="#ffffff"/>
        <path d="M1624.1 1650.8h-.2c-.4-.1-.9-.2-1.6-.4s-1.2-.2-1.7-.2c-1.6 0-2.7.3-3.4 1s-1.1 2-1.1 3.8v.7h6.6v3.1h-6.5v18.7h-3.7v-18.7h-2.5v-3.1h2.5v-.7c0-2.6.6-4.6 1.9-6s3.2-2.1 5.6-2.1 1.6 0 2.2.1 1.3.2 1.8.3v3.4Z" fill="#ffffff"/>
        <path d="M1645 1666.7q0 5.4-2.7 8.4c-2.7 3-4.3 3.1-7.3 3.1s-5.5-1-7.4-3.1-2.7-4.9-2.7-8.4.9-6.4 2.7-8.4 4.3-3.1 7.4-3.1 5.5 1 7.3 3.1 2.7 4.9 2.7 8.4m-3.8 0c0-2.8-.6-4.9-1.7-6.3s-2.6-2.1-4.6-2.1-3.5.7-4.6 2.1-1.7 3.5-1.7 6.3.6 4.8 1.7 6.2 2.6 2.1 4.6 2.1 3.5-.7 4.6-2.1 1.7-3.5 1.7-6.2" fill="#ffffff"/>
        <path d="M1664.3 1659.8h-.2c-.5-.1-1.1-.2-1.6-.3s-1.1 0-1.8 0c-1.1 0-2.2.3-3.3.8s-2.1 1.1-3 1.9v15.5h-3.7v-21.8h3.7v3.2c1.5-1.2 2.7-2 3.9-2.5s2.2-.7 3.4-.7h1.4c.3 0 .7 0 1.3.2v3.8Z" fill="#ffffff"/>
        <path d="M1679.1 1677.4c-.7.2-1.4.3-2.3.4s-1.5.2-2.2.2q-3.3 0-5.1-1.8c-1.8-1.8-1.7-3.1-1.7-5.8v-11.6h-2.5v-3.1h2.5v-6.3h3.7v6.3h7.6v3.1h-7.6v12.6c0 .7.2 1.2.5 1.8.3.5.7.9 1.2 1.1s1.3.4 2.3.4 1.2 0 1.9-.3 1.1-.3 1.4-.4h.2v3.3Z" fill="#ffffff"/>
        <path d="M1699.1 1671.3c0 2-.8 3.6-2.5 4.9s-3.9 1.9-6.7 1.9-3.1-.2-4.4-.6-2.5-.8-3.4-1.3v-4.1h.2c1.2.9 2.4 1.6 3.9 2.1s2.8.8 4.1.8 2.9-.3 3.8-.8 1.4-1.3 1.4-2.5-.2-1.5-.7-2-1.4-.8-2.9-1.1c-.5-.1-1.2-.3-2-.4s-1.6-.3-2.3-.5c-1.9-.5-3.3-1.3-4.1-2.2s-1.2-2.2-1.2-3.6.2-1.7.6-2.5.9-1.5 1.7-2.1c.7-.6 1.7-1.1 2.8-1.5s2.4-.5 3.8-.5 2.6.2 4 .5 2.4.7 3.3 1.2v3.9h-.2c-.9-.7-2.1-1.3-3.4-1.7s-2.7-.7-3.9-.7-2.5.3-3.4.8-1.4 1.3-1.4 2.3.3 1.6.8 2c.5.5 1.4.8 2.7 1.1.7.2 1.4.3 2.3.5s1.5.3 2.1.4c1.7.4 3 1.1 3.9 2 .9 1 1.4 2.2 1.4 3.8Z" fill="#ffffff"/>
        <path fill="none" stroke-miterlimit="10" stroke="#ffffff" stroke-width="2" d="M629.2 1551.4v194.8"/>
        <path fill="none" stroke-miterlimit="10" stroke="#ffffff" stroke-width="2" d="M1539.5 1551v194.8"/>
    </g>
</svg>
