<?xml version="1.0" encoding="UTF-8"?>
<svg data-bbox="5.1 1 681.1 625" viewBox="0 0 688 628" xmlns="http://www.w3.org/2000/svg" data-type="color">
    <g>
        <path d="m418 442.5-.9-4.7-.9-3.8-10.3-11.3-7.5-10.3-8.4-10.3-5.6-8.4 5.6-14.1 5.6-13.1 55-8.4 2.8-.9 1.9-2.8 2.8-3.8.9-3.8v-65.7l-.9-3.8-2.8-3.8-1.9-1.9-3.7-1.9-53.1-8.4-5.6-13.1-6.5-15.9 5.6-9.4 10.3-12.2 9.3-11.3 5.6-7.5.9-2.8.9-3.8-.9-2.8-1.9-4.7-3.7-5.6-6.5-5.6-15.9-17.8-22.4-20.6-2.8-1.9-3.7-.9-4.7.9-2.8 1.9-42 31-14-5.6-12.1-5.6-8.4-54.4-.9-2.8-2.8-2.8-3.7-2.8h-72.7l-3.7 2.8-1.9 1.9-1.9 3.8-1.9 9.4-1.9 13.1-1.9 15-2.8 16.9-14 6.6-13.1 5.6-41-31.9-2.8-1.9-4.7-.9-3.7 1.9-5.6 3.8-8.4 6.6-10.2 8.4-10.2 10.3L58 165l-6.5 7.5-4.7 6.6-1.9 2.8v7.5l1.9 3.8 10.3 11.3 7.5 11.3 7.5 8.4 6.5 9.4-6.5 14.1-3.7 13.1-55.9 8.4-2.8.9-2.8 2.8-.9 2.8-.9 4.7v65.7l.9 3.8.9 3.8 2.8 1.9 2.8.9 54.1 8.4 5.6 15 6.5 15-6.5 9.4-9.3 11.3-9.3 12.2-5.6 7.5-1.9 2.8v4.7l.9 1.9 1.9 4.7 3.7 5.6 5.6 5.6 15.9 16.9 22.4 21.6 3.7 1.9 3.7.9 4.7-.9 2.8-1.9 42-31 13 5.6 13.1 4.7 8.4 55.4.9 2.8 2.8 2.8 3.7 1.9 3.7.9h65.2l3.7-.9 3.7-1.9 1.9-1.9 1.9-3.8 1.9-10.3 1.9-12.2 2.8-15 1.9-18.8 14-3.8 13-5.6 40.1 31 3.7 1.9 4.7.9 3.7-1.9 5.6-3.8 8.4-6.6 10.3-8.4 9.3-10.3 7.5-9.4 7.5-6.6 4.7-6.6.9-2.8.9-2.8Zm-122.1-63.8-7.5 5.6-6.5 4.7-7.5 5.6-8.4 3.8-7.5 2.8-9.3 2.8-8.4.9h-18.6l-9.3-.9-8.4-2.8-7.5-2.8-8.4-3.8-6.5-5.6-8.4-4.7-6.5-5.6-6.5-7.5-4.7-7.5-4.7-7.5-3.7-7.5-2.8-7.5-2.8-9.4-.9-9.4-.9-9.4.9-8.4.9-9.4 2.8-8.4 2.8-8.4 3.7-7.5 4.7-8.4 4.7-6.6 6.5-7.5 6.5-5.6 8.4-5.6 6.5-4.7 8.4-3.8 7.5-1.9 8.4-3.8 9.3-.9h18.6l8.4.9 9.3 3.8 7.5 1.9 8.4 3.8 7.5 4.7 6.5 5.6 7.5 5.6 5.6 7.5 6.5 6.6 3.7 8.4 3.7 7.5 2.8 8.4 2.8 8.4.9 9.4.9 8.4-.9 9.4-.9 9.4-2.8 9.4-2.8 7.5-3.7 7.5-3.7 7.5-6.5 7.5z" fill="#ffffff" fill-rule="evenodd" data-color="1"/>
        <path d="m632.9 460.1-4.6-10.3-5.6-7.4 7.4-18.6 6.5-14.9 2.8-10.2.9-5.6v-.9l-.9-2.8-19.6-9.3-13-8.4-8.4-4.7-3.7-1.9h-1.9l-6.5 8.4-8.4 10.2-9.3 10.3-7.4 12.1-7.5-.9h-8.4l-6.5.9-7.4-10.2-11.2-14-10.2-12.1-5.6-4.7-2.8 1.9-8.4 3.7-9.3 5.6-10.2 6.5-9.3 4.7-3.7 1.9-.9 2.8v.9l.9 5.6 2.8 10.2 5.6 14.9 8.4 18.6-5.6 7.4-5.6 10.3-23.3 2.8-15.8 1.9-5.6 2.8-4.7.9-1.9.9-.9 1.9v49.4l.9 1.9 1.9.9 4.7.9 5.6 1.9 15.8 1.9 23.3 3.7 5.6 8.4 5.6 9.3-8.4 18.6-5.6 14-2.8 11.2-.9 5.6v.9l.9.9 18.6 11.2 14 8.4 8.4 4.7 2.8.9 1.9-.9 3.7-2.8 4.6-5.6 5.6-6.5 11.2-14 7.4-10.2h6.5l4.7.9 3.7-.9h7.5l6.5 10.2 11.2 14 6.5 6.5 4.6 5.6 2.8 2.8 1.9.9 3.7-.9 7.5-4.7 14-8.4 19.6-11.2.9-.9v-.9l-.9-5.6-2.8-11.2-6.5-14-7.4-18.6 5.6-9.3 4.6-8.4 23.3-3.7 16.8-1.9 5.6-1.9 3.7-.9 3.7-.9v-53.1l-3.7-.9-3.7-.9-5.6-2.8-16.8-1.9-23.3-2.8Zm-51.2 67.1-6.5 6.5-8.4 3.7-7.5 2.8-9.3.9-9.3-.9-8.4-2.8-7.4-3.7-7.5-6.5-5.6-6.5-4.7-7.5-1.9-9.3-.9-8.4.9-8.4 1.9-9.3 4.7-6.5 5.6-7.4 7.5-5.6 7.4-3.7 8.4-3.7 9.3-.9 9.3.9 7.5 3.7 8.4 3.7 6.5 5.6 6.5 7.4 3.7 6.5 1.9 9.3.9 8.4-.9 8.4-1.9 9.3-3.7 7.5z" fill="#ffffff" fill-rule="evenodd" data-color="1"/>
        <path d="m632.9 95.1-4.6-10.3-5.6-7.4 7.4-18.6 6.5-14 2.8-11.2.9-5.6v-.9l-.9-.9L619.8 15l-13-8.4-8.4-3.7-3.7-1.9-1.9.9-6.5 7.5-8.4 9.3-9.3 10.2-7.4 12.1h-7.5l-3.7-.9-4.7.9h-6.5l-7.4-9.3-11.2-14.9L510 4.7 504.4 1l-2.8.9-8.4 4.7-9.3 5.6-10.2 6.5-9.3 5.6-3.7 1.9-.9.9v.9l.9 5.6 2.8 11.2 5.6 14 8.4 18.6-5.6 7.4-5.6 10.3-23.3 2.8-15.8 2.8-5.6 1.9-4.7.9-1.9 1.9-.9.9v49.4l.9 1.9 1.9.9 4.7.9 5.6 1.9L443 165l23.3 1.9 5.6 10.3 5.6 8.4-8.4 18.6-5.6 14-2.8 10.2-.9 5.6v.9l.9 1.9 18.6 11.2 14 7.4 8.4 4.7 2.8 1.9 1.9-.9 3.7-2.8 4.6-5.6 5.6-7.5 11.2-14 7.4-10.2 6.5.9h8.4l7.5-.9 6.5 10.2 11.2 14 6.5 7.5 4.6 5.6 2.8 2.8 1.9.9 3.7-1.9 7.5-4.7 14-7.4 19.6-11.2.9-1.9v-.9l-.9-5.6-2.8-10.2-6.5-14-7.4-18.6 5.6-8.4 4.6-10.3 23.3-1.9 16.8-3.7 5.6-1.9 3.7-.9 3.7-.9v-52.2l-3.7-1.9-3.7-.9-5.6-1.9-16.8-2.8-23.3-2.8Zm-51.2 69-6.5 4.7-8.4 3.7-7.5 3.7-9.3.9-9.3-.9-8.4-3.7-7.4-3.7-7.5-4.7-5.6-7.5-4.7-8.4-1.9-7.5-.9-9.3.9-9.3 1.9-7.5 4.7-8.4 5.6-6.5 7.5-6.5 7.4-3.7 8.4-3.7h18.6l7.5 3.7 8.4 3.7 6.5 6.5 6.5 6.5 3.7 8.4 1.9 7.5.9 9.3-.9 9.3-1.9 7.5-3.7 8.4z" fill="#ffffff" fill-rule="evenodd" data-color="1"/>
    </g>
</svg>
