<?xml version="1.0" encoding="UTF-8"?>
<svg data-bbox="239.2 154.9 658.468 781.9" viewBox="0 0 1080 1080" xmlns="http://www.w3.org/2000/svg" data-type="color">
    <g>
        <path d="M530.3 174.3c149.9-.1 271.6 121.4 271.7 271.4 0 3.6 0 7.2-.2 10.8v10.7l2.6 4.5L871.2 588l.3.4.3.4c6.3 7.6 8.1 17.9 4.9 27.2-2.7 5.6-8 9.6-14.2 10.7h-60.6v77.5c.1 25.5-9.7 50.1-27.2 68.7-17.9 18.1-42.2 28.3-67.6 28.2h-66.8v116.3H373.2V682.1l-7.5-5.8C297.9 623.9 258.5 542.9 259 457.1v-.7c-5.8-149.9 110.9-276.2 260.7-282 3.6-.1 7.2-.2 10.8-.2m-.2-19.3c-160.6-.1-290.9 130-291.1 290.8 0 3.8 0 7.7.2 11.5-.4 91.7 41.8 178.3 114.2 234.5v245.1h305.9V820.5h47.4c30.5 0 59.8-12.3 81.3-33.9 21.2-22.1 33-51.7 32.9-82.4v-58.1h42.6c25.2-2.9 47.4-32 24.2-67.8L821.1 462v-4.8c6.2-160.6-118.9-295.9-279.3-302.1-3.8-.2-7.7-.2-11.5-.2" fill="#1a8441" fill-rule="evenodd" data-color="1"/>
        <path d="M627.1 418.2c0-7.1-5.8-12.8-12.8-12.8h-38.5v-38.5c0-7.1-5.8-12.8-12.8-12.8h-51.4c-7.1 0-12.8 5.8-12.8 12.8v38.5h-38.6c-7.1 0-12.8 5.8-12.8 12.8v51.4c0 7.1 5.8 12.8 12.8 12.8h38.5v38.5c0 7.1 5.8 12.8 12.8 12.8h51.4c7.1 0 12.8-5.8 12.8-12.8v-38.5h38.5c7.1 0 12.8-5.8 12.8-12.8v-51.4Z" fill="#1a8441" fill-rule="evenodd" data-color="1"/>
    </g>
</svg>
