<?xml version="1.0" encoding="UTF-8"?>
<svg data-bbox="5 1.56 661.7 433.04" viewBox="0 0 669 435" xmlns="http://www.w3.org/2000/svg" data-type="color">
    <g>
        <path d="M275.8 330.1c-22.7 34.4-12 70.1 24 92.6 24 11.9 60 11.9 82.7-22.5 24-47.6 165.4-398.3 153.4-398.3-12-11.9-236.1 292.5-260.1 328.2m60-246.1h34.7c24-23.8 36-35.7 48-59.6-24-11.9-48-11.9-82.7-11.9C146.4 12.5 5 166 5 364.5v35.7c0 22.5 22.7 34.4 34.7 34.4 24 0 36-22.5 36-34.4v-35.7c0-162.8 105.4-280.6 260.1-280.6ZM572 119.7c-12 22.5-12 46.3-24 70.1 34.7 46.3 46.7 116.5 46.7 174.7v35.7c0 11.9 12 34.4 36 34.4s36-11.9 36-34.4v-35.7c0-92.6-36-174.7-94.7-244.8" fill="#ffffff" fill-rule="evenodd" data-color="1"/>
    </g>
</svg>
