<?xml version="1.0" encoding="UTF-8"?>
<svg data-bbox="28.334 125.906 535.335 407.438" overflow="hidden" xmlns="http://www.w3.org/2000/svg" height="592" width="591" data-type="ugc">
    <g>
        <path transform="matrix(1.00172 0 0 1 4 5)" fill="#86BA23" stroke-width="6.073" stroke="#86BA23" d="M394.132 278.826a17.4 17.4 0 0 1 4.859-12.753 57.2 57.2 0 0 1 12.194-6.602 123.5 123.5 0 0 1 101.94.608 40 40 0 0 1 9.717 5.429 19.8 19.8 0 0 1 5.502 13.318v60.996c4.22 3.14 8.273 6.497 12.146 10.057v-71.053a30.3 30.3 0 0 0-9.067-21.911 49.3 49.3 0 0 0-13.233-7.895 133.77 133.77 0 0 0-111.742-.759 66.3 66.3 0 0 0-15.103 8.356 29.24 29.24 0 0 0-9.359 22.209v7.318q6.152.953 12.146 2.034Z"/>
        <path transform="matrix(1.00172 0 0 1 4 5)" fill="#86BA23" stroke-width="6.073" stroke="#86BA23" d="M461.262 230.23c23.478 0 42.511-19.032 42.511-42.51s-19.033-42.51-42.511-42.51-42.51 19.032-42.51 42.51c-.142 23.336 18.662 42.369 41.999 42.51q.255.003.511 0Zm0-72.875c16.76.024 30.341 13.605 30.365 30.365 0 16.77-13.595 30.365-30.365 30.365s-30.364-13.595-30.364-30.365 13.595-30.365 30.364-30.365Z"/>
        <path transform="matrix(1.00172 0 0 1 4 5)" fill="#86BA23" stroke-width="6.073" stroke="#86BA23" d="M54.656 278.826a20.2 20.2 0 0 1 1.622-7.67 16.4 16.4 0 0 1 7.087-7.956 64 64 0 0 1 7.743-3.735 123.53 123.53 0 0 1 101.94.608 40 40 0 0 1 9.716 5.429 19.8 19.8 0 0 1 5.496 13.324v9.455a552 552 0 0 1 12.146-2.046v-7.409a32.06 32.06 0 0 0-9.061-21.905 46.8 46.8 0 0 0-13.245-7.895 133.77 133.77 0 0 0-111.741-.759 66.8 66.8 0 0 0-14.74 8.089l-.959.899a30.4 30.4 0 0 0-8.15 21.571v71.053a152 152 0 0 1 12.146-10.051Z"/>
        <path transform="matrix(1.00172 0 0 1 4 5)" fill="#86BA23" stroke-width="6.073" stroke="#86BA23" d="M291.5 205.927c23.478 0 42.51-19.033 42.51-42.511s-19.032-42.51-42.51-42.51-42.51 19.032-42.51 42.51c-.142 23.337 18.662 42.369 41.998 42.511zm0-72.875c16.762.02 30.345 13.602 30.365 30.364 0 16.77-13.595 30.365-30.365 30.365s-30.365-13.595-30.365-30.365 13.595-30.364 30.365-30.364Z"/>
        <path transform="matrix(1.00172 0 0 1 4 5)" fill="#86BA23" stroke-width="6.073" stroke="#86BA23" d="M121.458 230.23c23.478 0 42.511-19.032 42.511-42.51s-19.033-42.51-42.511-42.51-42.51 19.032-42.51 42.51c-.142 23.336 18.662 42.369 41.998 42.51q.257.003.512 0Zm0-72.875c16.76.024 30.341 13.605 30.365 30.365 0 16.77-13.595 30.365-30.365 30.365S91.094 204.49 91.094 187.72s13.595-30.365 30.364-30.365Z"/>
        <path transform="matrix(1.00172 0 0 1 4 5)" fill="#86BA23" stroke-width="6.073" stroke="#86BA23" d="M224.091 254.528a17.42 17.42 0 0 1 4.858-12.753 57 57 0 0 1 12.194-6.601 123.5 123.5 0 0 1 101.946.607 39.7 39.7 0 0 1 9.717 5.423 19.8 19.8 0 0 1 5.496 13.324v28.47q6.134.68 12.146 1.482v-29.952a32.06 32.06 0 0 0-9.049-21.935 46.6 46.6 0 0 0-13.239-7.895 133.76 133.76 0 0 0-111.741-.759 66.6 66.6 0 0 0-15.116 8.356 29.25 29.25 0 0 0-9.358 22.233v30.031q6.017-.808 12.146-1.5Z"/>
        <path transform="matrix(1.00172 0 0 1 4 5)" fill="#86BA23" stroke-width="6.073" stroke="#86BA23" d="M291.5 291.5c-149.837 0-267.208 52.015-267.208 118.422S141.663 528.344 291.5 528.344s267.208-52.015 267.208-118.422S441.337 291.5 291.5 291.5Zm0 224.698c-138.262 0-255.062-48.668-255.062-106.276s116.8-106.276 255.062-106.276 255.062 48.668 255.062 106.276-116.8 106.276-255.062 106.276Z"/>
        <path fill-rule="evenodd" fill="#86BA23" stroke-miterlimit="8" stroke-width="3.438" stroke="#86BA23" d="m412.57 393.62-13.31-40.12-13.31 40.12h-78.14L294.5 353.5l-13.31 40.12h-78.14l-13.31-40.12-13.31 40.12H136.5l30.61 26.76-11.98 40.12 34.61-24.07 34.6 24.07-11.97-40.12 29.73-25.99h.04l29.73 25.99-11.98 40.12 34.61-24.07 34.61 24.07-11.98-40.12 29.73-25.99h.04l29.74 25.99-11.98 40.12 34.6-24.07 34.61 24.07-11.98-40.12 30.61-26.76Zm-208.06 24.47 7.61 25.51-22.38-15.57-22.39 15.57 7.62-25.51-20.1-17.56h26.51l8.36-25.2 8.36 25.2h26.51Zm104.76 0 7.62 25.51-22.39-15.57-22.39 15.57 7.62-25.51-20.1-17.56h26.52l8.35-25.2 8.36 25.2h26.51Zm112.38 25.51-22.39-15.57-22.39 15.57 7.62-25.51-20.1-17.56h26.52l8.35-25.2 8.36 25.2h26.51l-20.1 17.56Z"/>
    </g>
</svg>
